<svg width="45" height="50" viewBox="0 0 45 50" fill="none" xmlns="http://www.w3.org/2000/svg">
<path fill-rule="evenodd" clip-rule="evenodd" d="M32.7306 36.0366C28.7397 36.0366 25.5044 39.2497 25.5044 43.2132C25.5044 44.4839 25.8356 45.6734 26.416 46.7057L23.9037 48.0988C23.0901 46.6517 22.627 44.984 22.627 43.2132C22.627 37.6714 27.1505 33.179 32.7306 33.179C35.5913 33.179 38.1763 34.3615 40.0128 36.2574L37.9391 38.2386C36.6226 36.8795 34.777 36.0366 32.7306 36.0366Z" fill="#303030"/>
<path fill-rule="evenodd" clip-rule="evenodd" d="M33.6864 40.8425C32.3914 40.8425 31.3247 41.895 31.3247 43.2141C31.3247 43.6374 31.4339 44.0306 31.6241 44.3711L29.1077 45.7569C28.6864 45.0025 28.4473 44.1338 28.4473 43.2141C28.4473 40.3353 30.7836 37.9849 33.6864 37.9849C35.173 37.9849 36.5153 38.6046 37.4658 39.5926L35.3853 41.5667C34.9529 41.1173 34.352 40.8425 33.6864 40.8425Z" fill="#303030"/>
<path fill-rule="evenodd" clip-rule="evenodd" d="M12.9807 38.6667C10.6722 38.6667 8.66531 39.9576 7.65557 41.8578L5.51562 40.7363C6.92757 38.0791 9.73968 36.2637 12.9807 36.2637C14.0122 36.2637 15.0031 36.4481 15.92 36.7866L15.0769 39.039C14.4257 38.7986 13.7201 38.6667 12.9807 38.6667Z" fill="#303030"/>
<path fill-rule="evenodd" clip-rule="evenodd" d="M13.641 42.8881C12.1326 42.8881 10.8203 43.7314 10.1596 44.9751L8.01953 43.8537C9.08236 41.8532 11.1998 40.4851 13.641 40.4851C14.4173 40.4851 15.1637 40.624 15.8546 40.8791L15.0113 43.1314C14.5862 42.9745 14.1252 42.8881 13.641 42.8881Z" fill="#303030"/>
<path fill-rule="evenodd" clip-rule="evenodd" d="M32.7309 31.0356C25.959 31.0356 20.4692 36.4877 20.4692 43.2131C20.4692 44.719 20.7438 46.1579 21.2446 47.4853L18.5501 48.488C17.9302 46.8448 17.5918 45.0666 17.5918 43.2131C17.5918 34.9094 24.3698 28.178 32.7309 28.178C36.0182 28.178 39.0647 29.2202 41.548 30.9897L39.8705 33.3115C37.8599 31.8788 35.3967 31.0356 32.7309 31.0356Z" fill="#303030"/>
<path fill-rule="evenodd" clip-rule="evenodd" d="M12.9817 34.5102C9.78484 34.5102 6.932 35.9692 5.05953 38.2578L3.18164 36.7424C5.49384 33.9163 9.02551 32.1072 12.9817 32.1072C14.5862 32.1072 16.1235 32.4051 17.5386 32.9494L16.6647 35.1902C15.5239 34.7514 14.2826 34.5102 12.9817 34.5102Z" fill="#303030"/>
<path fill-rule="evenodd" clip-rule="evenodd" d="M32.7306 26.6194C23.5027 26.6194 16.0219 34.0487 16.0219 43.2132C16.0219 44.2883 16.1247 45.3382 16.3206 46.3542L13.4945 46.8916C13.2647 45.6994 13.1445 44.4696 13.1445 43.2132C13.1445 32.4705 21.9135 23.7617 32.7306 23.7617C35.9724 23.7617 40.2511 24.7359 42.7689 26.5219L40.4066 28.4699C38.1097 27.2878 35.5009 26.6194 32.7306 26.6194Z" fill="#303030"/>
<path fill-rule="evenodd" clip-rule="evenodd" d="M12.9804 30.8083C9.33425 30.8083 6.01764 32.198 3.53398 34.4754L1.89258 32.7099C4.80559 30.0388 8.70229 28.4053 12.9804 28.4053C15.3006 28.4053 17.511 28.886 19.5134 29.7538L18.5457 31.9562C16.8427 31.2182 14.9614 30.8083 12.9804 30.8083Z" fill="#303030"/>
<path d="M43.5933 0.923978C38.4758 3.89283 37.8039 7.93656 30.7221 7.42467C31.6265 5.31893 32.5631 4.09497 35.8913 1.74296C32.7382 2.97836 31.2967 3.975 29.5332 6.50331C30.3603 0.00265094 35.7426 -1.11659 43.5933 0.923978Z" fill="#303030"/>
<path fill-rule="evenodd" clip-rule="evenodd" d="M21.4498 10.1228C11.1203 10.1228 2.74663 18.439 2.74663 28.6975C2.74663 38.956 11.1203 47.2722 21.4498 47.2722C31.7793 47.2722 40.1531 38.956 40.1531 28.6975C40.1531 28.0634 40.1211 27.4372 40.0588 26.8202L42.7689 26.5218C42.8403 27.229 42.8997 27.9724 42.8997 28.6975C42.8997 40.4625 33.2963 50 21.4498 50C9.60342 50 0 40.4625 0 28.6975C0 16.9325 9.60342 7.39502 21.4498 7.39502C25.7358 7.39502 29.732 8.64482 33.0841 10.7979L31.5924 13.0884C28.6713 11.2121 25.1908 10.1228 21.4498 10.1228Z" fill="#303030"/>
<path d="M44.6657 22.7224C33.9065 21.4059 31.1425 18.9255 28.9707 11.6815C30.5075 7.92061 33.4503 11.1619 37.3221 13.6293C36.2815 11.0875 34.7847 9.93762 30.758 7.92061C39.9317 7.7636 43.1984 10.6067 44.6657 22.7224Z" fill="#303030"/>
<path fill-rule="evenodd" clip-rule="evenodd" d="M20.505 21.5313L24.2487 13.2603C23.5147 13.1614 22.7653 13.1104 22.0039 13.1104C21.3968 13.1104 20.7974 13.1428 20.2073 13.2061V21.4331C20.3076 21.4634 20.4068 21.4962 20.505 21.5313ZM24.4064 13.2823L21.7498 22.1396C21.8842 22.2247 22.015 22.3148 22.1421 22.4096L27.9802 17.117C27.479 16.1255 27.1483 15.0342 27.0264 13.8811C26.1806 13.6138 25.3052 13.4122 24.4064 13.2823ZM20.0977 13.2182L18.7087 21.1723C18.5986 21.1666 18.4877 21.1637 18.3762 21.1637C18.3446 21.1637 18.313 21.164 18.2815 21.1644L15.2572 14.5341C16.7648 13.8646 18.3918 13.4126 20.0977 13.2182ZM15.073 14.6172L16.6415 21.4048C16.5196 21.4395 16.3991 21.4779 16.2803 21.5196L11.4924 16.8521C12.5785 15.9637 13.7807 15.2101 15.073 14.6172ZM14.1907 22.7514C14.3393 22.6193 14.4943 22.4941 14.6552 22.3764L11.372 16.9515C10.3995 17.7624 9.52232 18.6822 8.75955 19.6922L14.1907 22.7514ZM8.62 19.8798C7.93704 20.8113 7.35027 21.8168 6.8742 22.8819L12.8301 24.4744C12.9054 24.3338 12.986 24.1964 13.0715 24.0625L8.62 19.8798ZM6.81662 23.0122L12.2696 25.9456C12.2406 26.0661 12.2152 26.1879 12.1934 26.3109C9.85541 26.4048 7.62127 26.899 5.55859 27.7264C5.7421 26.0683 6.17403 24.4844 6.81662 23.0122ZM28.0197 17.1942L23.1964 23.4037C23.2397 23.4552 23.2822 23.5074 23.3238 23.5603C25.8233 22.4379 28.5977 21.8132 31.519 21.8132C32.2742 21.8132 33.0196 21.8549 33.753 21.9363C31.2564 21.1931 29.191 19.4592 28.0197 17.1942Z" fill="#FE912A"/>
</svg>
