<svg width="192" height="50" viewBox="0 0 192 50" fill="none" xmlns="http://www.w3.org/2000/svg">
<path fill-rule="evenodd" clip-rule="evenodd" d="M60.2291 41.0518H54.5449L63.5727 17.6411H69.8924L78.9534 41.0518H73.2692L66.7492 22.6221L60.2291 41.0518ZM79.9471 32.6093C79.9471 29.9023 80.6487 27.7492 82.0518 26.1502C83.4664 24.5397 85.2836 23.7344 87.5033 23.7344C88.5384 23.7344 89.5102 23.9571 90.4188 24.4026C91.3274 24.8366 92.1094 25.482 92.765 26.3386V17.7036H97.2849V41.1072H92.765V38.9313C91.3734 40.6675 89.6195 41.5355 87.5033 41.5355C85.2951 41.5355 83.4837 40.7417 82.0691 39.1541C80.6545 37.5664 79.9471 35.3848 79.9471 32.6093ZM84.5705 32.6093C84.5705 34.0827 84.9731 35.2763 85.7781 36.1901C86.5832 37.1038 87.6298 37.5607 88.9179 37.5607C89.6655 37.5607 90.4015 37.3837 91.1261 37.0296C91.8507 36.6641 92.397 36.2015 92.765 35.6418V29.6281C92.397 29.0685 91.8507 28.6116 91.1261 28.2575C90.4015 27.892 89.6655 27.7093 88.9179 27.7093C87.6298 27.7093 86.5832 28.1604 85.7781 29.0628C84.9731 29.9651 84.5705 31.1473 84.5705 32.6093ZM101.847 41.1072V17.7036H106.367V26.3386C106.988 25.619 107.816 25.008 108.851 24.5054C109.886 23.9914 111.048 23.7344 112.336 23.7344C114.176 23.7344 115.562 24.2027 116.494 25.1393C117.425 26.0759 117.891 27.3894 117.891 29.0799V41.1072H113.406V30.7932C113.406 29.6738 113.135 28.88 112.595 28.4117C112.054 27.9434 111.272 27.7093 110.249 27.7093C109.432 27.7093 108.685 27.8977 108.006 28.2746C107.327 28.6516 106.781 29.1142 106.367 29.6624V41.1072H101.847ZM123.471 26.1502C122.068 27.7492 121.367 29.9023 121.367 32.6093C121.367 35.3848 122.074 37.5664 123.488 39.1541C124.903 40.7417 126.715 41.5355 128.923 41.5355C131.039 41.5355 132.793 40.6675 134.184 38.9313V41.1072H138.704V24.1627H134.184V26.3386C132.816 24.6025 131.062 23.7344 128.923 23.7344C126.703 23.7344 124.886 24.5397 123.471 26.1502ZM127.198 36.1901C126.392 35.2763 125.99 34.0827 125.99 32.6093C125.99 31.1473 126.392 29.9651 127.198 29.0628C128.003 28.1604 129.049 27.7093 130.337 27.7093C131.085 27.7093 131.821 27.8977 132.546 28.2746C133.27 28.6401 133.816 29.1027 134.184 29.6624V35.6418C133.816 36.2015 133.27 36.6641 132.546 37.0296C131.821 37.3837 131.085 37.5607 130.337 37.5607C129.049 37.5607 128.003 37.1038 127.198 36.1901ZM147.683 41.1072L140.834 24.1627H145.63L150.081 35.9502L154.566 24.1627H159.38L152.531 41.1072H147.683ZM176.017 25.7021C174.614 27.3012 173.912 29.4542 173.912 32.1612C173.912 34.9368 174.619 37.1184 176.034 38.706C177.449 40.2937 179.26 41.0875 181.468 41.0875C183.584 41.0875 185.338 40.2194 186.73 38.4833V40.6592H191.25V23.7147H186.73V25.8906C185.361 24.1544 183.607 23.2864 181.468 23.2864C179.249 23.2864 177.431 24.0916 176.017 25.7021ZM179.743 35.742C178.938 34.8283 178.535 33.6347 178.535 32.1612C178.535 30.6992 178.938 29.5171 179.743 28.6147C180.548 27.7124 181.595 27.2612 182.883 27.2612C183.63 27.2612 184.367 27.4497 185.091 27.8266C185.816 28.1921 186.362 28.6547 186.73 29.2144V35.1938C186.362 35.7535 185.816 36.216 185.091 36.5815C184.367 36.9356 183.63 37.1127 182.883 37.1127C181.595 37.1127 180.548 36.6558 179.743 35.742ZM169.161 41.1162L164.71 29.3287L160.225 41.1162H155.412L162.261 24.1717L167.108 24.1717L173.957 41.1162H169.161Z" fill="white"/>
<path d="M175.483 16.4954C171.069 19.0562 170.489 22.544 164.381 22.1025C165.161 20.2862 165.969 19.2305 168.839 17.2018C166.12 18.2674 164.877 19.127 163.355 21.3078C164.069 15.7008 168.711 14.7354 175.483 16.4954Z" fill="white"/>
<path fill-rule="evenodd" clip-rule="evenodd" d="M32.7306 36.0366C28.7397 36.0366 25.5044 39.2497 25.5044 43.2132C25.5044 44.4839 25.8356 45.6734 26.416 46.7057L23.9037 48.0988C23.0901 46.6517 22.627 44.984 22.627 43.2132C22.627 37.6714 27.1505 33.179 32.7306 33.179C35.5913 33.179 38.1763 34.3615 40.0128 36.2574L37.9391 38.2386C36.6226 36.8795 34.777 36.0366 32.7306 36.0366Z" fill="white"/>
<path fill-rule="evenodd" clip-rule="evenodd" d="M33.6864 40.8425C32.3914 40.8425 31.3247 41.895 31.3247 43.2141C31.3247 43.6374 31.4339 44.0306 31.6241 44.3711L29.1077 45.7569C28.6864 45.0025 28.4473 44.1338 28.4473 43.2141C28.4473 40.3353 30.7836 37.9849 33.6864 37.9849C35.173 37.9849 36.5153 38.6046 37.4658 39.5926L35.3853 41.5667C34.9529 41.1173 34.352 40.8425 33.6864 40.8425Z" fill="white"/>
<path fill-rule="evenodd" clip-rule="evenodd" d="M12.9807 38.6667C10.6722 38.6667 8.66531 39.9576 7.65557 41.8578L5.51562 40.7363C6.92757 38.0791 9.73968 36.2637 12.9807 36.2637C14.0122 36.2637 15.0031 36.4481 15.92 36.7866L15.0769 39.039C14.4257 38.7986 13.7201 38.6667 12.9807 38.6667Z" fill="white"/>
<path fill-rule="evenodd" clip-rule="evenodd" d="M13.641 42.8881C12.1326 42.8881 10.8203 43.7314 10.1596 44.9751L8.01953 43.8537C9.08236 41.8532 11.1998 40.4851 13.641 40.4851C14.4173 40.4851 15.1637 40.624 15.8546 40.8791L15.0113 43.1314C14.5862 42.9745 14.1252 42.8881 13.641 42.8881Z" fill="white"/>
<path fill-rule="evenodd" clip-rule="evenodd" d="M32.7309 31.0356C25.959 31.0356 20.4692 36.4877 20.4692 43.2131C20.4692 44.719 20.7438 46.1579 21.2446 47.4853L18.5501 48.488C17.9302 46.8448 17.5918 45.0666 17.5918 43.2131C17.5918 34.9094 24.3698 28.178 32.7309 28.178C36.0182 28.178 39.0647 29.2202 41.548 30.9897L39.8705 33.3115C37.8599 31.8788 35.3967 31.0356 32.7309 31.0356Z" fill="white"/>
<path fill-rule="evenodd" clip-rule="evenodd" d="M12.9817 34.5102C9.78484 34.5102 6.932 35.9692 5.05953 38.2578L3.18164 36.7424C5.49384 33.9163 9.02551 32.1072 12.9817 32.1072C14.5862 32.1072 16.1235 32.4051 17.5386 32.9494L16.6647 35.1902C15.5239 34.7514 14.2826 34.5102 12.9817 34.5102Z" fill="white"/>
<path fill-rule="evenodd" clip-rule="evenodd" d="M32.7306 26.6194C23.5027 26.6194 16.0219 34.0487 16.0219 43.2132C16.0219 44.2883 16.1247 45.3382 16.3206 46.3542L13.4945 46.8916C13.2647 45.6994 13.1445 44.4696 13.1445 43.2132C13.1445 32.4705 21.9135 23.7617 32.7306 23.7617C35.9724 23.7617 40.2511 24.7359 42.7689 26.5219L40.4066 28.4699C38.1097 27.2878 35.5009 26.6194 32.7306 26.6194Z" fill="white"/>
<path fill-rule="evenodd" clip-rule="evenodd" d="M12.9804 30.8083C9.33425 30.8083 6.01764 32.198 3.53398 34.4754L1.89258 32.7099C4.80559 30.0388 8.70229 28.4053 12.9804 28.4053C15.3006 28.4053 17.511 28.886 19.5134 29.7538L18.5457 31.9562C16.8427 31.2182 14.9614 30.8083 12.9804 30.8083Z" fill="white"/>
<path d="M43.5933 0.923978C38.4758 3.89283 37.8039 7.93656 30.7221 7.42467C31.6265 5.31893 32.5631 4.09497 35.8913 1.74296C32.7382 2.97836 31.2967 3.975 29.5332 6.50331C30.3603 0.00265094 35.7426 -1.11659 43.5933 0.923978Z" fill="white"/>
<path fill-rule="evenodd" clip-rule="evenodd" d="M21.4498 10.1228C11.1203 10.1228 2.74663 18.439 2.74663 28.6975C2.74663 38.956 11.1203 47.2722 21.4498 47.2722C31.7793 47.2722 40.1531 38.956 40.1531 28.6975C40.1531 28.0634 40.1211 27.4372 40.0588 26.8202L42.7689 26.5218C42.8403 27.229 42.8997 27.9724 42.8997 28.6975C42.8997 40.4625 33.2963 50 21.4498 50C9.60342 50 0 40.4625 0 28.6975C0 16.9325 9.60342 7.39502 21.4498 7.39502C25.7358 7.39502 29.732 8.64482 33.0841 10.7979L31.5924 13.0884C28.6713 11.2121 25.1908 10.1228 21.4498 10.1228Z" fill="white"/>
<path d="M44.6657 22.7224C33.9065 21.4059 31.1425 18.9255 28.9707 11.6815C30.5075 7.92061 33.4503 11.1619 37.3221 13.6293C36.2815 11.0875 34.7847 9.93762 30.758 7.92061C39.9317 7.7636 43.1984 10.6067 44.6657 22.7224Z" fill="white"/>
<path fill-rule="evenodd" clip-rule="evenodd" d="M20.505 21.5313L24.2487 13.2603C23.5147 13.1614 22.7653 13.1104 22.0039 13.1104C21.3968 13.1104 20.7974 13.1428 20.2073 13.2061V21.4331C20.3076 21.4634 20.4068 21.4962 20.505 21.5313ZM24.4064 13.2823L21.7498 22.1396C21.8842 22.2247 22.015 22.3148 22.1421 22.4096L27.9802 17.117C27.479 16.1255 27.1483 15.0342 27.0264 13.8811C26.1806 13.6138 25.3052 13.4122 24.4064 13.2823ZM20.0977 13.2182L18.7087 21.1723C18.5986 21.1666 18.4877 21.1637 18.3762 21.1637C18.3446 21.1637 18.313 21.164 18.2815 21.1644L15.2572 14.5341C16.7648 13.8646 18.3918 13.4126 20.0977 13.2182ZM15.073 14.6172L16.6415 21.4048C16.5196 21.4395 16.3991 21.4779 16.2803 21.5196L11.4924 16.8521C12.5785 15.9637 13.7807 15.2101 15.073 14.6172ZM14.1907 22.7514C14.3393 22.6193 14.4943 22.4941 14.6552 22.3764L11.372 16.9515C10.3995 17.7624 9.52232 18.6822 8.75955 19.6922L14.1907 22.7514ZM8.62 19.8798C7.93704 20.8113 7.35027 21.8168 6.8742 22.8819L12.8301 24.4744C12.9054 24.3338 12.986 24.1964 13.0715 24.0625L8.62 19.8798ZM6.81662 23.0122L12.2696 25.9456C12.2406 26.0661 12.2152 26.1879 12.1934 26.3109C9.85541 26.4048 7.62127 26.899 5.55859 27.7264C5.7421 26.0683 6.17403 24.4844 6.81662 23.0122ZM28.0197 17.1942L23.1964 23.4037C23.2397 23.4552 23.2822 23.5074 23.3238 23.5603C25.8233 22.4379 28.5977 21.8132 31.519 21.8132C32.2742 21.8132 33.0196 21.8549 33.753 21.9363C31.2564 21.1931 29.191 19.4592 28.0197 17.1942Z" fill="white"/>
</svg>
