<svg width="200" height="200" viewBox="0 0 200 200" fill="none" xmlns="http://www.w3.org/2000/svg">
<path d="M99.9941 23.4336C96.7582 23.4336 94.1348 26.057 94.1348 29.293C94.1348 32.5289 96.7582 35.1523 99.9941 35.1523C119.382 35.1523 135.156 50.9234 135.156 70.3086C135.156 73.5445 137.78 76.168 141.016 76.168C144.252 76.168 146.875 73.5445 146.875 70.3086C146.875 44.4617 125.845 23.4336 99.9941 23.4336Z" fill="#FE912A"/>
<path d="M84.8966 1.57424C58.424 7.10588 36.9591 28.3653 31.3111 55.0024C26.5419 77.4953 32.4189 100.077 47.4349 116.958C54.7751 125.209 58.9845 136.101 58.9845 146.871V158.59C58.9845 166.387 64.0888 173.011 71.1302 175.305C73.4459 188.986 85.3209 199.996 100 199.996C114.676 199.996 126.554 188.99 128.87 175.305C135.911 173.011 141.016 166.387 141.016 158.589V146.871C141.016 136.08 145.239 125.319 152.907 116.57C164.131 103.766 170.313 87.336 170.313 70.3086C170.313 25.9473 129.708 -7.78748 84.8966 1.57424ZM100 188.277C92.4681 188.277 85.8642 183.095 83.4255 176.129H116.574C114.136 183.095 107.532 188.277 100 188.277ZM129.297 158.59C129.297 161.821 126.669 164.449 123.438 164.449H76.5626C73.3318 164.449 70.7033 161.821 70.7033 158.59V152.73H129.297V158.59ZM144.095 108.847C135.923 118.17 130.895 129.412 129.619 141.012H70.3822C69.108 129.406 64.0931 118.053 56.1916 109.17C43.6767 95.1008 38.7865 76.2434 42.7751 57.4332C47.431 35.4746 65.3216 17.6367 87.2939 13.0457C124.803 5.20705 158.594 33.3758 158.594 70.3086C158.594 84.493 153.445 98.1793 144.095 108.847Z" fill="#FE912A"/>
<path d="M17.5781 70.3086H5.85938C2.62344 70.3086 0 72.932 0 76.168C0 79.4039 2.62344 82.0273 5.85938 82.0273H17.5781C20.8141 82.0273 23.4375 79.4039 23.4375 76.168C23.4375 72.932 20.8141 70.3086 17.5781 70.3086Z" fill="#FE912A"/>
<path d="M20.0057 41.0118L11.7193 32.7254C9.43145 30.4371 5.72129 30.4371 3.43301 32.7254C1.14473 35.0137 1.14473 38.7235 3.43301 41.0118L11.7193 49.2981C14.0072 51.5864 17.7174 51.5868 20.0057 49.2981C22.2939 47.0098 22.2939 43.3 20.0057 41.0118Z" fill="#FE912A"/>
<path d="M20.0057 103.038C17.7174 100.75 14.0072 100.75 11.7193 103.038L3.43301 111.324C1.14473 113.613 1.14473 117.322 3.43301 119.611C5.7209 121.899 9.43106 121.899 11.7193 119.611L20.0057 111.324C22.2939 109.036 22.2939 105.326 20.0057 103.038Z" fill="#FE912A"/>
<path d="M194.141 70.3086H182.422C179.186 70.3086 176.562 72.932 176.562 76.168C176.562 79.4039 179.186 82.0273 182.422 82.0273H194.141C197.377 82.0273 200 79.4039 200 76.168C200 72.932 197.377 70.3086 194.141 70.3086Z" fill="#FE912A"/>
<path d="M196.568 32.7254C194.28 30.4371 190.57 30.4371 188.282 32.7254L179.996 41.0118C177.707 43.3 177.707 47.0098 179.996 49.2981C182.283 51.586 185.994 51.5864 188.282 49.2981L196.568 41.0118C198.856 38.7235 198.856 35.0137 196.568 32.7254Z" fill="#FE912A"/>
<path d="M196.568 111.324L188.282 103.038C185.994 100.75 182.284 100.75 179.996 103.038C177.707 105.326 177.707 109.036 179.996 111.324L188.282 119.611C190.57 121.898 194.28 121.899 196.568 119.611C198.856 117.322 198.856 113.613 196.568 111.324Z" fill="#FE912A"/>
</svg>
