<svg width="28" height="24" viewBox="0 0 28 24" fill="none" xmlns="http://www.w3.org/2000/svg">
<path fill-rule="evenodd" clip-rule="evenodd" d="M10.3912 14.8063L10.3928 14.8119C10.5652 15.4108 11.1555 15.8749 11.8588 15.8749H21.9767C22.6397 15.8749 23.207 15.4701 23.42 14.8689L25.2987 8.90578V6.99996L25.2976 6.99996H8.08744L10.3912 14.8063ZM5.29122 3.7076L8.71111 15.2961C9.10597 16.6675 10.3997 17.6249 11.8588 17.6249H21.9767C23.3818 17.6249 24.6271 16.7485 25.0816 15.4187L27.4024 8.05231C27.606 7.39532 27.4879 6.70007 27.0784 6.14433C26.6655 5.58408 25.9995 5.24996 25.2976 5.24996H8.09125L7.45115 3.07873C7.05629 1.70737 5.7637 0.75 4.30463 0.75H1.62496C1.00286 0.75 0.5 1.254 0.5 1.87499C0.5 2.49598 1.00286 2.99998 1.62496 2.99998H4.30463C4.76586 2.99998 5.16972 3.28798 5.29122 3.7076ZM25.6696 7.18251C25.5927 7.07811 25.4578 7.00406 25.3099 7.00013V8.87007L25.7308 7.53425C25.7311 7.53343 25.7313 7.5326 25.7316 7.53177C25.7688 7.40917 25.7502 7.29202 25.6696 7.18251Z" fill="#07425A"/>
<path fill-rule="evenodd" clip-rule="evenodd" d="M12.375 21C12.375 21.2745 12.6006 21.5 12.8749 21.5C13.1492 21.5 13.3749 21.2745 13.3749 21H12.375ZM12.375 20.9989C12.3756 20.725 12.601 20.5001 12.8749 20.5001C13.1488 20.5001 13.3742 20.725 13.3749 20.9989H12.375ZM10.625 21C10.625 22.2409 11.6341 23.25 12.8749 23.25C14.1158 23.25 15.1249 22.2409 15.1249 21C15.1249 19.7592 14.1158 18.7501 12.8749 18.7501C11.6341 18.7501 10.625 19.7592 10.625 21Z" fill="#07425A"/>
<path fill-rule="evenodd" clip-rule="evenodd" d="M20.2495 21C20.2495 21.2745 20.4751 21.5 20.7494 21.5C21.0237 21.5 21.2494 21.2745 21.2494 21H20.2495ZM20.2495 20.9989C20.2501 20.725 20.4755 20.5001 20.7494 20.5001C21.0234 20.5001 21.2487 20.725 21.2494 20.9989H20.2495ZM18.4995 21C18.4995 22.2409 19.5086 23.25 20.7494 23.25C21.9903 23.25 22.9994 22.2409 22.9994 21C22.9994 19.7592 21.9903 18.7501 20.7494 18.7501C19.5086 18.7501 18.4995 19.7592 18.4995 21Z" fill="#07425A"/>
</svg>
