<svg width="90" height="90" viewBox="0 0 90 90" fill="none" xmlns="http://www.w3.org/2000/svg">
<path d="M36 9H15.0003C11.7009 9 9 11.7 9 15.0003V36C9 39.3003 11.7009 42.0003 15.0003 42.0003H36C39.2985 42.0003 42.0003 39.3003 42.0003 36V15.0003C42.0003 11.7 39.2985 9 36 9ZM36 36H15.0003V15.0003H36V36Z" fill="#F47B20"/>
<path d="M36 48.0005H15.0003C11.7009 48.0005 9 50.7014 9 53.9999V74.9996C9 78.299 11.7009 80.9999 15.0003 80.9999H36C39.2985 80.9999 42.0003 78.299 42.0003 74.9996V53.9999C42.0003 50.7014 39.2985 48.0005 36 48.0005ZM36 74.9996H15.0003V53.9999H36V74.9996Z" fill="#F47B20"/>
<path d="M48 9H63.0003V15.0003H48V9Z" fill="#F47B20"/>
<path d="M48 33.0002H69.0006V39.0005H48V33.0002Z" fill="#F47B20"/>
<path d="M48 20.9998H81.0003V27.0001H48V20.9998Z" fill="#F47B20"/>
<path d="M48 48.0005H81.0003V53.9999H48V48.0005Z" fill="#F47B20"/>
<path d="M48 72H69.0006V78.0003H48V72Z" fill="#F47B20"/>
<path d="M48 60.0002H63.0003V65.9996H48V60.0002Z" fill="#F47B20"/>
</svg>
