<svg width="150" height="150" viewBox="0 0 150 150" fill="none" xmlns="http://www.w3.org/2000/svg">
<path d="M137.894 123.948L118.255 95.5803C117.945 95.1372 117.482 94.825 116.955 94.704C116.428 94.5831 115.875 94.6621 115.403 94.9256L96.7699 105.267L75.9763 94.8689C75.9218 94.8427 75.8629 94.834 75.8061 94.81C75.7186 94.7735 75.6289 94.7422 75.5377 94.7161C75.4521 94.6963 75.3654 94.6817 75.278 94.6725C75.1866 94.655 75.094 94.644 75.0009 94.6398C74.9074 94.6413 74.814 94.6493 74.7216 94.6638C74.6349 94.6728 74.5489 94.6874 74.4641 94.7074C74.3717 94.7329 74.2813 94.765 74.1935 94.8034C74.1368 94.8252 74.0779 94.834 74.0255 94.8602L53.232 105.267L34.5987 94.9147C34.1267 94.6511 33.5736 94.5722 33.0467 94.6931C32.5198 94.8141 32.0565 95.1263 31.7467 95.5693L12.1075 123.937C11.9173 124.212 11.793 124.528 11.7441 124.859C11.6952 125.19 11.7231 125.527 11.8256 125.846C11.9281 126.164 12.1025 126.455 12.3353 126.695C12.568 126.936 12.853 127.119 13.168 127.232L43.7179 138.143C44.1916 138.314 44.7105 138.314 45.1843 138.143L75.0009 127.505L104.818 138.154C105.291 138.325 105.81 138.325 106.284 138.154L136.834 127.243C137.149 127.13 137.434 126.947 137.667 126.706C137.899 126.466 138.074 126.175 138.176 125.857C138.279 125.538 138.307 125.201 138.258 124.87C138.209 124.539 138.085 124.223 137.894 123.948ZM34.2103 99.6892L50.5763 108.78L43.0349 133.279L17.3141 124.099L34.2103 99.6892ZM53.795 113.153L54.9908 109.26L72.8188 100.353V123.662L47.8181 132.583L53.795 113.153ZM77.1831 123.662V100.353L95.0111 109.26L96.2069 113.146L102.184 132.567L77.1831 123.662ZM106.967 133.29L99.4277 108.78L115.794 99.6892L132.688 124.099L106.967 133.29Z" fill="#FE912A"/>
<path d="M13.9003 37.9043H53.1787C53.6654 37.9042 54.1382 37.7413 54.5217 37.4416C54.9052 37.1419 55.1775 36.7226 55.2953 36.2503L57.0869 29.0842C57.2351 29.1314 57.388 29.1621 57.5429 29.1758H64.0893V37.9043C64.0893 39.0618 64.5491 40.1719 65.3676 40.9903C66.1861 41.8088 67.2961 42.2686 68.4536 42.2686V47.9618C65.2254 49.2431 62.458 51.467 60.5118 54.3438C58.5657 57.2206 57.5312 60.6168 57.5429 64.0899C57.5429 64.6687 57.7728 65.2237 58.1821 65.6329C58.5913 66.0422 59.1463 66.2721 59.7251 66.2721H68.4536V68.4542C68.4536 70.1904 69.1433 71.8555 70.371 73.0832C71.5987 74.3109 73.2638 75.0006 75 75.0006C76.7362 75.0006 78.4013 74.3109 79.629 73.0832C80.8567 71.8555 81.5464 70.1904 81.5464 68.4542V66.2721H90.2749C90.8537 66.2721 91.4087 66.0422 91.8179 65.6329C92.2272 65.2237 92.4571 64.6687 92.4571 64.0899C92.4692 60.6167 91.4347 57.2204 89.4886 54.3435C87.5424 51.4667 84.7748 49.2429 81.5464 47.9618V42.2686C82.7039 42.2686 83.8139 41.8088 84.6324 40.9903C85.4509 40.1719 85.9107 39.0618 85.9107 37.9043V29.1758H92.4571C92.612 29.1621 92.765 29.1314 92.9131 29.0842L94.7047 36.2503C94.8225 36.7226 95.0948 37.1419 95.4783 37.4416C95.8618 37.7413 96.3346 37.9042 96.8213 37.9043H136.1C136.431 37.9043 136.758 37.8287 137.056 37.6833C137.354 37.5379 137.615 37.3266 137.819 37.0654C138.023 36.8041 138.165 36.4999 138.234 36.1756C138.303 35.8514 138.297 35.5157 138.216 35.1941L133.852 17.7371C133.734 17.2648 133.462 16.8454 133.078 16.5457C132.695 16.246 132.222 16.0832 131.735 16.083H92.4571C92.1256 16.0831 91.7985 16.1587 91.5006 16.3041C91.2028 16.4494 90.9419 16.6608 90.7379 16.922C90.5339 17.1832 90.392 17.4875 90.3232 17.8117C90.2543 18.136 90.2602 18.4716 90.3404 18.7932L91.8461 24.8115H85.9107V16.083C85.9107 14.9255 85.4509 13.8155 84.6324 12.997C83.8139 12.1786 82.7039 11.7188 81.5464 11.7188H68.4536C67.2961 11.7188 66.1861 12.1786 65.3676 12.997C64.5491 13.8155 64.0893 14.9255 64.0893 16.083V24.8115H58.1539L59.6596 18.7932C59.7398 18.4716 59.7457 18.136 59.6768 17.8117C59.608 17.4875 59.4661 17.1832 59.2621 16.922C59.0581 16.6608 58.7972 16.4494 58.4994 16.3041C58.2015 16.1587 57.8744 16.0831 57.5429 16.083H18.2645C17.7778 16.0832 17.3051 16.246 16.9215 16.5457C16.538 16.8454 16.2657 17.2648 16.1479 17.7371L11.7836 35.1941C11.7034 35.5157 11.6975 35.8514 11.7664 36.1756C11.8352 36.4999 11.9771 36.8041 12.1811 37.0654C12.3851 37.3266 12.646 37.5379 12.9439 37.6833C13.2417 37.8287 13.5688 37.9043 13.9003 37.9043ZM97.4345 29.1758H106.03L107.121 33.5401H98.5256L97.4345 29.1758ZM116.941 20.4473L118.032 24.8115H109.434L108.343 20.4473H116.941ZM119.123 29.1758L120.214 33.5401H111.616L110.525 29.1758H119.123ZM124.709 33.5401L123.618 29.1758H132.213L133.304 33.5401H124.709ZM131.122 24.8115H122.527L121.436 20.4473H130.031L131.122 24.8115ZM103.848 20.4473L104.939 24.8115H96.3434L95.2524 20.4473H103.848ZM77.1821 68.4542C77.1821 69.0329 76.9522 69.588 76.543 69.9972C76.1338 70.4064 75.5787 70.6363 75 70.6363C74.4213 70.6363 73.8662 70.4064 73.457 69.9972C73.0478 69.588 72.8179 69.0329 72.8179 68.4542V66.2721H77.1821V68.4542ZM87.9139 61.9078H62.0861C62.4823 59.4891 63.5545 57.2319 65.1789 55.3966C66.8033 53.5614 68.9137 52.223 71.2664 51.5361C73.0937 50.9986 75.0155 50.8616 76.9006 51.1346C77.5237 51.2233 78.1393 51.3583 78.7424 51.5383C81.0931 52.2265 83.2015 53.5651 84.8242 55.3998C86.447 57.2345 87.518 59.4906 87.9139 61.9078ZM77.1821 46.7682C75.733 46.5879 74.267 46.5879 72.8179 46.7682V42.2686H77.1821V46.7682ZM68.4536 16.083H81.5464V37.9043H77.1821V31.3579C77.1821 30.7792 76.9522 30.2242 76.543 29.8149C76.1338 29.4057 75.5787 29.1758 75 29.1758C74.4213 29.1758 73.8662 29.4057 73.457 29.8149C73.0478 30.2242 72.8179 30.7792 72.8179 31.3579V37.9043H68.4536V16.083ZM17.7867 29.1758H26.3821L25.291 33.5401H16.6956L17.7867 29.1758ZM41.657 20.4473L40.5659 24.8115H31.9683L33.0594 20.4473H41.657ZM39.4749 29.1758L38.3838 33.5401H29.7862L30.8773 29.1758H39.4749ZM42.879 33.5401L43.9701 29.1758H52.5655L51.4744 33.5401H42.879ZM53.6566 24.8115H45.0611L46.1522 20.4473H54.7476L53.6566 24.8115ZM28.5642 20.4473L27.4731 24.8115H18.8777L19.9688 20.4473H28.5642Z" fill="#FE912A"/>
<path d="M62.1998 78.2738L58.9266 83.9474C58.7811 84.1957 58.6861 84.4703 58.6471 84.7554C58.6081 85.0405 58.6259 85.3305 58.6994 85.6088C58.773 85.887 58.9009 86.1479 59.0757 86.3765C59.2505 86.6051 59.4688 86.7969 59.718 86.9408C59.9672 87.0847 60.2424 87.1778 60.5278 87.2149C60.8132 87.252 61.1031 87.2323 61.3808 87.1569C61.6585 87.0815 61.9186 86.9519 62.1461 86.7756C62.3735 86.5993 62.5638 86.3797 62.706 86.1295L65.9792 80.456C66.2641 79.9551 66.3392 79.3618 66.1882 78.8057C66.0372 78.2496 65.6724 77.7758 65.1734 77.4877C64.6743 77.1996 64.0816 77.1205 63.5245 77.2678C62.9674 77.4151 62.4912 77.7767 62.1998 78.2738Z" fill="#FE912A"/>
<path d="M54.2693 72.0197L48.5958 75.2929C48.3456 75.4352 48.1261 75.6255 47.9497 75.8529C47.7734 76.0804 47.6438 76.3404 47.5684 76.6182C47.493 76.8959 47.4733 77.1858 47.5104 77.4712C47.5475 77.7565 47.6407 78.0318 47.7846 78.281C47.9284 78.5302 48.1202 78.7485 48.3488 78.9233C48.5774 79.0981 48.8383 79.226 49.1166 79.2995C49.3948 79.3731 49.6848 79.3909 49.9699 79.3519C50.2551 79.3129 50.5297 79.2179 50.7779 79.0724L56.4515 75.7992C56.7016 75.657 56.9212 75.4666 57.0975 75.2392C57.2738 75.0118 57.4034 74.7517 57.4788 74.474C57.5542 74.1962 57.574 73.9063 57.5369 73.621C57.4998 73.3356 57.4066 73.0604 57.2627 72.8111C57.1188 72.5619 56.927 72.3436 56.6984 72.1688C56.4698 71.994 56.2089 71.8661 55.9307 71.7926C55.6525 71.719 55.3624 71.7012 55.0773 71.7402C54.7922 71.7792 54.5176 71.8742 54.2693 72.0197Z" fill="#FE912A"/>
<path d="M84.8195 77.4752C84.3183 77.7646 83.9526 78.2412 83.8029 78.8002C83.6531 79.3592 83.7315 79.9548 84.0209 80.456L87.2941 86.1295C87.5855 86.6266 88.0617 86.9883 88.6188 87.1356C89.1759 87.2829 89.7686 87.2038 90.2676 86.9157C90.7667 86.6276 91.1315 86.1538 91.2825 85.5977C91.4334 85.0416 91.3583 84.4483 91.0735 83.9474L87.8003 78.2739C87.5109 77.7727 87.0343 77.407 86.4753 77.2572C85.9163 77.1074 85.3207 77.1859 84.8195 77.4752Z" fill="#FE912A"/>
<path d="M95.7294 72.0198C95.2285 71.735 94.6352 71.6599 94.0791 71.8109C93.5231 71.9618 93.0492 72.3266 92.7611 72.8257C92.473 73.3247 92.394 73.9174 92.5412 74.4745C92.6885 75.0316 93.0502 75.5078 93.5473 75.7992L99.2208 79.0725C99.4691 79.218 99.7437 79.313 100.029 79.352C100.314 79.391 100.604 79.3732 100.882 79.2996C101.16 79.2261 101.421 79.0982 101.65 78.9234C101.879 78.7486 102.07 78.5303 102.214 78.281C102.358 78.0318 102.451 77.7566 102.488 77.4712C102.525 77.1858 102.506 76.8959 102.43 76.6182C102.355 76.3405 102.225 76.0804 102.049 75.853C101.873 75.6255 101.653 75.4352 101.403 75.293L95.7294 72.0198Z" fill="#FE912A"/>
<path d="M72.8184 81.547V88.0934C72.8184 88.6721 73.0483 89.2272 73.4575 89.6364C73.8667 90.0456 74.4218 90.2755 75.0005 90.2755C75.5792 90.2755 76.1343 90.0456 76.5435 89.6364C76.9527 89.2272 77.1826 88.6721 77.1826 88.0934V81.547C77.1826 80.9683 76.9527 80.4132 76.5435 80.004C76.1343 79.5948 75.5792 79.3649 75.0005 79.3649C74.4218 79.3649 73.8667 79.5948 73.4575 80.004C73.0483 80.4132 72.8184 80.9683 72.8184 81.547Z" fill="#FE912A"/>
</svg>
