<svg width="84" height="90" viewBox="0 0 84 90" fill="none" xmlns="http://www.w3.org/2000/svg">
<path d="M73.7365 5.99505C73.2204 5.4663 72.3735 5.45541 71.8449 5.97115L62.8927 14.701L63.9829 9.26845C64.1281 8.54441 63.659 7.83918 62.9346 7.6938C62.2111 7.54931 61.5051 8.01777 61.3599 8.74216L59.5 18.0092L55.6634 21.7505L56.7284 16.4435C56.8738 15.7194 56.4045 15.0142 55.6801 14.8688C54.956 14.7238 54.2506 15.1928 54.1054 15.9172L52.2708 25.0589L45.3139 31.8426C44.785 32.3584 44.7744 33.2053 45.29 33.7342C45.5523 34.0028 45.8998 34.1378 46.248 34.1378C46.5848 34.1378 46.9216 34.0116 47.1818 33.7579L53.7159 27.3862L63.5269 27.2187C64.2658 27.206 64.8541 26.5971 64.8416 25.8583C64.8291 25.1273 64.2327 24.5435 63.5046 24.5435C63.4967 24.5435 63.489 24.5435 63.4812 24.5437L56.5087 24.6627L61.0755 20.2094L70.7813 20.0435C71.5201 20.0308 72.1084 19.4219 72.0959 18.6831C72.0834 17.952 71.487 17.3683 70.7589 17.3683C70.751 17.3683 70.7433 17.3683 70.7356 17.3685L63.8683 17.4859L73.7126 7.88629C74.2417 7.37054 74.2522 6.5238 73.7365 5.99505Z" fill="#F47B20"/>
<path d="M19.2077 25.2254C18.7794 24.739 18.3631 24.2336 17.9704 23.7232C17.5202 23.1378 16.6805 23.0278 16.0945 23.4783C15.5089 23.9286 15.3993 24.7685 15.8496 25.3542C16.2782 25.9116 16.7326 26.4634 17.2001 26.9939C17.4647 27.294 18.457 27.7616 19.0884 27.1135C19.6038 26.5842 19.6961 25.7796 19.2077 25.2254Z" fill="#F47B20"/>
<path d="M48.4701 68.7759C46.0612 68.7759 44.1016 70.7357 44.1016 73.1444C44.1016 75.5533 46.0613 77.5129 48.4701 77.5129C50.879 77.5129 52.8386 75.5531 52.8386 73.1444C52.8388 70.7357 50.879 68.7759 48.4701 68.7759ZM48.4701 74.8379C47.5363 74.8379 46.7768 74.0783 46.7768 73.1446C46.7768 72.2108 47.5363 71.4513 48.4701 71.4513C49.4038 71.4513 50.1634 72.2108 50.1634 73.1446C50.1634 74.0781 49.4038 74.8379 48.4701 74.8379Z" fill="#F47B20"/>
<path d="M60.691 75.9133C59.952 75.9133 59.3533 76.512 59.3533 77.251C59.3533 77.99 59.952 78.5887 60.691 78.5887C61.6247 78.5887 62.3844 79.3483 62.3844 80.282C62.3844 81.2158 61.6247 81.9755 60.691 81.9755C59.7572 81.9755 58.9977 81.2158 58.9977 80.282C58.9977 79.543 58.3989 78.9443 57.66 78.9443C56.921 78.9443 56.3223 79.543 56.3223 80.282C56.3223 82.6911 58.2821 84.6507 60.6908 84.6507C63.0999 84.6507 65.0595 82.6909 65.0595 80.282C65.0597 77.8731 63.0999 75.9133 60.691 75.9133Z" fill="#F47B20"/>
<path d="M63.722 51.072C61.3133 51.072 59.3535 53.0318 59.3535 55.4407C59.3535 57.8496 61.3133 59.8092 63.722 59.8092C66.1309 59.8092 68.0905 57.8494 68.0905 55.4407C68.0905 53.0316 66.1309 51.072 63.722 51.072ZM63.7222 57.134C62.7885 57.134 62.0289 56.3745 62.0289 55.4407C62.0289 54.507 62.7885 53.7472 63.7222 53.7472C64.656 53.7472 65.4155 54.5068 65.4155 55.4407C65.4155 56.3743 64.656 57.134 63.7222 57.134Z" fill="#F47B20"/>
<path d="M17.3509 50.002C14.942 50.002 12.9824 51.9617 12.9824 54.3706C12.9824 56.7796 14.9422 58.7392 17.3509 58.7392C18.0899 58.7392 18.6886 58.1404 18.6886 57.4015C18.6886 56.6625 18.0899 56.0638 17.3509 56.0638C16.4172 56.0638 15.6576 55.3042 15.6576 54.3705C15.6576 53.4367 16.4172 52.677 17.3509 52.677C18.2847 52.677 19.0442 53.4367 19.0442 54.3705C19.0442 55.1095 19.6429 55.7082 20.3819 55.7082C21.1209 55.7082 21.7196 55.1095 21.7196 54.3705C21.7195 51.9616 19.7598 50.002 17.3509 50.002Z" fill="#F47B20"/>
<path d="M74.9495 69.9492C73.9403 69.9492 72.9463 70.1306 72.012 70.4802C68.3512 61.4254 58.4794 62.0616 58.1266 62.0883C55.7096 57.2924 51.3114 53.8726 46.1933 52.6499C46.3343 48.1413 46.7453 43.7636 47.4245 39.6152C50.5411 39.3164 56.5894 38.2561 62.8166 34.522C67.2819 31.8441 70.9948 28.284 73.8514 23.9408C77.2833 18.7224 79.459 12.3839 80.3178 5.10204C80.4773 3.75275 80.0327 2.41312 79.0983 1.42664C78.1654 0.441562 76.8474 -0.0748827 75.4941 0.00914061C75.1504 0.0311132 66.9835 0.595721 58.6787 5.07093C52.9101 8.17926 48.0603 13.3101 44.6169 19.843C43.9236 18.4229 43.1543 17.0641 42.314 15.7867C39.4571 11.4432 35.7442 7.88325 31.279 5.20558C22.6969 0.0592381 14.3116 0 13.959 0C13.3664 0 11.7927 0 10.4381 1.35527C9.54899 2.24472 9.0626 3.47589 9.10408 4.73255C9.30096 10.7713 10.6715 16.2207 13.178 20.9292C13.5248 21.581 14.3344 21.8286 14.9873 21.4813C15.6393 21.1343 15.8866 20.3241 15.5394 19.672C13.2267 15.3276 11.9611 10.2719 11.7777 4.64501C11.7607 4.12452 11.9619 3.61476 12.3302 3.24632C12.901 2.67521 13.5633 2.67521 13.9592 2.67521C14.2817 2.67521 21.9489 2.73023 29.9034 7.50004C34.0214 9.96924 37.4447 13.2519 40.079 17.2566C41.2391 19.0205 42.2585 20.9527 43.1101 22.9999C42.6561 24.0556 42.2346 25.1402 41.8507 26.2539C41.5868 27.0307 41.2892 27.9718 40.977 29.0703L36.8634 25.0588L35.0288 15.9171C34.8836 15.1927 34.1787 14.7238 33.4541 14.8688C32.7297 15.0141 32.2606 15.7194 32.4058 16.4434L33.4708 21.7504L29.6341 18.0091L27.7743 8.74211C27.6291 8.01772 26.9239 7.54909 26.1997 7.69375C25.4753 7.8393 25.0061 8.54418 25.1513 9.2684L26.2415 14.7011L17.289 5.97093C16.7597 5.45518 15.9133 5.46608 15.3974 5.99483C14.8817 6.52376 14.8924 7.37067 15.4213 7.88623L25.2656 17.4858L18.3983 17.3684C17.6602 17.3482 17.0506 17.9442 17.038 18.6831C17.0255 19.4219 17.6138 20.0308 18.3526 20.0434L28.0584 20.2094L32.625 24.6626L25.6526 24.5436C24.9207 24.5272 24.3049 25.1194 24.2923 25.8582C24.2798 26.5971 24.8681 27.206 25.6069 27.2186L35.4178 27.3861L40.2004 32.0498C39.8958 33.3261 39.5922 34.7389 39.3054 36.2914C36.406 35.6517 32.4293 34.4671 28.4103 32.3017C26.3828 31.2092 24.4958 29.9423 22.8018 28.5363C22.2333 28.0643 21.3899 28.1425 20.9181 28.711C20.4462 29.2795 20.5246 30.1227 21.0929 30.5945C22.9229 32.1138 24.9579 33.4805 27.141 34.6566C31.4833 36.9966 35.7678 38.2587 38.8568 38.9316C38.2533 42.8178 37.7843 47.4143 37.6388 52.688C32.5918 53.9445 28.263 57.3438 25.8722 62.0879C25.5192 62.0612 16.1381 61.0515 11.9867 70.4799C11.0526 70.1303 10.0584 69.9489 9.04924 69.9489C4.43007 69.9489 0.671875 73.7069 0.671875 78.3262C0.671875 82.9456 4.4299 86.7036 9.04924 86.7036C10.8863 86.7036 12.6621 86.0964 14.107 85.0025C16.7497 88.1566 20.6508 89.9996 24.8163 89.9996C28.2867 89.9996 31.5515 88.7481 34.1138 86.4557C36.5605 87.6437 39.2665 88.268 41.999 88.268C44.7315 88.268 47.4375 87.6438 49.8842 86.4557C52.4466 88.7483 55.7115 89.9996 59.182 89.9996C63.3474 89.9996 67.2487 88.1566 69.8912 85.0025C71.3363 86.0964 73.1121 86.7036 74.949 86.7036C79.5681 86.7036 83.3263 82.9456 83.3263 78.3262C83.3263 73.7069 79.5687 69.9492 74.9495 69.9492ZM44.3817 27.12C47.469 18.1654 52.9971 11.1712 59.9478 7.42586C67.7432 3.22505 75.3443 2.69912 75.6618 2.67908C76.226 2.6448 76.7697 2.85837 77.1561 3.26619C77.5432 3.67488 77.7272 4.22946 77.6611 4.78862C76.8515 11.6539 74.8177 17.6032 71.616 22.471C68.9819 26.4756 65.5584 29.7583 61.4404 32.2277C54.7243 36.2548 48.0802 36.9193 46.2035 37.0268C45.5839 37.0623 45.0703 37.5194 44.9627 38.1306C44.1768 42.6 43.6985 47.3362 43.5308 52.2219C43.0242 52.1788 42.5139 52.1542 41.999 52.1542C41.437 52.1542 40.8797 52.1828 40.3273 52.2342C40.7522 39.1209 43.2868 30.3442 44.3817 27.12ZM74.9495 84.0285C73.3316 84.0285 71.7835 83.3363 70.7023 82.1296C70.4258 81.8213 70.0215 81.6588 69.6105 81.688C69.198 81.7174 68.8221 81.9362 68.5929 82.2804C66.4881 85.439 62.9704 87.3246 59.1825 87.3246C56.1046 87.3246 53.2263 86.1066 51.0778 83.8951C50.8192 83.6288 50.4706 83.4896 50.1176 83.4896C49.8956 83.4896 49.6717 83.545 49.4674 83.6585C47.194 84.9243 44.6117 85.5934 41.9997 85.5934C39.3878 85.5934 36.8054 84.9243 34.532 83.6585C34.0031 83.3641 33.3432 83.4615 32.9219 83.8951C30.7735 86.1066 27.8951 87.3246 24.8171 87.3246C21.0294 87.3246 17.5115 85.439 15.4067 82.2804C15.1773 81.9362 14.8015 81.7176 14.3891 81.688C13.979 81.6592 13.5737 81.8214 13.2973 82.1296C12.2159 83.3365 10.6678 84.0285 9.05012 84.0285C5.90593 84.0285 3.34796 81.4706 3.34796 78.3264C3.34796 75.1822 5.90593 72.6242 9.05012 72.6242C10.1052 72.6242 11.1354 72.9148 12.0298 73.4645C12.3828 73.6816 12.8157 73.7222 13.2033 73.5761C13.5905 73.4297 13.8883 73.1118 14.0094 72.7158C15.4707 67.9349 19.8141 64.7229 24.8171 64.7229C25.3682 64.7229 25.9281 64.764 26.4807 64.8457C27.0773 64.9329 27.66 64.6114 27.9017 64.0581C30.3523 58.4515 35.8864 54.8291 41.9999 54.8291C48.1134 54.8291 53.6475 58.4517 56.0981 64.0581C56.3396 64.6111 56.9216 64.9333 57.5191 64.8457C58.0719 64.764 58.6316 64.7229 59.1827 64.7229C64.1857 64.7229 68.5291 67.9349 69.9904 72.7158C70.1115 73.1118 70.4093 73.4297 70.7965 73.5761C71.1843 73.7223 71.6172 73.6816 71.97 73.4645C72.8644 72.9148 73.8948 72.6242 74.9497 72.6242C78.0939 72.6242 80.6518 75.1822 80.6518 78.3264C80.6518 81.4706 78.0937 84.0285 74.9495 84.0285Z" fill="#F47B20"/>
<path d="M58.6487 71.0768C59.2929 71.0768 59.815 70.5546 59.815 69.9105C59.815 69.2663 59.2929 68.7441 58.6487 68.7441C58.0046 68.7441 57.4824 69.2663 57.4824 69.9105C57.4824 70.5546 58.0046 71.0768 58.6487 71.0768Z" fill="#F47B20"/>
<path d="M70.3558 63.3844C70.9999 63.3844 71.5221 62.8622 71.5221 62.2181C71.5221 61.5739 70.9999 61.0518 70.3558 61.0518C69.7116 61.0518 69.1895 61.5739 69.1895 62.2181C69.1895 62.8622 69.7116 63.3844 70.3558 63.3844Z" fill="#F47B20"/>
<path d="M12.1409 62.2181C12.7851 62.2181 13.3072 61.6959 13.3072 61.0518C13.3072 60.4077 12.7851 59.8855 12.1409 59.8855C11.4968 59.8855 10.9746 60.4077 10.9746 61.0518C10.9746 61.6959 11.4968 62.2181 12.1409 62.2181Z" fill="#F47B20"/>
</svg>
