<svg width="41" height="60" viewBox="0 0 41 60" fill="none" xmlns="http://www.w3.org/2000/svg">
<path d="M11.9043 19.2143C11.8489 18.8543 12.3381 15.7161 12.3381 15.7161C12.3381 15.7161 12.8919 19.4819 13.2888 19.8788C14.1195 20.7003 16.2609 24.5124 16.8239 25.1031C17.4238 25.7492 17.3408 26.8014 16.7224 26.4691C15.864 25.9984 13.5934 23.3771 12.5596 22.1495C12.3842 21.9372 12.2458 21.7618 12.1535 21.651C12.1165 21.608 12.0888 21.5741 12.0704 21.5495C11.7196 21.1157 11.9596 19.5835 11.9043 19.2143Z" fill="#ABABAB"/>
<path d="M16.8182 25.1033C16.8182 25.1033 17.1689 25.5648 17.3535 25.6294C17.5382 25.6848 17.7504 26.0078 17.9074 26.0909C18.0643 26.174 18.5719 26.257 18.6919 26.3955C18.7381 26.4509 18.9042 26.9308 19.015 27.0324C19.135 27.1431 19.3934 27.3277 19.2919 27.4293C19.1996 27.5216 18.9135 27.42 18.9135 27.42C18.9135 27.42 19.015 27.5215 18.9596 27.6323C18.8396 27.8446 18.6827 27.8446 18.6827 27.8446C18.6827 27.8446 18.7196 28.0107 18.6458 28.0938C18.4889 28.26 18.3412 28.2507 18.3412 28.2507C18.3412 28.2507 18.3135 28.38 18.1843 28.4723C18.0181 28.5923 17.8335 28.4999 17.8335 28.4999C17.8335 28.4999 17.6582 28.6938 17.5289 28.6384C17.3905 28.5922 17.3259 28.4815 17.2243 28.4169C17.132 28.343 16.5228 27.5031 16.3475 26.7462C16.1721 25.9986 15.7383 25.4817 15.7383 25.4817L16.8182 25.1033Z" fill="#ABABAB"/>
<path fill-rule="evenodd" clip-rule="evenodd" d="M23.6751 34.0287L13.3928 34.0471L13.3835 33.8164C13.3743 33.6779 13.2543 30.3643 15.1188 28.4168C15.9772 27.5122 17.1217 27.06 18.5247 27.06C19.9185 27.0507 21.063 27.503 21.9306 28.4075C23.8043 30.3459 23.6936 33.6595 23.6843 33.8072L23.6751 34.0287ZM13.8635 33.5579L23.2044 33.5487C23.1951 32.7734 23.0475 30.2443 21.5891 28.7306C20.8138 27.9276 19.78 27.5215 18.5247 27.5307C17.2602 27.5307 16.2264 27.9368 15.4603 28.7398C14.0112 30.2628 13.8635 32.7919 13.8635 33.5579Z" fill="#A2A2A2"/>
<path d="M15.0117 28.5551C16.6547 26.7552 18.8976 27.0691 18.8976 27.0691L18.9068 27.549C16.5808 27.2998 15.2148 29.0628 15.2148 29.0628L15.0117 28.5551Z" fill="#A2A2A2"/>
<path d="M17.2678 33.9546L13.4004 33.9638C13.4004 33.9638 13.465 32.044 15.4956 32.044C17.5262 32.0347 17.2678 33.9546 17.2678 33.9546Z" fill="#A2A2A2"/>
<path d="M18.6308 33.9546H16.6094C16.6094 33.9546 16.7109 32.9116 17.6524 32.9947C18.5938 33.087 18.6308 33.9546 18.6308 33.9546Z" fill="#A2A2A2"/>
<path d="M19.6444 33.9547H17.623C17.623 33.9547 17.7246 32.9024 18.666 32.9947C19.6075 33.0871 19.6444 33.9547 19.6444 33.9547Z" fill="#A2A2A2"/>
<path d="M22.5451 34.6009L19.25 33.9547C19.25 33.9547 21.1329 32.5056 21.3083 31.3796C21.4837 30.2627 24.2435 30.5396 23.5512 32.2472C22.8682 33.9455 22.5451 34.6009 22.5451 34.6009Z" fill="#A2A2A2"/>
<path d="M22.9931 30.7795C22.9931 30.7795 23.9253 31.1487 23.8791 32.0994C23.8791 32.0994 23.0669 31.6841 22.9931 31.4441C22.9192 31.1949 22.6423 32.7732 22.6423 32.7732C22.6423 32.7732 22.4116 31.7487 22.3008 31.3979C22.19 31.0472 20.584 31.7764 20.584 31.7764C20.584 31.7764 21.147 30.6134 22.2269 30.6595C23.3161 30.7057 22.9931 30.7795 22.9931 30.7795Z" fill="#ABABAB"/>
<path d="M20.3098 39.5481L16.6732 39.5573C12.2335 39.5666 12.935 33.2255 12.935 33.2255L24.0296 33.207C24.0296 33.207 24.7495 39.5389 20.3098 39.5481Z" fill="#A2A2A2"/>
<path d="M20.3098 39.5479L16.6732 39.5572C12.2335 39.5664 12.935 33.2253 12.935 33.2253L16.9501 33.2161C16.9501 33.2161 16.6178 39.5572 20.3098 39.5479Z" fill="#A2A2A2"/>
<path d="M5.90052 4.85214C5.94667 6.03359 6.3251 7.45502 5.45747 8.75647C3.99912 10.9348 2.30078 9.09799 2.30078 9.09799C2.30078 9.09799 3.11304 9.71641 3.99913 8.4888C5.00522 7.09506 2.60538 3.69837 3.20534 2.60922C3.80529 1.52007 5.04212 1.84313 5.04212 1.84313C5.04212 1.84313 5.85437 3.67992 5.90052 4.85214Z" fill="#ABABAB"/>
<path d="M14.7065 56.1716C14.7065 56.1716 15.0387 57.0577 15.5003 57.2607C15.9618 57.473 17.0048 58.4422 17.4201 58.5068C17.8447 58.5806 18.8508 58.6545 18.9062 59.1806C18.9616 59.7159 18.8508 60.1959 16.8294 59.919C14.808 59.6421 12.8974 58.7099 12.8974 58.7099C12.8974 58.7099 12.482 56.6608 13.1374 55.6547C13.7927 54.6394 14.7065 56.1716 14.7065 56.1716Z" fill="#ABABAB"/>
<path d="M12.8789 56.2639V54.9163H14.328L14.7065 56.1716C15.0664 57.0761 12.8789 56.2639 12.8789 56.2639Z" fill="#ABABAB"/>
<path d="M2.0529 53.8176C2.0529 53.8176 2.19135 54.7314 2.4221 55.0083C2.64362 55.2852 2.96669 56.5959 3.42819 57.0113C3.8897 57.4358 5.01576 58.3773 4.66502 58.8481C4.3235 59.328 1.92368 58.7188 1.06528 57.2605C0.206879 55.8021 -0.0884887 55.636 0.0222726 55.2391C0.123804 54.8422 0.936048 53.31 0.917588 53.1254C0.899128 52.9408 2.0529 53.8176 2.0529 53.8176Z" fill="#ABABAB"/>
<path d="M2.38228 53.1624C2.36382 53.1624 2.08691 53.5778 2.03153 53.8177C1.96692 54.0577 1.44081 54.1592 1.01622 53.6331C1.01622 53.6331 0.877766 53.4393 0.896226 53.1255C0.914686 52.8117 1.27467 52.0732 1.27467 52.0732L2.38228 53.1624Z" fill="#ABABAB"/>
<path d="M18.7487 27.8537C18.8502 28.2136 18.3887 28.2783 18.3887 28.2783C18.2318 28.6936 17.8718 28.5275 17.8718 28.5275C17.7057 28.7305 17.5488 28.6382 17.5488 28.6382C17.5488 28.6382 16.9673 28.3429 16.8842 27.7891C16.8288 27.4568 17.2257 27.5491 17.2257 27.5491C17.2257 27.5491 16.9857 27.346 17.1611 27.1522C17.3457 26.9491 17.5303 27.1245 17.5303 27.1245C17.5303 27.1245 17.3088 26.8199 17.5396 26.6999C17.7703 26.5891 17.9457 26.8568 17.9457 26.8568C17.9457 26.8568 17.7611 26.5891 18.0657 26.5984C18.3703 26.6168 18.9056 27.3276 18.9056 27.3276C19.2287 27.7337 18.7487 27.8537 18.7487 27.8537Z" fill="#ABABAB"/>
<path d="M7.96726 27.2907C8.24417 26.5153 8.79797 25.9061 9.81328 25.6939C10.5702 25.5369 11.6039 25.6108 12.9608 26.0169C12.9608 26.0169 13.6345 28.0291 13.8468 28.7398C13.8653 28.8136 13.8807 28.8721 13.893 28.9152C14.0037 29.3674 14.8068 34.4255 14.6683 36.4654C14.5576 38.0899 14.3822 39.5667 14.3914 40.4528C14.4007 40.6835 14.4191 40.8774 14.456 41.0251C14.6222 41.7358 14.5114 43.5449 14.3453 44.191C14.1791 44.8463 14.6129 55.0733 14.9268 55.664C14.9268 55.664 13.0438 56.1901 12.6192 55.9963C12.6192 55.9963 10.8009 47.7815 10.9117 46.1109C11.0224 44.4402 11.3732 42.4465 11.0593 41.1727C11.0132 40.9789 10.9209 40.6651 10.7917 40.259C10.4686 39.1883 9.92405 37.4992 9.42562 35.9577C8.89028 34.2594 8.40107 32.7364 8.32723 32.3765C8.2257 31.9057 7.3027 29.1275 7.96726 27.2907Z" fill="#ABABAB"/>
<path d="M2.6235 47.8642C3.93417 43.8675 4.57106 42.9076 5.21716 41.7723C5.44792 41.3754 5.4756 40.5447 5.39253 39.5294C5.25407 37.6649 4.40491 35.3851 4.14646 33.6129C3.84187 31.5454 3.83265 29.0532 4.20185 27.0411C4.32184 26.3765 4.51567 25.7489 4.82026 25.1581C5.97403 22.9337 9.28763 25.3058 9.80452 25.6935C9.84759 25.7304 9.86913 25.7489 9.86913 25.7489C9.86913 25.7489 9.87837 26.4873 9.87837 27.5487C9.87837 29.9578 9.84143 34.0375 9.56453 35.2282C9.51838 35.4497 9.46301 35.6989 9.41686 35.9573C9.17688 37.3419 9.0015 39.1233 8.94612 40.0647C8.92766 40.314 8.92766 40.4986 8.92766 40.6093C8.92766 41.2277 8.56768 42.9261 8.22616 43.8029C7.88465 44.689 2.70658 52.5531 2.47583 53.6884L0.611328 52.9038C0.611328 52.9038 2.19891 49.1656 2.6235 47.8642Z" fill="#ABABAB"/>
<path d="M8.00499 1.34459C8.00499 1.34459 10.5617 1.43688 10.6725 5.14738C10.7833 8.85789 9.98024 9.65168 7.69118 8.87635C5.40211 8.11025 4.67294 4.22437 4.62679 3.62442C4.57141 3.02446 4.47909 0.910771 8.00499 1.34459Z" fill="#ABABAB"/>
<path d="M4.98801 10.741C5.79103 10.5564 7.19402 10.0396 7.19402 10.0396L9.43694 10.3995C9.43694 10.3995 9.64921 10.4641 9.97226 10.6764C10.1292 10.7872 10.3046 10.9164 10.4984 11.0918C10.7476 11.3318 11.2645 12.024 11.7906 12.7809C11.9475 13.0209 12.1044 13.2609 12.2613 13.4916C12.7505 14.2485 13.1013 14.8669 13.129 15.5776C13.1567 16.2791 12.4459 17.7836 12.3906 18.4851C12.3352 19.1774 12.0952 21.6603 12.206 22.3156C12.3167 22.9802 13.8766 28.7397 13.8766 28.7397C12.6121 28.989 4.23115 27.6783 4.19423 27.3183C4.14808 26.9676 5.08031 22.8786 5.38491 21.6695C5.68027 20.4603 5.3203 20.1557 5.08955 19.2143C4.86802 18.2728 3.3912 15.2176 3.40043 13.9439C3.41889 10.9718 4.98801 10.741 4.98801 10.741Z" fill="#ABABAB"/>
<path d="M9.96484 10.676C10.0202 10.7129 11.617 11.599 12.1339 12.7805C12.1462 12.842 12.1585 12.9005 12.1709 12.9559C12.2016 13.1589 12.2293 13.3374 12.2539 13.4912C12.3924 14.3219 12.4754 14.608 12.4754 14.6173L11.2663 12.7251L9.96484 10.676Z" fill="#ABABAB"/>
<path d="M9.39479 8.99608C9.39479 8.99608 9.39481 9.033 9.38558 9.10684C9.36712 9.23606 9.34864 9.47604 9.34864 9.75295C9.34864 10.0945 9.3948 10.5006 9.54248 10.8052C9.87477 11.4882 6.68115 10.2883 6.68115 10.2883C6.68115 10.2883 6.43193 7.63925 6.21041 7.20544C5.97965 6.78086 9.39479 8.99608 9.39479 8.99608Z" fill="#ABABAB"/>
<path d="M9.36077 9.10703C9.34231 9.23625 9.32383 9.47623 9.32383 9.75314C9.32383 9.75314 8.03163 9.5593 7.5332 8.83936C7.5332 8.83936 8.53006 9.26394 9.36077 9.10703Z" fill="#ABABAB"/>
<path d="M12.1286 12.7715C12.1286 12.7715 12.2024 12.91 12.2578 13.4915L11.7871 12.7807C11.7871 12.7807 10.9472 11.5808 10.6518 11.267C10.3657 10.9532 9.96875 10.6763 9.96875 10.6763C9.96875 10.6763 11.621 11.4701 12.1286 12.7715Z" fill="#ABABAB"/>
<path d="M9.42135 10.3995C9.42135 10.3995 10.9258 12.707 10.4182 12.91C9.91053 13.1131 7.15074 12.6516 5.97852 10.4548C5.97852 10.4548 7.73224 9.55029 9.42135 10.3995Z" fill="#ABABAB"/>
<path d="M17.1698 25.4905C17.1698 25.4905 16.4037 25.749 16.1729 26.192C16.1729 26.192 15.6837 25.5459 15.5176 25.4351L16.6806 24.9275L17.1698 25.4905Z" fill="#ABABAB"/>
<path d="M12.3633 18.485C12.3694 18.4727 12.3725 18.4666 12.3725 18.4666C12.3725 18.4727 12.3694 18.4912 12.3633 18.5219C12.3633 18.5035 12.3633 18.4912 12.3633 18.485Z" fill="#ABABAB"/>
<path d="M12.3561 18.522C12.3376 18.965 12.753 22.3894 12.753 22.3894C12.5776 22.1771 12.2361 21.7617 12.1438 21.651C12.0792 20.8941 12.3192 18.8727 12.3561 18.522Z" fill="#ABABAB"/>
<path d="M5.16399 20.2571C5.16399 20.2571 6.07775 20.5709 6.94538 20.7555C7.80378 20.9401 6.91771 21.9739 6.91771 21.9739C6.91771 21.9739 5.42243 21.8354 4.70248 21.7708C4.44404 21.7431 5.16399 20.2571 5.16399 20.2571Z" fill="#ABABAB"/>
<path d="M5.85967 14.4515C5.85967 14.4515 3.9398 13.7684 3.33984 13.7223C3.33984 13.7223 3.64444 10.381 5.62891 10.7225C7.60416 11.064 5.85967 14.4515 5.85967 14.4515Z" fill="#ABABAB"/>
<path d="M8.67792 3.6893C8.67792 3.6893 8.18874 5.51685 5.25357 6.06143C5.25357 6.06143 2.93681 2.12018 6.17658 1.2987C9.41635 0.467989 10.4686 2.96011 10.5609 4.18771C10.5609 4.18771 9.69324 3.63392 8.67792 3.6893Z" fill="#ABABAB"/>
<path d="M5.34391 6.2457C3.16561 2.97824 5.16855 1.6491 5.16855 1.6491C9.15596 -0.963018 10.4666 3.70742 10.4666 3.70742C8.36216 5.45191 5.34391 6.2457 5.34391 6.2457Z" fill="#ABABAB"/>
<path d="M7.7259 20.8755C7.47668 21.1801 7.48593 22.02 7.48593 22.02C7.22748 22.0846 7.15363 21.9923 7.15363 21.9923C7.01518 21.2078 7.33824 20.8201 7.33824 20.8201C7.60591 20.7924 7.7259 20.8755 7.7259 20.8755Z" fill="#ABABAB"/>
<path d="M6.71899 6.56892C6.17441 6.42124 5.89751 5.49823 6.32209 5.23979C6.73745 4.98134 7.02358 5.31363 7.19895 5.69206C7.35586 6.03358 7.25434 6.70738 6.71899 6.56892Z" fill="#ABABAB"/>
<path d="M6.17316 5.97821C6.17316 5.97821 5.71166 6.60586 5.83165 7.22428C5.83165 7.22428 5.16708 6.54125 5.21323 6.06128C5.25939 5.59055 6.17316 5.97821 6.17316 5.97821Z" fill="#ABABAB"/>
<path d="M13.1303 18.8449C13.1303 19.0049 13.1211 19.1587 13.1026 19.3064C13.0472 19.6571 12.9365 19.9987 12.7796 20.3125C12.6811 20.4971 12.5703 20.6755 12.4473 20.8478C11.6258 21.9277 10.1674 22.6477 8.50603 22.6477C6.81692 22.6569 5.33088 21.9185 4.51863 20.8109C4.33403 20.5525 4.17712 20.2756 4.06636 19.9802C3.9556 19.6941 3.89098 19.4079 3.87252 19.1033C3.86637 19.0233 3.86328 18.9433 3.86328 18.8633C3.86328 18.7341 3.86945 18.608 3.88176 18.4849C3.90637 18.3003 3.94329 18.1219 3.99252 17.9496C4.06636 17.6973 4.17096 17.4573 4.30633 17.2296C5.05397 15.9466 6.64155 15.0698 8.48757 15.0605C10.2967 15.0605 11.8566 15.9005 12.6227 17.1281C12.7273 17.2942 12.8165 17.4635 12.8903 17.6357C13.0103 17.9219 13.0842 18.2265 13.1119 18.5403C13.1242 18.6387 13.1303 18.7403 13.1303 18.8449Z" fill="#ABABAB"/>
<path d="M12.89 17.6357C12.6223 17.6634 12.3177 17.645 12.0408 17.5896C11.3486 17.4327 11.127 17.3957 10.2779 17.3957C9.42871 17.3865 8.98568 17.2665 8.49648 17.3957C8.00729 17.525 7.7396 17.608 7.04734 17.6542C6.35508 17.7096 5.90282 17.4603 5.17365 17.6634C4.64753 17.8111 4.20448 17.9034 3.99219 17.9495C4.06603 17.6973 4.17063 17.4573 4.306 17.2296C4.75828 17.0265 5.4967 16.7312 5.8659 16.8419C6.40125 16.9896 6.81659 16.7404 7.53654 16.6666C8.24726 16.5927 9.16105 16.5189 9.55795 16.6666C9.96407 16.805 11.0347 16.6296 11.6162 16.8696C11.8839 16.9896 12.2716 17.0635 12.6223 17.1281C12.7269 17.2942 12.8162 17.4634 12.89 17.6357Z" fill="#ABABAB"/>
<path d="M13.1303 18.845C13.1303 19.005 13.1211 19.1588 13.1026 19.3065C12.7796 19.2973 12.4473 19.2973 12.1981 19.3065C11.5058 19.325 11.0166 19.4634 10.6843 19.4634C10.3428 19.4634 9.45674 19.288 9.09677 19.2604C8.74602 19.2419 7.73993 19.2881 7.33381 19.2881H5.86623C5.28474 19.2881 4.59247 19.3342 4.59247 19.3342C4.59247 19.3342 4.2048 19.2142 3.87252 19.1035C3.86637 19.0235 3.86328 18.9435 3.86328 18.8635C3.86328 18.7342 3.86945 18.6081 3.88176 18.485C4.24173 18.485 4.86014 18.5035 5.44164 18.485C6.19851 18.4666 6.62309 18.5127 7.37996 18.485C8.13683 18.4573 8.95832 18.2635 9.65057 18.485C10.3428 18.7066 10.749 18.8727 11.1458 18.8542C11.4412 18.8358 12.4196 18.5773 13.1119 18.5404C13.1242 18.6389 13.1303 18.7404 13.1303 18.845Z" fill="#ABABAB"/>
<path d="M12.7816 20.3125C12.6831 20.4971 12.5723 20.6756 12.4493 20.8478C11.4893 21.0232 11.0186 21.1524 10.511 21.3555C9.99407 21.5586 9.02491 21.6509 8.87723 21.6509C8.72955 21.6509 6.9666 21.5863 6.9666 21.5863C6.9666 21.5863 6.47741 21.3647 5.97899 21.254C5.63747 21.1709 4.98213 21.014 4.52063 20.8109C4.33602 20.5525 4.17912 20.2756 4.06836 19.9802C4.86215 20.2664 6.61586 20.7371 6.92045 20.7186C7.29889 20.6909 8.25881 20.8017 9.08029 20.8017C9.90177 20.8017 10.4371 20.7094 10.8617 20.5986C11.2863 20.4879 11.1109 20.211 11.9324 20.2848C12.2278 20.3125 12.5231 20.3125 12.7816 20.3125Z" fill="#ABABAB"/>
<path d="M3.60514 12.7627C3.60514 12.7627 3.95588 10.3721 5.7096 10.7598C7.39871 11.1382 5.82036 14.2765 5.70036 14.6457C5.58037 15.0241 4.33431 18.0608 4.22355 18.4577C3.89126 19.713 4.2051 19.7407 4.72199 20.0361C6.24495 20.9129 9.30012 21.0606 9.66009 21.3006C10.0201 21.5406 10.0662 22.0759 9.46625 22.1036C8.67246 22.1405 4.17739 21.7159 3.54975 21.6606C2.94056 21.6052 1.73143 21.5498 2.04526 19.39C2.25755 17.9316 3.60514 12.7627 3.60514 12.7627Z" fill="#ABABAB"/>
<path d="M6.96127 20.7555C6.96127 20.7555 7.89352 20.9124 7.98582 20.8939C8.06889 20.8847 8.4381 20.2755 8.87192 20.1648C9.30573 20.054 9.84107 19.9709 9.97029 19.8879C10.0995 19.8048 10.1364 20.2294 9.7303 20.3955C9.31494 20.5709 9.21342 20.8016 9.98874 20.9585C10.4133 21.0416 12.0101 20.857 11.8809 21.1339C11.7978 21.2908 10.2564 21.4016 10.2564 21.4016C10.2564 21.4016 11.9178 21.3924 11.9825 21.4939C12.0932 21.6877 10.4226 21.7616 10.3579 21.7616C10.3579 21.7616 11.7794 21.8354 11.7979 21.9646C11.8071 22.1215 10.3672 22.0569 10.3764 22.0846C10.3764 22.0846 11.5117 22.1585 11.5025 22.26C11.484 22.3892 10.4872 22.4077 10.2933 22.38C10.0995 22.3615 8.14272 22.14 7.81967 22.0754C7.48739 22.0108 6.93359 21.9739 6.93359 21.9739L6.96127 20.7555Z" fill="#ABABAB"/>
<path d="M36.3676 19.3432C36.3122 19.934 36.2384 21.7338 36.303 22.2138C36.386 22.8599 36.5153 24.5398 36.7275 26.5335C36.7275 26.5335 35.0754 27.318 31.8079 27.5303C28.5128 27.4565 26.9713 26.5427 26.9713 26.5427C27.1098 24.8721 27.2021 22.9245 27.2205 22.2415C27.2298 21.7615 27.359 19.9432 27.2205 19.3617C26.9621 18.2264 26.5191 15.2266 26.5191 15.2266C27.0544 13.3806 25.5684 10.8792 25.5684 10.8792C26.4452 10.0854 27.7282 9.60547 28.3005 9.50394C28.8451 9.40241 30.4972 9.08858 30.4972 9.08858L31.7802 9.07935H33.0632C33.0632 9.07935 34.66 9.42087 35.2231 9.51317C35.7953 9.6147 37.1245 9.97467 38.149 10.9346C38.149 10.9346 36.4784 13.0575 37.0229 14.9036C37.0229 14.9036 36.4414 18.5217 36.3676 19.3432Z" fill="#ABABAB"/>
<path d="M32.0441 11.101C30.1612 11.2303 30.0781 9.16271 30.0781 9.16271C30.0781 9.16271 30.2074 9.08887 30.272 8.74736C30.2997 8.59045 30.3181 8.37816 30.2904 8.0828C30.272 7.86127 30.235 7.60283 30.1704 7.28901C29.8381 5.64605 33.0687 6.38446 33.0687 6.38446C33.0687 6.38446 33.1241 8.3597 33.5117 9.14426C33.5117 9.14426 33.9179 10.9718 32.0441 11.101Z" fill="#ABABAB"/>
<path d="M31.9185 31.7488L31.8632 31.7395L31.7986 31.7488V31.7211L26.3066 30.6319C26.3066 30.6319 26.8974 27.0968 26.9435 26.5707C26.9804 26.1184 27.2573 21.8541 27.2204 19.362C27.2204 19.362 28.4665 17.9959 28.6049 16.5099L31.817 16.436H31.8447L35.0568 16.4637C35.2045 17.9498 36.3582 19.3435 36.3582 19.3435C36.2659 21.7064 36.7182 26.1 36.7551 26.5522C36.8013 27.0783 37.1428 30.7427 37.1428 30.7427L31.9185 31.7211V31.7488Z" fill="#ABABAB"/>
<path d="M27.5586 56.2824C27.5586 56.2824 27.8447 57.3346 27.7894 57.7961C27.734 58.2668 27.4386 58.1653 27.134 58.7468C26.8387 59.3283 26.7833 59.8729 26.0726 59.9098C25.3618 59.956 23.5527 60.2421 23.5527 59.2175C23.562 58.2761 24.6327 57.7038 24.9096 57.3808C25.1865 57.0669 25.5188 56.2639 25.5188 56.2639L27.5586 56.2824Z" fill="#ABABAB"/>
<path d="M27.5407 55.8303L27.55 56.4949C26.4977 56.8549 25.5378 56.4949 25.5378 56.4949L25.4824 55.9688L27.5407 55.8303Z" fill="#ABABAB"/>
<path d="M36.2348 56.2454C36.2348 56.2454 36.567 57.0484 36.8439 57.3622C37.1301 57.676 38.2008 58.2483 38.21 59.1898C38.2192 60.2143 36.4009 59.9282 35.6902 59.9005C34.9795 59.8636 34.9241 59.3098 34.6287 58.7375C34.3241 58.156 34.0288 58.2575 33.9641 57.7868C33.9088 57.3161 34.1949 56.2731 34.1949 56.2731L36.2348 56.2454Z" fill="#ABABAB"/>
<path d="M36.2687 55.95L36.2133 56.4761C36.2133 56.4761 35.2534 56.8361 34.2012 56.4761L34.2104 55.8208L36.2687 55.95Z" fill="#ABABAB"/>
<path d="M37.7582 42.825C37.7582 44.0895 36.6229 56.0978 36.6229 56.0978C36.4936 56.5224 34.3154 56.4947 33.8908 56.2917C33.4754 56.0794 34.223 43.5449 34.1492 42.2804C34.0661 41.0066 31.8048 32.118 31.4448 32.1549C31.0756 32.2011 29.1834 43.1757 28.888 44.1449C28.5927 45.114 27.8081 56.2363 27.8081 56.2363C26.8851 56.7901 25.1406 56.264 25.1406 56.264C25.1406 56.264 25.2606 43.8126 25.3806 43.4803C25.5098 43.1388 25.4729 42.1788 25.5098 39.0221C25.5375 36.6685 26.4052 29.8013 26.8297 26.4784C26.8482 26.3615 26.8636 26.2477 26.8759 26.1369C26.959 25.4908 27.0236 25.0201 27.0605 24.7893C27.0697 24.697 27.0789 24.6417 27.0789 24.6417C27.1959 24.5863 27.3189 24.537 27.4482 24.494C30.5218 23.3771 36.466 24.5401 36.466 24.5401C36.466 24.5401 36.469 24.5678 36.4752 24.6232C36.4844 24.6878 36.4936 24.7986 36.5121 24.9278C36.549 25.2231 36.6044 25.657 36.6598 26.1646C36.6598 26.1646 36.6598 26.1677 36.6598 26.1738C36.6598 26.1923 36.6629 26.2077 36.669 26.22C36.8813 28.0199 37.1767 30.6504 37.149 30.9274C37.1028 31.3519 37.7582 41.5697 37.7582 42.825Z" fill="#ABABAB"/>
<path d="M34.7432 21.0788L34.7525 25.3431H31.845L28.9467 25.3523L28.9375 21.088L30.3405 19.6943L31.8357 19.6851H33.3403L34.7432 21.0788Z" fill="#ABABAB"/>
<path d="M35.459 9.56885C35.459 9.56885 36.982 9.80883 37.8588 10.6395C38.7357 11.4702 39.2341 12.624 39.6402 14.3131C40.0464 16.0022 40.3048 19.8604 40.2679 20.9773C40.231 22.1033 38.0711 29.5151 38.0711 29.5151L36.4558 28.7675C36.4558 28.7675 37.8773 21.6049 37.9696 20.9403C38.0711 20.2665 37.4065 16.3345 37.4065 16.3345L35.459 9.56885Z" fill="#ABABAB"/>
<path d="M26.2566 16.353C26.2566 16.353 25.6012 20.2851 25.7028 20.9588C25.8043 21.6326 27.1611 28.2506 27.1611 28.2506L25.6381 29.5428C25.6381 29.5428 23.4506 22.1311 23.4137 21.005C23.3675 19.8882 23.6167 16.03 24.0136 14.3409C24.4198 12.6425 24.909 11.4888 25.7858 10.6581C26.6534 9.82734 28.1764 9.57812 28.1764 9.57812L26.2566 16.353Z" fill="#ABABAB"/>
<path d="M34.3125 16.4639C34.3956 13.178 35.854 9.6521 35.854 9.6521C36.4447 9.67056 36.7216 9.93823 36.7216 9.93823C35.1986 12.578 35.0509 16.4639 35.0509 16.4639C35.0509 16.4639 34.2295 19.7406 34.3125 16.4639Z" fill="#ABABAB"/>
<path d="M28.5982 16.5097C28.5982 16.5097 28.4413 12.2084 26.9922 9.91938C26.9922 9.91938 27.3522 9.55017 27.7398 9.6517C27.7398 9.6517 29.2259 13.2145 29.3274 16.4912C29.4197 19.7771 28.5982 16.5097 28.5982 16.5097Z" fill="#ABABAB"/>
<path d="M37.7356 29.9767C37.7356 29.9767 37.1356 30.7982 35.9911 30.7428C34.6988 30.669 34.3204 30.0967 34.4035 29.8475C34.4866 29.5983 37.551 29.3675 37.7356 29.9767Z" fill="#ABABAB"/>
<path d="M37.4151 29.8936C37.4151 29.8936 37.9689 29.5059 38.135 29.7644C38.3012 30.0136 37.332 30.3366 37.332 30.3366L37.4151 29.8936Z" fill="#ABABAB"/>
<path d="M29.3243 29.8566C29.4073 30.1058 29.0289 30.6781 27.7367 30.7519C26.5922 30.8165 25.9922 30.0043 25.9922 30.0043C26.1676 29.3859 29.232 29.6074 29.3243 29.8566Z" fill="#ABABAB"/>
<path d="M26.3894 30.3549C26.3894 30.3549 25.4387 30.0134 25.5956 29.755C25.7618 29.5058 26.3156 29.9119 26.3156 29.9119L26.3894 30.3549Z" fill="#ABABAB"/>
<path d="M38.7501 23.294C38.7501 24.3093 37.9286 25.14 36.9041 25.14C35.8795 25.1493 35.0488 24.3186 35.0488 23.294C35.0488 22.2787 35.8795 21.448 36.8948 21.448C37.9194 21.448 38.7501 22.2695 38.7501 23.294Z" fill="#A2A2A2"/>
<path d="M36.3341 22.6478C36.3341 23.6723 35.5034 24.4938 34.488 24.503C33.4635 24.503 32.6328 23.6723 32.6328 22.657C32.6328 21.6325 33.4543 20.8018 34.4788 20.8018C35.5034 20.8018 36.3248 21.6232 36.3341 22.6478Z" fill="#A2A2A2"/>
<path d="M35.0841 21.7618C35.0841 22.7771 34.2626 23.6078 33.238 23.617C32.2135 23.617 31.392 22.7863 31.3828 21.7618C31.3828 20.7465 32.2135 19.9158 33.2288 19.9158C34.2534 19.9158 35.0841 20.7373 35.0841 21.7618Z" fill="#ABABAB"/>
<path d="M32.6016 21.4572C32.6016 22.4725 31.7802 23.3032 30.7556 23.3032C29.7311 23.3032 28.9004 22.4817 28.9004 21.4572C28.9004 20.4419 29.7311 19.6112 30.7464 19.6112C31.771 19.6019 32.6016 20.4326 32.6016 21.4572Z" fill="#ABABAB"/>
<path d="M35.0905 23.4879C35.0997 24.5124 34.269 25.3431 33.2445 25.3431C32.2291 25.3431 31.3984 24.5216 31.3984 23.4971C31.3984 22.4818 32.2199 21.6511 33.2445 21.6418C34.2598 21.6418 35.0905 22.4726 35.0905 23.4879Z" fill="#A2A2A2"/>
<path d="M33.0163 22.6571C33.0255 23.6724 32.1948 24.5032 31.1702 24.5032C30.1549 24.5032 29.3242 23.6817 29.3242 22.6571C29.3242 21.6418 30.1457 20.8111 31.1702 20.8111C32.1856 20.8019 33.0163 21.6326 33.0163 22.6571Z" fill="#A2A2A2"/>
<path d="M31.1902 23.774C31.1902 24.7985 30.3687 25.6292 29.3441 25.6292C28.3288 25.6292 27.4981 24.8078 27.4981 23.7832C27.4889 22.7587 28.3196 21.928 29.3441 21.928C30.3595 21.928 31.1902 22.7587 31.1902 23.774Z" fill="#ABABAB"/>
<path d="M30.7892 23.0723C30.7892 24.0969 29.9677 24.9276 28.9432 24.9276C27.9278 24.9276 27.0971 24.1061 27.0879 23.0816C27.0879 22.057 27.9186 21.2263 28.9432 21.2263C29.9585 21.2263 30.7892 22.057 30.7892 23.0723Z" fill="#A2A2A2"/>
<path d="M28.8692 23.1649C28.8692 24.1894 28.0385 25.0201 27.0232 25.0201C25.9987 25.0201 25.168 24.1986 25.168 23.1741C25.168 22.1496 25.9894 21.3281 27.014 21.3188C28.0385 21.3188 28.8692 22.1496 28.8692 23.1649Z" fill="#A2A2A2"/>
<path d="M39.2729 29.8381L24.394 29.8658L24.3848 23.1739L39.2637 23.1462L39.2729 29.8381Z" fill="#A2A2A2"/>
<path d="M33.3801 5.81266C33.1401 6.32955 32.8448 6.82797 32.5217 7.24333C31.3956 8.69245 28.3589 8.67399 28.7189 4.76043C28.7927 4.01279 28.802 3.4036 28.9589 2.90518C29.4942 1.14223 30.7495 0.856088 30.7495 0.856088C31.691 0.800707 33.3247 1.02223 33.8693 2.2406C34.257 3.10823 33.9801 4.53891 33.3801 5.81266Z" fill="#ABABAB"/>
<path d="M33.3782 5.81339C33.3782 5.81339 33.249 5.85031 32.7598 4.87192C32.6583 4.67808 32.5845 4.81654 32.5475 4.73346L31.7722 4.42888C31.7722 4.42888 32.5291 3.14589 31.5322 2.79514C30.5169 2.43517 28.957 2.90591 28.957 2.90591C29.4924 1.14296 30.7477 0.85682 30.7477 0.85682C31.6891 0.80144 33.3229 1.02296 33.8674 2.24134C34.2551 3.10897 33.9782 4.53964 33.3782 5.81339Z" fill="#ABABAB"/>
<path d="M32.4111 4.13226C32.4757 3.87382 32.9926 3.64307 33.2234 4.20611C33.4449 4.77837 32.6972 5.38756 32.5034 5.25834C32.3096 5.13835 32.3188 4.57531 32.4111 4.13226Z" fill="#ABABAB"/>
<path d="M34.0198 4.17835C34.0198 4.17835 31.5369 2.46155 28.6387 3.07997C28.6387 3.07997 28.8048 -0.547463 32.1 0.0709539C35.2013 0.652451 34.1306 3.763 34.0198 4.17835Z" fill="#ABABAB"/>
<path d="M32.4218 3.39379C32.4218 3.39379 28.3236 3.84607 26.7453 3.52302C25.167 3.19073 28.6836 2.70153 28.6836 2.70153C28.6836 2.70153 29.9943 2.28618 32.4218 3.39379Z" fill="#ABABAB"/>
<path d="M32.6456 7.04883C32.6456 7.04883 31.981 8.8487 30.2734 8.74717C30.3011 8.59026 30.3196 8.37797 30.2919 8.08261C30.2919 8.08261 31.7687 8.35027 32.6456 7.04883Z" fill="#ABABAB"/>
</svg>
