<svg width="51" height="60" viewBox="0 0 51 60" fill="none" xmlns="http://www.w3.org/2000/svg">
<path d="M38.1172 19.2143C38.0618 18.8543 38.551 15.7161 38.551 15.7161C38.551 15.7161 39.1048 19.4819 39.5017 19.8788C40.3324 20.7003 42.4737 24.5124 43.0368 25.1031C43.6367 25.7492 43.5537 26.8014 42.9353 26.4691C42.0769 25.9984 39.8062 23.3771 38.7725 22.1495C38.5971 21.9372 38.4587 21.7618 38.3664 21.651C38.3294 21.608 38.3017 21.5741 38.2833 21.5495C37.9325 21.1157 38.1725 19.5835 38.1172 19.2143Z" fill="#ABABAB"/>
<path d="M43.0311 25.1033C43.0311 25.1033 43.3818 25.5648 43.5664 25.6294C43.751 25.6848 43.9633 26.0078 44.1202 26.0909C44.2772 26.174 44.7848 26.257 44.9048 26.3955C44.951 26.4509 45.1171 26.9308 45.2279 27.0324C45.3479 27.1431 45.6063 27.3277 45.5048 27.4293C45.4125 27.5216 45.1263 27.42 45.1263 27.42C45.1263 27.42 45.2279 27.5215 45.1725 27.6323C45.0525 27.8446 44.8956 27.8446 44.8956 27.8446C44.8956 27.8446 44.9325 28.0107 44.8587 28.0938C44.7017 28.26 44.5541 28.2507 44.5541 28.2507C44.5541 28.2507 44.5264 28.38 44.3971 28.4723C44.231 28.5923 44.0464 28.4999 44.0464 28.4999C44.0464 28.4999 43.871 28.6938 43.7418 28.6384C43.6034 28.5922 43.5388 28.4815 43.4372 28.4169C43.3449 28.343 42.7357 27.5031 42.5604 26.7462C42.385 25.9986 41.9512 25.4817 41.9512 25.4817L43.0311 25.1033Z" fill="#ABABAB"/>
<path fill-rule="evenodd" clip-rule="evenodd" d="M49.888 34.0287L39.6057 34.0471L39.5964 33.8164C39.5872 33.6779 39.4672 30.3643 41.3317 28.4168C42.1901 27.5122 43.3346 27.06 44.7376 27.06C46.1313 27.0507 47.2759 27.503 48.1435 28.4075C50.0172 30.3459 49.9065 33.6595 49.8972 33.8072L49.888 34.0287ZM40.0764 33.5579L49.4173 33.5487C49.408 32.7734 49.2604 30.2443 47.802 28.7306C47.0267 27.9276 45.9929 27.5215 44.7376 27.5307C43.4731 27.5307 42.4393 27.9368 41.6732 28.7398C40.2241 30.2628 40.0764 32.7919 40.0764 33.5579Z" fill="#A2A2A2"/>
<path d="M41.2246 28.5551C42.8676 26.7552 45.1105 27.0691 45.1105 27.0691L45.1197 27.549C42.7937 27.2998 41.4277 29.0628 41.4277 29.0628L41.2246 28.5551Z" fill="#A2A2A2"/>
<path d="M43.4807 33.9546L39.6133 33.9638C39.6133 33.9638 39.6779 32.044 41.7085 32.044C43.7391 32.0347 43.4807 33.9546 43.4807 33.9546Z" fill="#A2A2A2"/>
<path d="M44.8436 33.9546H42.8223C42.8223 33.9546 42.9238 32.9116 43.8652 32.9947C44.8067 33.087 44.8436 33.9546 44.8436 33.9546Z" fill="#A2A2A2"/>
<path d="M45.8573 33.9547H43.8359C43.8359 33.9547 43.9375 32.9024 44.8789 32.9947C45.8204 33.0871 45.8573 33.9547 45.8573 33.9547Z" fill="#A2A2A2"/>
<path d="M48.758 34.6009L45.4629 33.9547C45.4629 33.9547 47.3458 32.5056 47.5212 31.3796C47.6966 30.2627 50.4564 30.5396 49.7641 32.2472C49.0811 33.9455 48.758 34.6009 48.758 34.6009Z" fill="#A2A2A2"/>
<path d="M49.2059 30.7795C49.2059 30.7795 50.1382 31.1487 50.092 32.0994C50.092 32.0994 49.2798 31.6841 49.2059 31.4441C49.1321 31.1949 48.8552 32.7732 48.8552 32.7732C48.8552 32.7732 48.6244 31.7487 48.5137 31.3979C48.4029 31.0472 46.7969 31.7764 46.7969 31.7764C46.7969 31.7764 47.3599 30.6134 48.4398 30.6595C49.529 30.7057 49.2059 30.7795 49.2059 30.7795Z" fill="#ABABAB"/>
<path d="M46.5227 39.5481L42.8861 39.5573C38.4464 39.5666 39.1479 33.2255 39.1479 33.2255L50.2424 33.207C50.2424 33.207 50.9624 39.5389 46.5227 39.5481Z" fill="#A2A2A2"/>
<path d="M46.5227 39.5479L42.8861 39.5572C38.4464 39.5664 39.1479 33.2253 39.1479 33.2253L43.163 33.2161C43.163 33.2161 42.8307 39.5572 46.5227 39.5479Z" fill="#A2A2A2"/>
<path d="M32.1134 4.85214C32.1596 6.03359 32.538 7.45502 31.6704 8.75647C30.212 10.9348 28.5137 9.09799 28.5137 9.09799C28.5137 9.09799 29.3259 9.71641 30.212 8.4888C31.2181 7.09506 28.8183 3.69837 29.4182 2.60922C30.0182 1.52007 31.255 1.84313 31.255 1.84313C31.255 1.84313 32.0673 3.67992 32.1134 4.85214Z" fill="#ABABAB"/>
<path d="M40.9194 56.1716C40.9194 56.1716 41.2516 57.0577 41.7131 57.2607C42.1746 57.473 43.2177 58.4422 43.633 58.5068C44.0576 58.5806 45.0637 58.6545 45.1191 59.1806C45.1744 59.7159 45.0637 60.1959 43.0423 59.919C41.0209 59.6421 39.1103 58.7099 39.1103 58.7099C39.1103 58.7099 38.6949 56.6608 39.3502 55.6547C40.0056 54.6394 40.9194 56.1716 40.9194 56.1716Z" fill="#ABABAB"/>
<path d="M39.0918 56.2639V54.9163H40.5409L40.9194 56.1716C41.2793 57.0761 39.0918 56.2639 39.0918 56.2639Z" fill="#ABABAB"/>
<path d="M28.2658 53.8176C28.2658 53.8176 28.4042 54.7314 28.635 55.0083C28.8565 55.2852 29.1796 56.5959 29.6411 57.0113C30.1026 57.4358 31.2287 58.3773 30.8779 58.8481C30.5364 59.328 28.1366 58.7188 27.2782 57.2605C26.4198 55.8021 26.1244 55.636 26.2352 55.2391C26.3367 54.8422 27.1489 53.31 27.1305 53.1254C27.112 52.9408 28.2658 53.8176 28.2658 53.8176Z" fill="#ABABAB"/>
<path d="M28.5952 53.1624C28.5767 53.1624 28.2998 53.5778 28.2444 53.8177C28.1798 54.0577 27.6537 54.1592 27.2291 53.6331C27.2291 53.6331 27.0907 53.4393 27.1091 53.1255C27.1276 52.8117 27.4876 52.0732 27.4876 52.0732L28.5952 53.1624Z" fill="#ABABAB"/>
<path d="M44.9616 27.8537C45.0631 28.2136 44.6016 28.2783 44.6016 28.2783C44.4447 28.6936 44.0847 28.5275 44.0847 28.5275C43.9186 28.7305 43.7617 28.6382 43.7617 28.6382C43.7617 28.6382 43.1802 28.3429 43.0971 27.7891C43.0417 27.4568 43.4386 27.5491 43.4386 27.5491C43.4386 27.5491 43.1986 27.346 43.374 27.1522C43.5586 26.9491 43.7432 27.1245 43.7432 27.1245C43.7432 27.1245 43.5217 26.8199 43.7524 26.6999C43.9832 26.5891 44.1586 26.8568 44.1586 26.8568C44.1586 26.8568 43.974 26.5891 44.2786 26.5984C44.5831 26.6168 45.1185 27.3276 45.1185 27.3276C45.4416 27.7337 44.9616 27.8537 44.9616 27.8537Z" fill="#ABABAB"/>
<path d="M34.1802 27.2907C34.4571 26.5153 35.0109 25.9061 36.0262 25.6939C36.783 25.5369 37.8168 25.6108 39.1736 26.0169C39.1736 26.0169 39.8474 28.0291 40.0597 28.7398C40.0782 28.8136 40.0936 28.8721 40.1059 28.9152C40.2166 29.3674 41.0197 34.4255 40.8812 36.4654C40.7705 38.0899 40.5951 39.5667 40.6043 40.4528C40.6135 40.6835 40.632 40.8774 40.6689 41.0251C40.8351 41.7358 40.7243 43.5449 40.5582 44.191C40.392 44.8463 40.8258 55.0733 41.1396 55.664C41.1396 55.664 39.2567 56.1901 38.8321 55.9963C38.8321 55.9963 37.0138 47.7815 37.1245 46.1109C37.2353 44.4402 37.5861 42.4465 37.2722 41.1727C37.2261 40.9789 37.1338 40.6651 37.0046 40.259C36.6815 39.1883 36.1369 37.4992 35.6385 35.9577C35.1032 34.2594 34.614 32.7364 34.5401 32.3765C34.4386 31.9057 33.5156 29.1275 34.1802 27.2907Z" fill="#ABABAB"/>
<path d="M28.8364 47.8642C30.1471 43.8675 30.7839 42.9076 31.4301 41.7723C31.6608 41.3754 31.6885 40.5447 31.6054 39.5294C31.467 37.6649 30.6178 35.3851 30.3594 33.6129C30.0548 31.5454 30.0455 29.0532 30.4147 27.0411C30.5347 26.3765 30.7286 25.7489 31.0332 25.1581C32.1869 22.9337 35.5005 25.3058 36.0174 25.6935C36.0605 25.7304 36.082 25.7489 36.082 25.7489C36.082 25.7489 36.0913 26.4873 36.0913 27.5487C36.0913 29.9578 36.0543 34.0375 35.7774 35.2282C35.7313 35.4497 35.6759 35.6989 35.6298 35.9573C35.3898 37.3419 35.2144 39.1233 35.159 40.0647C35.1405 40.314 35.1406 40.4986 35.1406 40.6093C35.1406 41.2277 34.7806 42.9261 34.4391 43.8029C34.0975 44.689 28.9195 52.5531 28.6887 53.6884L26.8242 52.9038C26.8242 52.9038 28.4118 49.1656 28.8364 47.8642Z" fill="#ABABAB"/>
<path d="M34.2179 1.34459C34.2179 1.34459 36.7746 1.43688 36.8854 5.14738C36.9962 8.85789 36.1931 9.65168 33.9041 8.87635C31.615 8.11025 30.8858 4.22437 30.8397 3.62442C30.7843 3.02446 30.692 0.910771 34.2179 1.34459Z" fill="#ABABAB"/>
<path d="M31.2009 10.741C32.0039 10.5564 33.4069 10.0396 33.4069 10.0396L35.6498 10.3995C35.6498 10.3995 35.8621 10.4641 36.1852 10.6764C36.3421 10.7872 36.5175 10.9164 36.7113 11.0918C36.9605 11.3318 37.4774 12.024 38.0035 12.7809C38.1604 13.0209 38.3173 13.2609 38.4742 13.4916C38.9634 14.2485 39.3142 14.8669 39.3419 15.5776C39.3696 16.2791 38.6588 17.7836 38.6035 18.4851C38.5481 19.1774 38.3081 21.6603 38.4189 22.3156C38.5296 22.9802 40.0895 28.7397 40.0895 28.7397C38.825 28.989 30.444 27.6783 30.4071 27.3183C30.361 26.9676 31.2932 22.8786 31.5978 21.6695C31.8932 20.4603 31.5332 20.1557 31.3024 19.2143C31.0809 18.2728 29.6041 15.2176 29.6133 13.9439C29.6318 10.9718 31.2009 10.741 31.2009 10.741Z" fill="#ABABAB"/>
<path d="M36.1777 10.676C36.2331 10.7129 37.8299 11.599 38.3468 12.7805C38.3591 12.842 38.3714 12.9005 38.3837 12.9559C38.4145 13.1589 38.4422 13.3374 38.4668 13.4912C38.6053 14.3219 38.6883 14.608 38.6883 14.6173L37.4792 12.7251L36.1777 10.676Z" fill="#ABABAB"/>
<path d="M35.6077 8.99608C35.6077 8.99608 35.6077 9.033 35.5985 9.10684C35.58 9.23606 35.5615 9.47604 35.5615 9.75295C35.5615 10.0945 35.6077 10.5006 35.7554 10.8052C36.0877 11.4882 32.894 10.2883 32.894 10.2883C32.894 10.2883 32.6448 7.63925 32.4233 7.20544C32.1925 6.78086 35.6077 8.99608 35.6077 8.99608Z" fill="#ABABAB"/>
<path d="M35.5737 9.10703C35.5552 9.23625 35.5367 9.47623 35.5367 9.75314C35.5367 9.75314 34.2445 9.5593 33.7461 8.83936C33.7461 8.83936 34.7429 9.26394 35.5737 9.10703Z" fill="#ABABAB"/>
<path d="M38.3415 12.7715C38.3415 12.7715 38.4153 12.91 38.4707 13.4915L38 12.7807C38 12.7807 37.16 11.5808 36.8647 11.267C36.5785 10.9532 36.1816 10.6763 36.1816 10.6763C36.1816 10.6763 37.8338 11.4701 38.3415 12.7715Z" fill="#ABABAB"/>
<path d="M35.6342 10.3995C35.6342 10.3995 37.1387 12.707 36.6311 12.91C36.1234 13.1131 33.3636 12.6516 32.1914 10.4548C32.1914 10.4548 33.9451 9.55029 35.6342 10.3995Z" fill="#ABABAB"/>
<path d="M43.3827 25.4905C43.3827 25.4905 42.6166 25.749 42.3858 26.192C42.3858 26.192 41.8966 25.5459 41.7305 25.4351L42.8935 24.9275L43.3827 25.4905Z" fill="#ABABAB"/>
<path d="M38.5762 18.485C38.5823 18.4727 38.5854 18.4666 38.5854 18.4666C38.5854 18.4727 38.5823 18.4912 38.5762 18.5219C38.5762 18.5035 38.5762 18.4912 38.5762 18.485Z" fill="#ABABAB"/>
<path d="M38.569 18.522C38.5505 18.965 38.9659 22.3894 38.9659 22.3894C38.7905 22.1771 38.449 21.7617 38.3567 21.651C38.2921 20.8941 38.5321 18.8727 38.569 18.522Z" fill="#ABABAB"/>
<path d="M31.3769 20.2571C31.3769 20.2571 32.2906 20.5709 33.1583 20.7555C34.0167 20.9401 33.1306 21.9739 33.1306 21.9739C33.1306 21.9739 31.6353 21.8354 30.9154 21.7708C30.6569 21.7431 31.3769 20.2571 31.3769 20.2571Z" fill="#ABABAB"/>
<path d="M32.0726 14.4515C32.0726 14.4515 30.1527 13.7684 29.5527 13.7223C29.5527 13.7223 29.8573 10.381 31.8418 10.7225C33.817 11.064 32.0726 14.4515 32.0726 14.4515Z" fill="#ABABAB"/>
<path d="M34.8908 3.6893C34.8908 3.6893 34.4016 5.51685 31.4665 6.06143C31.4665 6.06143 29.1497 2.12018 32.3895 1.2987C35.6292 0.467989 36.6815 2.96011 36.7738 4.18771C36.7738 4.18771 35.9061 3.63392 34.8908 3.6893Z" fill="#ABABAB"/>
<path d="M31.5568 6.2457C29.3785 2.97824 31.3814 1.6491 31.3814 1.6491C35.3688 -0.963018 36.6795 3.70742 36.6795 3.70742C34.575 5.45191 31.5568 6.2457 31.5568 6.2457Z" fill="#ABABAB"/>
<path d="M33.9388 20.8755C33.6896 21.1801 33.6988 22.02 33.6988 22.02C33.4404 22.0846 33.3665 21.9923 33.3665 21.9923C33.2281 21.2078 33.5511 20.8201 33.5511 20.8201C33.8188 20.7924 33.9388 20.8755 33.9388 20.8755Z" fill="#ABABAB"/>
<path d="M32.9319 6.56892C32.3873 6.42124 32.1104 5.49823 32.535 5.23979C32.9503 4.98134 33.2365 5.31363 33.4118 5.69206C33.5688 6.03358 33.4672 6.70738 32.9319 6.56892Z" fill="#ABABAB"/>
<path d="M32.386 5.97821C32.386 5.97821 31.9245 6.60586 32.0445 7.22428C32.0445 7.22428 31.38 6.54125 31.4261 6.06128C31.4723 5.59055 32.386 5.97821 32.386 5.97821Z" fill="#ABABAB"/>
<path d="M39.3432 18.8449C39.3432 19.0049 39.334 19.1587 39.3155 19.3064C39.2601 19.6571 39.1494 19.9987 38.9925 20.3125C38.894 20.4971 38.7832 20.6755 38.6602 20.8478C37.8387 21.9277 36.3803 22.6477 34.7189 22.6477C33.0298 22.6569 31.5438 21.9185 30.7315 20.8109C30.5469 20.5525 30.39 20.2756 30.2793 19.9802C30.1685 19.6941 30.1039 19.4079 30.0854 19.1033C30.0793 19.0233 30.0762 18.9433 30.0762 18.8633C30.0762 18.7341 30.0823 18.608 30.0947 18.4849C30.1193 18.3003 30.1562 18.1219 30.2054 17.9496C30.2792 17.6973 30.3838 17.4573 30.5192 17.2296C31.2669 15.9466 32.8544 15.0698 34.7005 15.0605C36.5096 15.0605 38.0695 15.9005 38.8356 17.1281C38.9402 17.2942 39.0294 17.4635 39.1032 17.6357C39.2232 17.9219 39.2971 18.2265 39.3248 18.5403C39.3371 18.6387 39.3432 18.7403 39.3432 18.8449Z" fill="#ABABAB"/>
<path d="M39.1029 17.6357C38.8352 17.6634 38.5306 17.645 38.2537 17.5896C37.5615 17.4327 37.3399 17.3957 36.4908 17.3957C35.6416 17.3865 35.1986 17.2665 34.7094 17.3957C34.2202 17.525 33.9525 17.608 33.2602 17.6542C32.568 17.7096 32.1157 17.4603 31.3865 17.6634C30.8604 17.8111 30.4174 17.9034 30.2051 17.9495C30.2789 17.6973 30.3835 17.4573 30.5189 17.2296C30.9712 17.0265 31.7096 16.7312 32.0788 16.8419C32.6141 16.9896 33.0295 16.7404 33.7494 16.6666C34.4601 16.5927 35.3739 16.5189 35.7708 16.6666C36.177 16.805 37.2476 16.6296 37.8291 16.8696C38.0968 16.9896 38.4845 17.0635 38.8352 17.1281C38.9398 17.2942 39.029 17.4634 39.1029 17.6357Z" fill="#ABABAB"/>
<path d="M39.3432 18.845C39.3432 19.005 39.334 19.1588 39.3155 19.3065C38.9925 19.2973 38.6602 19.2973 38.411 19.3065C37.7187 19.325 37.2295 19.4634 36.8972 19.4634C36.5557 19.4634 35.6696 19.288 35.3097 19.2604C34.9589 19.2419 33.9528 19.2881 33.5467 19.2881H32.0791C31.4976 19.2881 30.8054 19.3342 30.8054 19.3342C30.8054 19.3342 30.4177 19.2142 30.0854 19.1035C30.0793 19.0235 30.0762 18.9435 30.0762 18.8635C30.0762 18.7342 30.0823 18.6081 30.0947 18.485C30.4546 18.485 31.073 18.5035 31.6545 18.485C32.4114 18.4666 32.836 18.5127 33.5929 18.485C34.3497 18.4573 35.1712 18.2635 35.8635 18.485C36.5557 18.7066 36.9618 18.8727 37.3587 18.8542C37.6541 18.8358 38.6325 18.5773 39.3248 18.5404C39.3371 18.6389 39.3432 18.7404 39.3432 18.845Z" fill="#ABABAB"/>
<path d="M38.9945 20.3125C38.896 20.4971 38.7852 20.6756 38.6622 20.8478C37.7022 21.0232 37.2315 21.1524 36.7238 21.3555C36.207 21.5586 35.2378 21.6509 35.0901 21.6509C34.9424 21.6509 33.1795 21.5863 33.1795 21.5863C33.1795 21.5863 32.6903 21.3647 32.1919 21.254C31.8504 21.1709 31.195 21.014 30.7335 20.8109C30.5489 20.5525 30.392 20.2756 30.2812 19.9802C31.075 20.2664 32.8287 20.7371 33.1333 20.7186C33.5118 20.6909 34.4717 20.8017 35.2932 20.8017C36.1147 20.8017 36.65 20.7094 37.0746 20.5986C37.4992 20.4879 37.3238 20.211 38.1453 20.2848C38.4407 20.3125 38.736 20.3125 38.9945 20.3125Z" fill="#ABABAB"/>
<path d="M29.818 12.7627C29.818 12.7627 30.1688 10.3721 31.9225 10.7598C33.6116 11.1382 32.0332 14.2765 31.9133 14.6457C31.7933 15.0241 30.5472 18.0608 30.4364 18.4577C30.1042 19.713 30.418 19.7407 30.9349 20.0361C32.4578 20.9129 35.513 21.0606 35.873 21.3006C36.233 21.5406 36.2791 22.0759 35.6791 22.1036C34.8854 22.1405 30.3903 21.7159 29.7626 21.6606C29.1534 21.6052 27.9443 21.5498 28.2581 19.39C28.4704 17.9316 29.818 12.7627 29.818 12.7627Z" fill="#ABABAB"/>
<path d="M33.1742 20.7555C33.1742 20.7555 34.1064 20.9124 34.1987 20.8939C34.2818 20.8847 34.651 20.2755 35.0848 20.1648C35.5186 20.054 36.054 19.9709 36.1832 19.8879C36.3124 19.8048 36.3493 20.2294 35.9432 20.3955C35.5278 20.5709 35.4263 20.8016 36.2016 20.9585C36.6262 21.0416 38.223 20.857 38.0938 21.1339C38.0107 21.2908 36.4693 21.4016 36.4693 21.4016C36.4693 21.4016 38.1307 21.3924 38.1953 21.4939C38.3061 21.6877 36.6355 21.7616 36.5708 21.7616C36.5708 21.7616 37.9923 21.8354 38.0107 21.9646C38.02 22.1215 36.5801 22.0569 36.5893 22.0846C36.5893 22.0846 37.7246 22.1585 37.7154 22.26C37.6969 22.3892 36.7001 22.4077 36.5062 22.38C36.3124 22.3615 34.3556 22.14 34.0326 22.0754C33.7003 22.0108 33.1465 21.9739 33.1465 21.9739L33.1742 20.7555Z" fill="#ABABAB"/>
<path d="M3.9039 19.3432C3.95928 19.934 4.03312 21.7338 3.96851 22.2138C3.88544 22.8599 3.75623 24.5398 3.54394 26.5335C3.54394 26.5335 5.19611 27.318 8.46357 27.5303C11.7587 27.4565 13.3002 26.5427 13.3002 26.5427C13.1617 24.8721 13.0694 22.9245 13.0509 22.2415C13.0417 21.7615 12.9125 19.9432 13.0509 19.3617C13.3094 18.2264 13.7524 15.2266 13.7524 15.2266C13.2171 13.3806 14.7031 10.8792 14.7031 10.8792C13.8263 10.0854 12.5433 9.60547 11.971 9.50394C11.4264 9.40241 9.77426 9.08858 9.77426 9.08858L8.49126 9.07935H7.20828C7.20828 9.07935 5.61146 9.42087 5.04843 9.51317C4.47616 9.6147 3.14703 9.97467 2.12249 10.9346C2.12249 10.9346 3.79313 13.0575 3.24856 14.9036C3.24856 14.9036 3.83006 18.5217 3.9039 19.3432Z" fill="#ABABAB"/>
<path d="M8.22734 11.101C10.1103 11.2303 10.1934 9.16271 10.1934 9.16271C10.1934 9.16271 10.0641 9.08887 9.99952 8.74736C9.97183 8.59045 9.95337 8.37816 9.98106 8.0828C9.99952 7.86127 10.0364 7.60283 10.1011 7.28901C10.4333 5.64605 7.20279 6.38446 7.20279 6.38446C7.20279 6.38446 7.14741 8.3597 6.75974 9.14426C6.75974 9.14426 6.35363 10.9718 8.22734 11.101Z" fill="#ABABAB"/>
<path d="M8.35294 31.7488L8.40833 31.7395L8.47293 31.7488V31.7211L13.9648 30.6319C13.9648 30.6319 13.3741 27.0968 13.328 26.5707C13.2911 26.1184 13.0142 21.8541 13.0511 19.362C13.0511 19.362 11.805 17.9959 11.6666 16.5099L8.45448 16.436H8.42678L5.2147 16.4637C5.06702 17.9498 3.91327 19.3435 3.91327 19.3435C4.00557 21.7064 3.55329 26.1 3.51637 26.5522C3.47022 27.0783 3.12871 30.7427 3.12871 30.7427L8.35294 31.7211V31.7488Z" fill="#ABABAB"/>
<path d="M12.7129 56.2824C12.7129 56.2824 12.4267 57.3346 12.4821 57.7961C12.5375 58.2668 12.8329 58.1653 13.1375 58.7468C13.4328 59.3283 13.4882 59.8729 14.1989 59.9098C14.9096 59.956 16.7188 60.2421 16.7188 59.2175C16.7095 58.2761 15.6388 57.7038 15.3619 57.3808C15.085 57.0669 14.7527 56.2639 14.7527 56.2639L12.7129 56.2824Z" fill="#ABABAB"/>
<path d="M12.7307 55.8303L12.7215 56.4949C13.7737 56.8549 14.7337 56.4949 14.7337 56.4949L14.7891 55.9688L12.7307 55.8303Z" fill="#ABABAB"/>
<path d="M4.03672 56.2454C4.03672 56.2454 3.70445 57.0484 3.42755 57.3622C3.14142 57.676 2.07072 58.2483 2.06149 59.1898C2.05226 60.2143 3.8706 59.9282 4.58131 59.9005C5.29203 59.8636 5.34741 59.3098 5.64278 58.7375C5.94737 58.156 6.24273 58.2575 6.30734 57.7868C6.36272 57.3161 6.07659 56.2731 6.07659 56.2731L4.03672 56.2454Z" fill="#ABABAB"/>
<path d="M4.00278 55.95L4.05815 56.4761C4.05815 56.4761 5.01808 56.8361 6.07031 56.4761L6.06107 55.8208L4.00278 55.95Z" fill="#ABABAB"/>
<path d="M2.51331 42.825C2.51331 44.0895 3.64862 56.0978 3.64862 56.0978C3.77784 56.5224 5.95613 56.4947 6.38072 56.2917C6.79607 56.0794 6.04845 43.5449 6.12229 42.2804C6.20536 41.0066 8.46672 32.118 8.82669 32.1549C9.1959 32.2011 11.0881 43.1757 11.3835 44.1449C11.6788 45.114 12.4634 56.2363 12.4634 56.2363C13.3864 56.7901 15.1309 56.264 15.1309 56.264C15.1309 56.264 15.0109 43.8126 14.8909 43.4803C14.7617 43.1388 14.7986 42.1788 14.7617 39.0221C14.734 36.6685 13.8663 29.8013 13.4417 26.4784C13.4233 26.3615 13.4079 26.2477 13.3956 26.1369C13.3125 25.4908 13.2479 25.0201 13.211 24.7893C13.2018 24.697 13.1925 24.6417 13.1925 24.6417C13.0756 24.5863 12.9526 24.537 12.8233 24.494C9.74971 23.3771 3.80553 24.5401 3.80553 24.5401C3.80553 24.5401 3.80244 24.5678 3.79629 24.6232C3.78706 24.6878 3.77784 24.7986 3.75938 24.9278C3.72246 25.2231 3.66707 25.657 3.61168 26.1646C3.61168 26.1646 3.61168 26.1677 3.61168 26.1738C3.61168 26.1923 3.60862 26.2077 3.60247 26.22C3.39018 28.0199 3.09482 30.6504 3.12251 30.9274C3.16866 31.3519 2.51331 41.5697 2.51331 42.825Z" fill="#ABABAB"/>
<path d="M5.52826 21.0788L5.51902 25.3431H8.4265L11.3247 25.3523L11.334 21.088L9.93101 19.6943L8.43574 19.6851H6.93123L5.52826 21.0788Z" fill="#ABABAB"/>
<path d="M4.8125 9.56885C4.8125 9.56885 3.28953 9.80883 2.41267 10.6395C1.53581 11.4702 1.03738 12.624 0.631258 14.3131C0.225133 16.0022 -0.0333142 19.8604 0.00360632 20.9773C0.0405269 22.1033 2.20038 29.5151 2.20038 29.5151L3.81564 28.7675C3.81564 28.7675 2.39422 21.6049 2.30192 20.9403C2.20038 20.2665 2.86494 16.3345 2.86494 16.3345L4.8125 9.56885Z" fill="#ABABAB"/>
<path d="M14.0149 16.353C14.0149 16.353 14.6703 20.2851 14.5687 20.9588C14.4672 21.6326 13.1104 28.2506 13.1104 28.2506L14.6333 29.5428C14.6333 29.5428 16.8209 22.1311 16.8578 21.005C16.904 19.8882 16.6547 16.03 16.2578 14.3409C15.8517 12.6425 15.3625 11.4888 14.4857 10.6581C13.618 9.82734 12.0951 9.57812 12.0951 9.57812L14.0149 16.353Z" fill="#ABABAB"/>
<path d="M5.95894 16.4639C5.87587 13.178 4.41752 9.6521 4.41752 9.6521C3.82679 9.67056 3.5499 9.93823 3.5499 9.93823C5.07287 12.578 5.22053 16.4639 5.22053 16.4639C5.22053 16.4639 6.04201 19.7406 5.95894 16.4639Z" fill="#ABABAB"/>
<path d="M11.6733 16.5097C11.6733 16.5097 11.8302 12.2084 13.2793 9.91938C13.2793 9.91938 12.9193 9.55017 12.5316 9.6517C12.5316 9.6517 11.0456 13.2145 10.9441 16.4912C10.8518 19.7771 11.6733 16.5097 11.6733 16.5097Z" fill="#ABABAB"/>
<path d="M2.53592 29.9767C2.53592 29.9767 3.1359 30.7982 4.28043 30.7428C5.57264 30.669 5.95107 30.0967 5.868 29.8475C5.78493 29.5983 2.72053 29.3675 2.53592 29.9767Z" fill="#ABABAB"/>
<path d="M2.85639 29.8936C2.85639 29.8936 2.30258 29.5059 2.13644 29.7644C1.9703 30.0136 2.93945 30.3366 2.93945 30.3366L2.85639 29.8936Z" fill="#ABABAB"/>
<path d="M10.9472 29.8566C10.8641 30.1058 11.2426 30.6781 12.5348 30.7519C13.6793 30.8165 14.2793 30.0043 14.2793 30.0043C14.1039 29.3859 11.0395 29.6074 10.9472 29.8566Z" fill="#ABABAB"/>
<path d="M13.8821 30.3549C13.8821 30.3549 14.8328 30.0134 14.6759 29.755C14.5097 29.5058 13.9559 29.9119 13.9559 29.9119L13.8821 30.3549Z" fill="#ABABAB"/>
<path d="M1.52138 23.294C1.52138 24.3093 2.34285 25.14 3.3674 25.14C4.39194 25.1493 5.22266 24.3186 5.22266 23.294C5.22266 22.2787 4.39195 21.448 3.37664 21.448C2.35209 21.448 1.52138 22.2695 1.52138 23.294Z" fill="#A2A2A2"/>
<path d="M3.93741 22.6478C3.93741 23.6723 4.76812 24.4938 5.78343 24.503C6.80798 24.503 7.63867 23.6723 7.63867 22.657C7.63867 21.6325 6.81719 20.8018 5.79265 20.8018C4.76811 20.8018 3.94664 21.6232 3.93741 22.6478Z" fill="#A2A2A2"/>
<path d="M5.18741 21.7618C5.18741 22.7771 6.00889 23.6078 7.03343 23.617C8.05798 23.617 8.87944 22.7863 8.88867 21.7618C8.88867 20.7465 8.05796 19.9158 7.04265 19.9158C6.01811 19.9158 5.18741 20.7373 5.18741 21.7618Z" fill="#ABABAB"/>
<path d="M7.66984 21.4572C7.66984 22.4725 8.49131 23.3032 9.51586 23.3032C10.5404 23.3032 11.3711 22.4817 11.3711 21.4572C11.3711 20.4419 10.5404 19.6112 9.52507 19.6112C8.50053 19.6019 7.66984 20.4326 7.66984 21.4572Z" fill="#ABABAB"/>
<path d="M5.18101 23.4879C5.17178 24.5124 6.00248 25.3431 7.02703 25.3431C8.04234 25.3431 8.87305 24.5216 8.87305 23.4971C8.87305 22.4818 8.05157 21.6511 7.02703 21.6418C6.01171 21.6418 5.18101 22.4726 5.18101 23.4879Z" fill="#A2A2A2"/>
<path d="M7.25522 22.6571C7.24599 23.6724 8.0767 24.5032 9.10124 24.5032C10.1166 24.5032 10.9473 23.6817 10.9473 22.6571C10.9473 21.6418 10.1258 20.8111 9.10124 20.8111C8.08593 20.8019 7.25522 21.6326 7.25522 22.6571Z" fill="#A2A2A2"/>
<path d="M9.08132 23.774C9.08132 24.7985 9.9028 25.6292 10.9273 25.6292C11.9427 25.6292 12.7734 24.8078 12.7734 23.7832C12.7826 22.7587 11.9519 21.928 10.9273 21.928C9.91203 21.928 9.08132 22.7587 9.08132 23.774Z" fill="#ABABAB"/>
<path d="M9.48231 23.0723C9.48231 24.0969 10.3038 24.9276 11.3283 24.9276C12.3436 24.9276 13.1744 24.1061 13.1836 23.0816C13.1836 22.057 12.3529 21.2263 11.3283 21.2263C10.313 21.2263 9.48231 22.057 9.48231 23.0723Z" fill="#A2A2A2"/>
<path d="M11.4022 23.1649C11.4022 24.1894 12.2329 25.0201 13.2483 25.0201C14.2728 25.0201 15.1035 24.1986 15.1035 23.1741C15.1035 22.1496 14.282 21.3281 13.2575 21.3188C12.233 21.3188 11.4022 22.1496 11.4022 23.1649Z" fill="#A2A2A2"/>
<path d="M0.998579 29.8381L15.8775 29.8658L15.8867 23.1739L1.0078 23.1462L0.998579 29.8381Z" fill="#A2A2A2"/>
<path d="M6.89137 5.81266C7.13136 6.32955 7.42672 6.82797 7.74978 7.24333C8.87585 8.69245 11.9125 8.67399 11.5526 4.76043C11.4787 4.01279 11.4695 3.4036 11.3126 2.90518C10.7772 1.14223 9.52195 0.856088 9.52195 0.856088C8.58048 0.800707 6.94675 1.02223 6.40217 2.2406C6.01451 3.10823 6.29142 4.53891 6.89137 5.81266Z" fill="#ABABAB"/>
<path d="M6.89324 5.81339C6.89324 5.81339 7.02246 5.85031 7.51166 4.87192C7.61319 4.67808 7.68703 4.81654 7.72395 4.73346L8.49927 4.42888C8.49927 4.42888 7.74241 3.14589 8.73926 2.79514C9.75457 2.43517 11.3145 2.90591 11.3145 2.90591C10.7791 1.14296 9.52382 0.85682 9.52382 0.85682C8.58235 0.80144 6.94862 1.02296 6.40404 2.24134C6.01638 3.10897 6.29329 4.53964 6.89324 5.81339Z" fill="#ABABAB"/>
<path d="M7.86037 4.13226C7.79576 3.87382 7.27887 3.64307 7.04812 4.20611C6.82659 4.77837 7.57424 5.38756 7.76807 5.25834C7.9619 5.13835 7.95267 4.57531 7.86037 4.13226Z" fill="#ABABAB"/>
<path d="M6.25166 4.17835C6.25166 4.17835 8.73456 2.46155 11.6328 3.07997C11.6328 3.07997 11.4667 -0.547463 8.17152 0.0709539C5.07021 0.652451 6.1409 3.763 6.25166 4.17835Z" fill="#ABABAB"/>
<path d="M7.84967 3.39379C7.84967 3.39379 11.9478 3.84607 13.5262 3.52302C15.1045 3.19073 11.5879 2.70153 11.5879 2.70153C11.5879 2.70153 10.2772 2.28618 7.84967 3.39379Z" fill="#ABABAB"/>
<path d="M7.62591 7.04883C7.62591 7.04883 8.29048 8.8487 9.99805 8.74717C9.97036 8.59026 9.9519 8.37797 9.97959 8.08261C9.97959 8.08261 8.50277 8.35027 7.62591 7.04883Z" fill="#ABABAB"/>
</svg>
