<svg width="62" height="52" viewBox="0 0 62 52" fill="none" xmlns="http://www.w3.org/2000/svg">
<g filter="url(#filter0_d_623_2923)">
<rect x="10" y="6" width="42" height="32" rx="10" fill="#07425A"/>
</g>
<path d="M40.2799 22.9204C40.0409 25.2672 38.9195 27.4356 37.1424 28.9868C35.3653 30.5382 33.0652 31.3567 30.7076 31.2767C28.35 31.1967 26.1107 30.2242 24.4431 28.5559C22.7752 26.8875 21.8034 24.6479 21.724 22.2903C21.6448 19.9326 22.4638 17.633 24.0158 15.8562C25.5677 14.0797 27.7365 12.9588 30.0833 12.7206C30.2271 12.7047 30.3622 12.7916 30.4073 12.929C30.4524 13.0663 30.3948 13.2164 30.2697 13.2887C29.0648 14.0071 28.1079 15.0762 27.527 16.3529C26.9461 17.6299 26.7689 19.0536 27.019 20.4338C27.2693 21.8141 27.9349 23.0851 28.927 24.0768C29.9191 25.0686 31.1904 25.7338 32.5707 25.9835C33.9511 26.2332 35.3748 26.0556 36.6516 25.4743C37.9283 24.893 38.997 23.9357 39.7149 22.7306C39.7888 22.6092 39.9366 22.5548 40.0715 22.5993C40.2064 22.6438 40.2928 22.7754 40.28 22.9169L40.2799 22.9204Z" fill="white"/>
<defs>
<filter id="filter0_d_623_2923" x="0" y="0" width="62" height="52" filterUnits="userSpaceOnUse" color-interpolation-filters="sRGB">
<feFlood flood-opacity="0" result="BackgroundImageFix"/>
<feColorMatrix in="SourceAlpha" type="matrix" values="0 0 0 0 0 0 0 0 0 0 0 0 0 0 0 0 0 0 127 0" result="hardAlpha"/>
<feOffset dy="4"/>
<feGaussianBlur stdDeviation="5"/>
<feComposite in2="hardAlpha" operator="out"/>
<feColorMatrix type="matrix" values="0 0 0 0 0 0 0 0 0 0 0 0 0 0 0 0 0 0 0.1 0"/>
<feBlend mode="normal" in2="BackgroundImageFix" result="effect1_dropShadow_623_2923"/>
<feBlend mode="normal" in="SourceGraphic" in2="effect1_dropShadow_623_2923" result="shape"/>
</filter>
</defs>
</svg>
