<svg width="130" height="55" viewBox="0 0 130 55" fill="none" xmlns="http://www.w3.org/2000/svg">
<path d="M35.8384 21.5099C35.8384 21.5099 36.7684 21.1299 36.9084 21.0699C37.0484 21.0199 37.4684 21.1199 37.9384 21.2699C38.4084 21.4199 38.9783 21.8399 38.9983 21.9199C39.0183 21.9999 39.0783 22.0699 39.0083 22.2799C38.9383 22.4899 38.7584 22.6199 38.7584 22.6199C38.7584 22.6199 38.7883 22.9199 38.5684 23.0699C38.5684 23.0699 38.5984 23.3498 38.3184 23.4798C38.3184 23.4798 38.2984 23.7498 38.0884 23.8198C38.0884 23.8198 37.6684 23.7198 37.4984 23.7298C37.3384 23.7398 36.4784 23.4798 35.6984 23.1099C35.6984 23.1099 34.8184 22.7299 35.8384 21.5099V21.5099Z" fill="#ABABAB"/>
<path d="M37.0394 23.5698C37.0394 23.5698 36.4994 22.5699 36.6494 22.5199C36.7994 22.4699 37.1494 22.1099 37.1494 22.1099C37.5794 22.5499 37.0394 23.5698 37.0394 23.5698Z" fill="#ABABAB"/>
<path d="M35.5093 21.5299C35.5093 21.5299 35.9493 21.5699 36.2293 21.4999C36.5193 21.4299 35.9193 22.8198 35.9193 22.8198C35.9193 22.8198 35.3693 22.2499 34.9593 22.1599C34.5493 22.0599 35.5093 21.5299 35.5093 21.5299V21.5299Z" fill="#ABABAB"/>
<path d="M32.6701 46.9095L32.0801 46.7895L37.85 18L38.44 18.12L32.6701 46.9095Z" fill="#ABABAB"/>
<path d="M35.701 46.2693L34.541 52.0392C33.121 53.6791 31.051 53.4491 31.051 53.4491C31.051 53.4491 29.0511 52.8592 28.3711 50.7992L29.5311 45.0393L35.701 46.2693Z" fill="#ABABAB"/>
<path d="M29.5737 51.7694C29.5737 51.7694 30.4137 52.6994 31.2636 52.8894C32.1136 53.0893 32.7136 53.3393 32.7136 53.8693C32.7236 54.4093 30.2737 54.7693 29.3037 54.2293C27.8537 53.4193 27.7037 53.6693 27.5437 53.2593C27.3837 52.8594 27.7137 51.7794 27.7237 51.6494C27.7337 51.4994 29.5737 51.7694 29.5737 51.7694Z" fill="#ABABAB"/>
<path d="M21.0407 52.0193C21.0407 52.0193 21.6607 52.9293 22.4807 53.1393C23.2906 53.3493 23.8206 53.7393 23.8606 54.2593C23.9006 54.7793 21.9507 55.4693 20.5707 54.5493C19.6707 53.9493 19.3307 53.9893 19.1507 53.6093C18.9707 53.2293 19.2107 52.1593 19.2207 52.0293C19.2407 51.8793 21.0407 52.0193 21.0407 52.0193V52.0193Z" fill="#ABABAB"/>
<path d="M27.7089 25.1297C27.7089 25.1297 28.5689 31.2896 28.9289 33.5796C29.3589 36.2595 29.4289 37.7395 29.5489 39.1295C29.6989 40.8794 29.3689 50.8092 29.4789 51.3192C29.5789 51.8292 27.8289 51.0592 27.8289 51.0592C27.8289 51.0592 26.2789 40.1794 25.839 38.3195C25.429 36.5895 23.899 29.1297 23.529 29.6096C23.159 30.0796 22.709 38.3095 22.429 39.6695C22.159 41.0394 21.009 51.5692 21.009 51.5692C21.009 51.5692 19.8391 51.8392 19.3391 51.4092C19.3391 51.4092 18.6891 42.4794 18.8591 39.9095C18.9191 38.9395 17.6991 28.2197 19.2391 23.8898C20.0591 21.6098 27.7089 25.1297 27.7089 25.1297V25.1297Z" fill="#ABABAB"/>
<path d="M27.7089 25.1297C27.7089 25.1297 28.5689 31.2896 28.9289 33.5796C29.3589 36.2595 29.4289 37.7395 29.5489 39.1295C29.6989 40.8794 29.6589 47.5193 29.6589 48.0393C29.6689 48.6193 27.1389 48.3293 27.1389 48.3293C27.1389 48.3293 26.2789 40.1794 25.839 38.3195C25.429 36.5895 23.899 29.1297 23.529 29.6096C23.159 30.0796 22.709 38.3095 22.429 39.6695C22.159 41.0394 21.559 48.9093 21.559 48.9093C21.559 48.9093 19.3691 49.2193 18.8591 48.7993C18.8591 48.7993 18.6891 42.4794 18.8591 39.9095C18.9191 38.9395 17.6991 28.2197 19.2391 23.8898C20.0591 21.6098 27.7089 25.1297 27.7089 25.1297V25.1297Z" fill="#ABABAB"/>
<path d="M27.8385 51.0593C27.8385 51.0593 29.0085 51.4993 29.4785 51.1893L29.6185 51.8093C29.6185 51.8093 29.2485 52.0293 28.5985 51.9493C27.9485 51.8593 27.7285 51.6493 27.7285 51.6493L27.8385 51.0593Z" fill="#ABABAB"/>
<path d="M19.3307 51.2993C19.3307 51.2993 20.6707 51.7993 21.0307 51.3993L21.0907 52.0993C21.0907 52.0993 20.9607 52.3093 20.4307 52.2893C19.9107 52.2593 19.2207 52.0293 19.2207 52.0293L19.3307 51.2993Z" fill="#ABABAB"/>
<path d="M36.0423 21.4299L35.8223 23.2499C30.1124 20.4599 29.3624 19.14 29.1524 18.87C29.0024 18.69 28.3624 17.68 28.0624 16.93C28.0357 16.87 28.0124 16.81 27.9924 16.75L27.7124 15.89C27.5924 17.64 27.6424 20.3099 27.6524 23.9199L27.7924 25.6898C25.8525 26.8398 18.6926 26.4398 18.6926 26.4398L18.8526 22.1599C18.8526 22.1599 18.9826 20.6599 18.9926 19.36C18.9926 19.2066 18.9926 19.06 18.9926 18.92C18.9926 18.92 18.9826 18.71 18.9626 18.38V18.37C18.9026 17.66 18.7726 16.4 18.4226 15.66C17.9226 14.61 16.2826 14.0501 16.1926 14.0201C16.1926 14.0134 16.1926 14.0101 16.1926 14.0101C16.1926 14.0101 16.1726 13.9401 16.1626 13.8201C16.156 13.8067 16.1526 13.8001 16.1526 13.8001C16.0726 13.2201 15.8626 11.6501 15.9926 10.8201C16.2526 9.80014 16.8826 9.57014 17.0526 9.47014C18.8726 8.44016 21.0725 7.68018 21.0725 7.68018C21.6325 7.71018 23.3025 7.86017 23.8325 7.91017C23.8325 7.91017 27.1424 9.17015 28.1124 10.2201L31.0224 16.92L36.0423 21.4299Z" fill="#ABABAB"/>
<path d="M24.2804 8.67004C24.2804 8.67004 23.1705 9.28003 21.0505 8.24005C21.0505 8.24005 21.2005 6.13009 20.8405 4.73011C20.4705 3.33014 23.6504 6.70008 23.6504 6.70008C23.6204 6.72008 23.6004 6.86008 23.6204 7.05007C23.6204 7.11674 23.6238 7.18674 23.6304 7.26007C23.6438 7.3534 23.6604 7.45007 23.6804 7.55006C23.6871 7.57673 23.6938 7.60339 23.7004 7.63006C23.8004 8.09005 23.9904 8.58004 24.2804 8.67004Z" fill="#ABABAB"/>
<path d="M20.3723 1.5501C20.9023 0.370118 22.4922 0.140122 23.3922 0.190121C23.3922 0.190121 24.6222 0.470115 25.1422 2.18008C25.2922 2.66007 25.3822 3.25006 25.3722 3.98005C25.3422 7.82998 22.8022 7.79998 21.7022 6.4C21.3822 5.99001 21.1023 5.51002 20.8623 5.01003C20.2723 3.77005 20.0023 2.38008 20.3723 1.5501V1.5501Z" fill="#ABABAB"/>
<path d="M20.3723 1.55022C20.9023 0.370245 22.4922 0.140248 23.3922 0.190248C23.3922 0.190248 25.2522 -0.909732 25.1422 2.18021C25.1422 2.18021 23.6322 1.72022 22.6422 2.08021C21.6722 2.42021 22.4122 3.66018 22.4122 3.66018L21.6722 3.96018C21.6222 4.04018 21.5522 3.90018 21.4622 4.09017C20.9923 5.04016 20.8623 5.01016 20.8623 5.01016C20.2723 3.77018 20.0023 2.38021 20.3723 1.55022V1.55022Z" fill="#ABABAB"/>
<path d="M21.7253 4.47015C21.5353 4.59014 20.8053 4.01016 21.0253 3.45017C21.2353 2.90018 21.7453 3.12017 21.8053 3.38017C21.8953 3.80016 21.9153 4.35015 21.7253 4.47015V4.47015Z" fill="#ABABAB"/>
<path d="M23.8861 15.3401C23.8861 15.3401 19.0062 18.7601 18.4462 18.4701C16.7362 17.6101 16.1562 13.8002 16.1562 13.8002C17.6762 12.1902 18.8762 13.9102 18.8762 13.9102C19.3262 15.1401 19.8062 15.6601 20.1562 15.5301C20.6362 15.3301 22.8361 13.9902 22.8361 13.9902C23.3061 14.5101 23.8861 15.3401 23.8861 15.3401V15.3401Z" fill="#ABABAB"/>
<path d="M21.0824 7.37012C21.0824 7.37012 23.1124 8.2101 23.6924 7.58011L23.8724 7.91011L24.5424 8.84009C24.5424 8.84009 21.6924 9.62008 20.9824 8.71009L21.0824 7.37012Z" fill="#ABABAB"/>
<path d="M28.0592 16.9298C28.0325 16.8698 28.0092 16.8098 27.9892 16.7498L27.7092 15.8898C27.7092 15.8898 27.6692 15.4198 27.5992 14.8099C27.5092 14.0899 27.3792 13.1899 27.1992 12.6399C27.1992 12.6399 27.4992 13.0299 27.7392 13.9199C27.7725 14.0399 27.8059 14.1699 27.8392 14.3099C27.9792 14.9698 28.0892 15.8298 28.0592 16.9298V16.9298Z" fill="#ABABAB"/>
<path d="M22.5828 16.23C20.9929 18.0899 18.9929 19.3599 18.9929 19.3599C18.9929 19.2066 18.9929 19.0599 18.9929 18.9199C18.9929 18.9199 18.9829 18.7099 18.9629 18.3799C18.9629 18.3733 18.9629 18.3699 18.9629 18.3699C19.8629 18.0199 21.5928 16.88 21.7528 16.78C21.7528 16.77 22.5728 16.23 22.5828 16.23V16.23Z" fill="#ABABAB"/>
<path d="M23.6832 7.55006C22.2533 7.72005 21.6133 6.33008 21.6133 6.33008C22.5733 7.50006 23.6232 7.24006 23.6532 7.23006C23.6632 7.33006 23.6632 7.45006 23.6832 7.55006Z" fill="#ABABAB"/>
<path d="M6.27344 3.48022L6.60343 2.99023L32.7029 17.76L32.3729 18.2499L6.27344 3.48022Z" fill="#ABABAB"/>
<path d="M6.35527 3.53015L3.94531 2.24018L4.11531 1.94019L6.59526 2.99017L6.35527 3.53015Z" fill="#ABABAB"/>
<path d="M2.74995 1.25024L5.65989 2.68022L4.30992 7.12013L0 5.00017L2.74995 1.25024Z" fill="#ABABAB"/>
<path d="M25.7418 13.49C25.7418 13.49 25.7018 13.71 25.6418 13.79C25.6418 13.79 25.5118 13.93 25.4218 14.04C25.4018 14.08 25.3718 14.11 25.3618 14.13C25.3118 14.22 25.2218 14.43 25.0418 14.6C24.8518 14.78 23.8619 15.34 23.8619 15.34L23.4019 14.89L22.9219 14.53C22.9219 14.53 23.3319 13.01 23.4819 12.83C23.4952 12.81 23.5119 12.7933 23.5319 12.78C23.6719 12.63 23.8419 12.59 23.9219 12.52C23.9519 12.49 24.2819 12.27 24.4018 12.31C24.5518 12.35 24.6418 12.45 24.6818 12.55C24.6818 12.55 24.9818 12.66 25.0918 12.84C25.0918 12.84 25.3818 12.93 25.4618 13.2C25.4618 13.2 25.7318 13.31 25.7418 13.49V13.49Z" fill="#ABABAB"/>
<path d="M39.0076 21.9299C39.2176 22.3199 38.8176 22.6399 38.8176 22.6399C38.8276 22.9599 38.5976 23.0799 38.5976 23.0799C38.6076 23.3799 38.3076 23.4599 38.3076 23.4599C38.2876 23.7799 38.1076 23.8099 38.1076 23.8099C38.1076 23.8099 37.3277 23.6099 37.1677 23.4699C36.9977 23.3299 37.1677 23.0899 37.1677 23.0899C36.7677 22.8499 37.1077 22.6399 37.1077 22.6399C36.7277 22.3499 37.0677 22.0899 37.0677 22.0899L37.6176 22.0099C37.6176 22.0099 37.5376 21.8999 37.6176 21.7099C37.6976 21.5299 38.8876 21.8799 38.8876 21.8799C38.9376 21.8999 39.0076 21.9299 39.0076 21.9299V21.9299Z" fill="#ABABAB"/>
<path d="M36.9792 21.1001C36.9792 21.1001 37.5891 21.6901 37.7891 22.1501C37.8291 22.2601 37.8591 22.3701 37.7691 22.4501C37.6891 22.5301 37.4692 22.5201 37.1892 22.2701C36.9092 22.0301 36.4392 21.8501 36.4392 21.8501C36.4392 21.8501 36.2292 21.5201 36.9792 21.1001Z" fill="#ABABAB"/>
<path d="M49.5898 50.4973C49.1275 52.6569 50.1472 53.8567 50.1472 53.8567L49.481 54.2801C49.481 54.2801 48.434 52.1911 49.1954 50.2009C49.413 49.608 49.5082 49.0717 49.5218 48.5635C49.345 48.2953 48.9915 47.8436 48.2437 47.3778C47.0199 46.6156 47.3327 45.4723 47.3327 45.4723C47.4822 45.7264 48.3388 45.8534 49.1275 46.8415C49.277 47.0391 49.3722 47.2226 49.4538 47.4061C49.3586 46.7003 49.209 46.051 49.209 45.4158C49.2226 44.95 49.2906 44.6254 49.3858 44.3431C49.3858 43.468 50.0385 42.7058 50.6503 42.6775C51.4118 42.6352 51.6701 42 51.6701 42C51.7789 44.5266 49.9025 44.9924 49.5898 45.0489C49.5807 45.2088 49.5807 45.3876 49.5898 45.5852C49.6441 46.8838 49.9025 47.8578 49.7665 49.2834C50.1608 48.62 50.9223 48.2953 51.439 48.4929C52.1732 48.7752 52.6491 48.2812 52.6491 48.2812C51.8333 50.5255 50.0929 50.342 49.6306 50.2573C49.617 50.3279 49.6169 50.4126 49.5898 50.4973V50.4973Z" fill="#ABABAB"/>
<path d="M44 55C44 55 48.9901 49.241 55 54.9859L44 55Z" fill="#ABABAB"/>
<path d="M64.5898 50.4973C64.1275 52.6569 65.1472 53.8567 65.1472 53.8567L64.481 54.2801C64.481 54.2801 63.434 52.1911 64.1954 50.2009C64.413 49.608 64.5082 49.0717 64.5218 48.5635C64.345 48.2953 63.9915 47.8436 63.2437 47.3778C62.0199 46.6156 62.3327 45.4723 62.3327 45.4723C62.4822 45.7264 63.3388 45.8534 64.1275 46.8415C64.277 47.0391 64.3722 47.2226 64.4538 47.4061C64.3586 46.7003 64.209 46.051 64.209 45.4158C64.2226 44.95 64.2906 44.6254 64.3858 44.3431C64.3858 43.468 65.0385 42.7058 65.6503 42.6775C66.4118 42.6352 66.6701 42 66.6701 42C66.7789 44.5266 64.9025 44.9924 64.5898 45.0489C64.5807 45.2088 64.5807 45.3876 64.5898 45.5852C64.6441 46.8838 64.9025 47.8578 64.7665 49.2834C65.1608 48.62 65.9223 48.2953 66.439 48.4929C67.1732 48.7752 67.6491 48.2812 67.6491 48.2812C66.8333 50.5255 65.0929 50.342 64.6306 50.2573C64.617 50.3279 64.6169 50.4126 64.5898 50.4973V50.4973Z" fill="#ABABAB"/>
<path d="M59 55C59 55 63.9901 49.241 70 54.9859L59 55Z" fill="#ABABAB"/>
<path d="M79.5898 50.4973C79.1275 52.6569 80.1472 53.8567 80.1472 53.8567L79.481 54.2801C79.481 54.2801 78.434 52.1911 79.1954 50.2009C79.413 49.608 79.5082 49.0717 79.5218 48.5635C79.345 48.2953 78.9915 47.8436 78.2437 47.3778C77.0199 46.6156 77.3327 45.4723 77.3327 45.4723C77.4822 45.7264 78.3388 45.8534 79.1275 46.8415C79.277 47.0391 79.3722 47.2226 79.4538 47.4061C79.3586 46.7003 79.209 46.051 79.209 45.4158C79.2226 44.95 79.2906 44.6254 79.3858 44.3431C79.3858 43.468 80.0385 42.7058 80.6503 42.6775C81.4118 42.6352 81.6701 42 81.6701 42C81.7789 44.5266 79.9025 44.9924 79.5898 45.0489C79.5807 45.2088 79.5807 45.3876 79.5898 45.5852C79.6441 46.8838 79.9025 47.8578 79.7665 49.2834C80.1608 48.62 80.9223 48.2953 81.439 48.4929C82.1732 48.7752 82.6491 48.2812 82.6491 48.2812C81.8333 50.5255 80.0929 50.342 79.6306 50.2573C79.617 50.3279 79.6169 50.4126 79.5898 50.4973V50.4973Z" fill="#ABABAB"/>
<path d="M74 55C74 55 78.9901 49.241 85 54.9859L74 55Z" fill="#ABABAB"/>
<path d="M94.5898 50.4973C94.1275 52.6569 95.1472 53.8567 95.1472 53.8567L94.481 54.2801C94.481 54.2801 93.434 52.1911 94.1954 50.2009C94.413 49.608 94.5082 49.0717 94.5218 48.5635C94.345 48.2953 93.9915 47.8436 93.2437 47.3778C92.0199 46.6156 92.3327 45.4723 92.3327 45.4723C92.4822 45.7264 93.3388 45.8534 94.1275 46.8415C94.277 47.0391 94.3722 47.2226 94.4538 47.4061C94.3586 46.7003 94.209 46.051 94.209 45.4158C94.2226 44.95 94.2906 44.6254 94.3858 44.3431C94.3858 43.468 95.0385 42.7058 95.6503 42.6775C96.4118 42.6352 96.6701 42 96.6701 42C96.7789 44.5266 94.9025 44.9924 94.5898 45.0489C94.5807 45.2088 94.5807 45.3876 94.5898 45.5852C94.6441 46.8838 94.9025 47.8578 94.7665 49.2834C95.1608 48.62 95.9223 48.2953 96.439 48.4929C97.1732 48.7752 97.6491 48.2812 97.6491 48.2812C96.8333 50.5255 95.0929 50.342 94.6306 50.2573C94.617 50.3279 94.6169 50.4126 94.5898 50.4973V50.4973Z" fill="#ABABAB"/>
<path d="M89 55C89 55 93.9901 49.241 100 54.9859L89 55Z" fill="#ABABAB"/>
<path d="M109.59 50.4973C109.127 52.6569 110.147 53.8567 110.147 53.8567L109.481 54.2801C109.481 54.2801 108.434 52.1911 109.195 50.2009C109.413 49.608 109.508 49.0717 109.522 48.5635C109.345 48.2953 108.991 47.8436 108.244 47.3778C107.02 46.6156 107.333 45.4723 107.333 45.4723C107.482 45.7264 108.339 45.8534 109.127 46.8415C109.277 47.0391 109.372 47.2226 109.454 47.4061C109.359 46.7003 109.209 46.051 109.209 45.4158C109.223 44.95 109.291 44.6254 109.386 44.3431C109.386 43.468 110.038 42.7058 110.65 42.6775C111.412 42.6352 111.67 42 111.67 42C111.779 44.5266 109.902 44.9924 109.59 45.0489C109.581 45.2088 109.581 45.3876 109.59 45.5852C109.644 46.8838 109.902 47.8578 109.767 49.2834C110.161 48.62 110.922 48.2953 111.439 48.4929C112.173 48.7752 112.649 48.2812 112.649 48.2812C111.833 50.5255 110.093 50.342 109.631 50.2573C109.617 50.3279 109.617 50.4126 109.59 50.4973V50.4973Z" fill="#ABABAB"/>
<path d="M104 55C104 55 108.99 49.241 115 54.9859L104 55Z" fill="#ABABAB"/>
<path d="M124.59 50.4973C124.127 52.6569 125.147 53.8567 125.147 53.8567L124.481 54.2801C124.481 54.2801 123.434 52.1911 124.195 50.2009C124.413 49.608 124.508 49.0717 124.522 48.5635C124.345 48.2953 123.991 47.8436 123.244 47.3778C122.02 46.6156 122.333 45.4723 122.333 45.4723C122.482 45.7264 123.339 45.8534 124.127 46.8415C124.277 47.0391 124.372 47.2226 124.454 47.4061C124.359 46.7003 124.209 46.051 124.209 45.4158C124.223 44.95 124.291 44.6254 124.386 44.3431C124.386 43.468 125.038 42.7058 125.65 42.6775C126.412 42.6352 126.67 42 126.67 42C126.779 44.5266 124.902 44.9924 124.59 45.0489C124.581 45.2088 124.581 45.3876 124.59 45.5852C124.644 46.8838 124.902 47.8578 124.767 49.2834C125.161 48.62 125.922 48.2953 126.439 48.4929C127.173 48.7752 127.649 48.2812 127.649 48.2812C126.833 50.5255 125.093 50.342 124.631 50.2573C124.617 50.3279 124.617 50.4126 124.59 50.4973V50.4973Z" fill="#ABABAB"/>
<path d="M119 55C119 55 123.99 49.241 130 54.9859L119 55Z" fill="#ABABAB"/>
</svg>
