<svg width="53" height="48" viewBox="0 0 53 48" fill="none" xmlns="http://www.w3.org/2000/svg">
<path d="M42.3263 8.39046L51.4417 29.7222L49.4174 29.2308L26.424 29.1957L3.4306 29.2308L1.40625 29.7222L10.2877 8.39046L26.424 1.49829L42.3263 8.39046Z" fill="#ABABAB"/>
<path d="M49.4846 26.6566V47.9532L26.421 47.9415L3.35742 47.9532V26.6566L10.741 8.82354L26.421 2.41113L42.101 8.82354L49.4846 26.6566Z" fill="#ABABAB"/>
<path d="M42.0156 8.85857C40.9936 8.43731 39.9678 8.01996 38.9381 7.60651C35.5993 6.24134 32.2565 4.87617 28.9099 3.511C28.0674 3.16775 27.221 2.82061 26.3707 2.46957C26.3239 2.45786 26.5228 2.42276 26.359 2.49297C26.242 2.53977 26.125 2.58658 26.008 2.63339C25.5555 2.81281 25.103 2.99613 24.6506 3.18335C21.3586 4.52512 18.0666 5.87079 14.7746 7.22036C13.5888 7.70402 12.4031 8.18768 11.2173 8.67134C10.679 8.88197 10.7961 8.89367 10.5386 9.52555C8.21393 15.1423 5.88924 20.759 3.56455 26.3757C3.40073 26.7501 3.44753 27.1012 3.44753 27.5341C3.44753 28.8213 3.44753 30.1123 3.44753 31.4073C3.44753 35.1206 3.44753 38.8299 3.44753 42.5354C3.44753 43.924 3.44753 45.3086 3.44753 46.6894C3.44753 47.0054 3.37732 47.9064 3.50604 47.9064C5.93995 47.8986 8.36995 47.8947 10.7961 47.8947C16.0851 47.8947 21.3625 47.883 26.6515 47.883C32.8923 47.8908 39.1331 47.8947 45.3739 47.8947C46.5362 47.8947 47.6947 47.8947 48.8492 47.8947C49.0677 47.9025 49.2861 47.9064 49.5045 47.9064C49.3173 47.9064 49.3875 47.8947 49.3875 47.5904C49.3875 44.7509 49.3875 41.9113 49.3875 39.0718C49.3875 35.6081 49.3875 32.1484 49.3875 28.6926C49.3875 28.0217 49.3875 27.3508 49.3875 26.6799C49.3875 26.1767 48.8492 25.381 48.662 24.9364C46.4387 19.5693 44.2193 14.2061 42.0039 8.84687C41.9805 8.78836 42.1677 8.72985 42.1911 8.78836C43.3924 11.6903 44.5938 14.5923 45.7951 17.4942C46.9809 20.3572 48.1627 23.2202 49.3407 26.0831C49.8907 27.382 49.5747 29.067 49.5747 30.4478C49.5747 36.2751 49.5747 42.1024 49.5747 47.9298C49.5747 47.9766 49.4811 48 49.4343 48C43.9346 47.9922 38.431 47.9883 32.9235 47.9883C23.0475 47.9883 13.1832 47.9883 3.31882 48C3.30711 48 3.26031 48 3.26031 47.9766C3.26031 42.8825 3.26031 37.7846 3.26031 32.6828C3.26031 31.2162 3.26031 29.7457 3.26031 28.2713C3.26031 27.8617 3.09649 27.0543 3.26031 26.6565C4.16522 24.4722 5.07014 22.284 5.97505 20.092C7.30902 16.878 8.64298 13.664 9.97695 10.45C10.1291 10.0638 10.328 9.06919 10.6673 8.81176C11.1237 8.43731 11.9662 8.27349 12.5045 8.05117C15.7965 6.7094 19.0885 5.36373 22.3805 4.01416C23.5663 3.5305 24.752 3.04684 25.9378 2.56318C26.3356 2.39936 26.4058 2.34085 26.792 2.49297C31.9172 4.59143 37.0424 6.68599 42.1677 8.77666C42.2496 8.80006 42.0741 8.88197 42.0156 8.85857Z" fill="#ABABAB"/>
<path d="M4.22656 32.074H48.6219V33.9696H4.22656V32.074Z" fill="#ABABAB"/>
<path d="M4.25915 33.923C15.4302 33.923 26.6012 33.923 37.7722 33.923C40.5337 33.923 43.2952 33.923 46.0568 33.923C46.7745 33.923 47.4922 33.923 48.2099 33.923C48.3503 33.923 48.4907 33.923 48.6311 33.923C48.5375 33.923 48.5258 33.9698 48.5258 33.7358C48.5258 33.3301 48.5258 32.9284 48.5258 32.5305C48.5258 31.9454 48.4556 32.121 47.8237 32.121C47.0046 32.121 46.1816 32.121 45.3547 32.121C42.4527 32.121 39.5508 32.121 36.6488 32.121C29.1911 32.121 21.7294 32.121 14.2639 32.121C11.6194 32.121 8.97875 32.121 6.34202 32.121C5.71014 32.121 5.07826 32.121 4.44638 32.121C4.10704 32.121 4.31766 32.1327 4.31766 32.0859C4.31766 32.7021 4.31766 33.3223 4.31766 33.9464C4.31766 34.0049 4.13044 34.0283 4.13044 33.9932C4.13044 33.3613 4.13044 32.7294 4.13044 32.0976C4.13044 32.0507 4.22405 32.0273 4.25915 32.0273C7.42635 32.0273 10.5896 32.0273 13.749 32.0273C25.3881 32.0273 37.0272 32.0273 48.6662 32.0273C48.6662 32.0273 48.713 32.0273 48.713 32.0507C48.713 32.6826 48.713 33.3145 48.713 33.9464C48.713 33.9932 48.6194 34.0049 48.5843 34.0049C45.4171 34.0049 42.2538 34.0049 39.0944 34.0049C27.4554 34.0049 15.8163 34.0049 4.17724 34.0049C4.04853 34.0049 4.20065 33.923 4.25915 33.923Z" fill="#ABABAB"/>
<path d="M4.22852 30.1785H48.6239V32.0741H4.22852V30.1785Z" fill="#ABABAB"/>
<path d="M4.23031 32.004C15.4013 32.004 26.5723 32.004 37.7433 32.004C40.5049 32.004 43.2664 32.004 46.028 32.004C46.7456 32.004 47.4633 32.004 48.181 32.004C48.3214 32.004 48.4658 32.004 48.614 32.004C48.5438 32.004 48.5321 32.0625 48.5321 31.8285C48.5321 31.4229 48.5321 31.0172 48.5321 30.6116C48.5321 30.2605 48.731 30.2488 48.4619 30.2488C48.2668 30.2488 48.0679 30.2488 47.8651 30.2488C47.046 30.2488 46.223 30.2488 45.3961 30.2488C42.4941 30.2488 39.5922 30.2488 36.6902 30.2488C29.2325 30.2488 21.7708 30.2488 14.3053 30.2488C11.6607 30.2488 9.01621 30.2488 6.37168 30.2488C5.7476 30.2488 5.11962 30.2488 4.48775 30.2488C4.19521 30.2488 4.32392 30.2839 4.32392 30.202C4.32392 30.8261 4.32392 31.4463 4.32392 32.0625C4.32392 32.1562 4.125 32.1796 4.125 32.0859C4.125 31.4541 4.125 30.8222 4.125 30.1903C4.125 30.1435 4.19521 30.1084 4.23031 30.1084C7.39751 30.1084 10.5647 30.1084 13.7319 30.1084C25.3632 30.1084 36.9983 30.1084 48.6374 30.1084C48.6842 30.1084 48.7193 30.1201 48.7193 30.1786C48.7193 30.8105 48.7193 31.4385 48.7193 32.0625C48.7193 32.1093 48.6608 32.1445 48.6257 32.1445C45.4585 32.1445 42.2913 32.1445 39.1241 32.1445C27.4928 32.1445 15.8577 32.1445 4.21861 32.1445C4.0899 32.1445 4.125 32.004 4.23031 32.004Z" fill="#ABABAB"/>
<path d="M4.22656 33.9697H48.6219V35.8654H4.22656V33.9697Z" fill="#ABABAB"/>
<path d="M4.25915 35.8187C15.4302 35.8187 26.6012 35.8187 37.7722 35.8187C40.5337 35.8187 43.2952 35.8187 46.0568 35.8187C46.7745 35.8187 47.4922 35.8187 48.2099 35.8187C48.3503 35.8187 48.4907 35.8187 48.6311 35.8187C48.5375 35.8187 48.5258 35.8772 48.5258 35.6315C48.5258 35.2259 48.5258 34.8241 48.5258 34.4263C48.5258 33.8412 48.4673 34.0167 47.8237 34.0167C47.0046 34.0167 46.1816 34.0167 45.3547 34.0167C42.4527 34.0167 39.5508 34.0167 36.6488 34.0167C29.1911 34.0167 21.7294 34.0167 14.2639 34.0167C11.6194 34.0167 8.97875 34.0167 6.34202 34.0167C5.71014 34.0167 5.07826 34.0167 4.44638 34.0167C4.10704 34.0167 4.31766 34.0284 4.31766 33.9699C4.31766 34.594 4.31766 35.2181 4.31766 35.8421C4.31766 35.9006 4.13044 35.9358 4.13044 35.8889C4.13044 35.2571 4.13044 34.6252 4.13044 33.9933C4.13044 33.9465 4.22405 33.9231 4.25915 33.9231C7.42635 33.9231 10.5896 33.9231 13.749 33.9231C25.3881 33.9231 37.0272 33.9231 48.6662 33.9231C48.6662 33.9231 48.713 33.9231 48.713 33.9465C48.713 34.5784 48.713 35.2103 48.713 35.8421C48.713 35.8889 48.6194 35.9123 48.5843 35.9123C45.4171 35.9123 42.2538 35.9123 39.0944 35.9123C27.4554 35.9123 15.8163 35.9123 4.17724 35.9123C4.04853 35.9123 4.20065 35.8187 4.25915 35.8187Z" fill="#ABABAB"/>
<path d="M4.31043 26.3872H48.542L48.6239 26.5978V28.2828H4.22852V26.5978L4.31043 26.3872Z" fill="#ABABAB"/>
<path d="M4.32441 26.5863C4.32441 26.832 4.37121 28.2245 4.2659 28.2245C4.36731 28.2245 4.46872 28.2245 4.57014 28.2245C5.18641 28.2245 5.80269 28.2245 6.41897 28.2245C8.86067 28.2245 11.3063 28.2245 13.7558 28.2245C20.8469 28.2245 27.9341 28.2245 35.0174 28.2245C39.5575 28.2245 44.0938 28.2245 48.6262 28.2245C48.5911 28.2245 48.5325 28.2479 48.5325 27.9905C48.5325 27.577 48.5325 27.1636 48.5325 26.7501C48.5325 26.5044 48.556 26.4576 48.3453 26.4576C47.7837 26.4576 47.222 26.4576 46.6603 26.4576C44.1016 26.4576 41.5468 26.4576 38.9959 26.4576C31.5459 26.4576 24.0999 26.4576 16.6578 26.4576C13.6934 26.4576 10.7329 26.4576 7.77634 26.4576C6.91043 26.4576 6.04062 26.4576 5.16691 26.4576C4.94068 26.4576 4.71055 26.4576 4.47653 26.4576C4.19569 26.4576 4.39461 26.4342 4.3127 26.6097C4.2893 26.6682 4.10208 26.6799 4.13718 26.5863C4.16839 26.5161 4.19569 26.4498 4.21909 26.3874C4.2425 26.3406 4.301 26.3289 4.34781 26.3289C7.4526 26.3289 10.5574 26.3289 13.6622 26.3289C25.3012 26.3289 36.9403 26.3289 48.5794 26.3289C48.6028 26.3289 48.6262 26.3406 48.6379 26.364C48.8719 26.9256 48.7198 27.6745 48.7198 28.2713C48.7198 28.3298 48.6379 28.3532 48.5911 28.3532C45.4317 28.3532 42.2684 28.3532 39.1012 28.3532C27.4621 28.3532 15.8269 28.3532 4.19569 28.3532C4.16059 28.3532 4.13718 28.3298 4.13718 28.2947C4.13718 27.733 4.13718 27.1714 4.13718 26.6097C4.13718 26.5278 4.32441 26.4927 4.32441 26.5863Z" fill="#ABABAB"/>
<path d="M4.23047 28.283H48.6258V30.1786H4.23047V28.283Z" fill="#ABABAB"/>
<path d="M4.26739 30.12C15.4384 30.12 26.6055 30.12 37.7687 30.12C40.5302 30.12 43.2918 30.12 46.0533 30.12C46.771 30.12 47.4887 30.12 48.2064 30.12C48.3546 30.12 48.4989 30.12 48.6394 30.12C48.5457 30.12 48.534 30.1668 48.534 29.9328C48.534 29.5271 48.534 29.1254 48.534 28.7275C48.534 28.3999 48.6979 28.3414 48.4287 28.3414C48.2337 28.3414 48.0387 28.3414 47.8437 28.3414C47.0168 28.3414 46.1937 28.3414 45.3746 28.3414C42.4727 28.3414 39.5707 28.3414 36.6688 28.3414C29.2032 28.3414 21.7377 28.3414 14.2721 28.3414C11.6354 28.3414 8.99478 28.3414 6.35025 28.3414C5.71837 28.3414 5.09039 28.3414 4.46631 28.3414C4.12697 28.3414 4.3259 28.3531 4.3259 28.3063C4.3259 28.9304 4.3259 29.5505 4.3259 30.1668C4.3259 30.237 4.13867 30.2721 4.13867 30.1902C4.13867 29.5583 4.13867 28.9265 4.13867 28.2946C4.13867 28.2478 4.23228 28.2244 4.26739 28.2244C7.42678 28.2244 10.5901 28.2244 13.7573 28.2244C25.3963 28.2244 37.0315 28.2244 48.6628 28.2244C48.6979 28.2244 48.7213 28.2361 48.7213 28.2712C48.7213 28.903 48.7213 29.5349 48.7213 30.1668C48.7213 30.2136 48.6277 30.237 48.5925 30.237C45.4254 30.237 42.2621 30.237 39.1027 30.237C27.4636 30.237 15.8284 30.237 4.19718 30.237C4.06846 30.237 4.19718 30.12 4.26739 30.12Z" fill="#ABABAB"/>
<path d="M4.22852 43.4363H48.6239V45.3319H4.22852V43.4363Z" fill="#ABABAB"/>
<path d="M4.23031 45.2616C15.4013 45.2616 26.5723 45.2616 37.7433 45.2616C40.5049 45.2616 43.2664 45.2616 46.028 45.2616C46.7456 45.2616 47.4633 45.2616 48.181 45.2616C48.3214 45.2616 48.4658 45.2616 48.614 45.2616C48.5438 45.2616 48.5321 45.3201 48.5321 45.0861C48.5321 44.6804 48.5321 44.2787 48.5321 43.8808C48.5321 43.5298 48.731 43.5064 48.4619 43.5064C48.259 43.5064 48.0601 43.5064 47.8651 43.5064C47.046 43.5064 46.223 43.5064 45.3961 43.5064C42.4941 43.5064 39.5922 43.5064 36.6902 43.5064C29.2247 43.5064 21.763 43.5064 14.3053 43.5064C11.6607 43.5064 9.01621 43.5064 6.37168 43.5064C5.7476 43.5064 5.11962 43.5064 4.48775 43.5064C4.19521 43.5064 4.32392 43.5298 4.32392 43.4713C4.32392 44.0876 4.32392 44.7078 4.32392 45.3318C4.32392 45.4137 4.125 45.4371 4.125 45.3435C4.125 44.7117 4.125 44.0798 4.125 43.4479C4.125 43.4011 4.19521 43.3777 4.23031 43.3777C7.39751 43.3777 10.5647 43.3777 13.7319 43.3777C25.3632 43.3777 36.9983 43.3777 48.6374 43.3777C48.6725 43.3777 48.7193 43.3894 48.7193 43.4362C48.7193 44.0681 48.7193 44.6999 48.7193 45.3318C48.7193 45.3786 48.6608 45.402 48.614 45.402C45.4546 45.402 42.2913 45.402 39.1241 45.402C27.4928 45.402 15.8577 45.402 4.21861 45.402C4.0899 45.402 4.125 45.2616 4.23031 45.2616Z" fill="#ABABAB"/>
<path d="M5.0965 24.4917H47.76L48.544 26.3873H4.3125L5.0965 24.4917Z" fill="#ABABAB"/>
<path d="M4.34753 26.3522C14.8242 26.3522 25.301 26.3522 35.7777 26.3522C40.0448 26.3522 44.3119 26.3522 48.5791 26.3522C47.9238 26.3522 48.1812 24.5385 47.4791 24.5385C46.8551 24.5385 46.2271 24.5385 45.5952 24.5385C42.9117 24.5385 40.2281 24.5385 37.5446 24.5385C30.1103 24.5385 22.672 24.5385 15.2299 24.5385C12.5464 24.5385 9.86282 24.5385 7.17929 24.5385C6.55521 24.5385 5.92723 24.5385 5.29535 24.5385C4.97941 24.5385 5.17834 24.5268 5.14323 24.5853C4.9014 25.1859 4.65567 25.7827 4.40604 26.3756C4.38264 26.4224 4.19541 26.4458 4.21882 26.4107C4.47625 25.7788 4.73758 25.1469 5.00282 24.5151C5.01452 24.4682 5.09643 24.4565 5.13153 24.4565C7.68245 24.4565 10.2373 24.4565 12.796 24.4565C24.4585 24.4565 36.1248 24.4565 47.7951 24.4565C47.8185 24.4565 47.8419 24.4565 47.8536 24.4682C48.111 25.1001 48.3724 25.732 48.6376 26.3639C48.6493 26.4107 48.5206 26.4341 48.4972 26.4341C45.3924 26.4341 42.2876 26.4341 39.1828 26.4341C27.5437 26.4341 15.9086 26.4341 4.27732 26.4341C4.14861 26.4341 4.30073 26.3522 4.34753 26.3522Z" fill="#ABABAB"/>
<path d="M4.22656 45.332H48.6219V47.099L26.4242 47.0873L4.22656 47.099V45.332Z" fill="#ABABAB"/>
<path d="M4.28274 47.0638C13.6907 47.0521 23.0987 47.0521 32.5184 47.0521C36.2316 47.0521 39.9488 47.056 43.6699 47.0638C44.9804 47.0638 46.2949 47.0638 47.6133 47.0638C47.9331 47.0638 48.253 47.0638 48.5728 47.0638C48.7951 47.0638 48.526 47.0521 48.526 47.0872C48.526 46.7362 48.526 46.3812 48.526 46.0224C48.526 45.2501 48.5962 45.3788 47.8707 45.3788C47.0672 45.3788 46.2637 45.3788 45.4602 45.3788C42.5894 45.3788 39.7148 45.3788 36.8362 45.3788C29.3707 45.3788 21.9051 45.3788 14.4396 45.3788C11.7717 45.3788 9.09984 45.3788 6.42411 45.3788C5.77662 45.3788 5.12524 45.3788 4.46996 45.3788C4.36855 45.3788 4.26713 45.3788 4.16572 45.3788C4.45826 45.3788 4.31784 46.7011 4.31784 47.0755C4.31784 47.134 4.13062 47.1574 4.13062 47.1223C4.13062 46.5372 4.13062 45.9522 4.13062 45.3671C4.13062 45.3086 4.24763 45.2969 4.28274 45.2969C7.44993 45.2969 10.6132 45.2969 13.7726 45.2969C25.4117 45.2969 37.0468 45.2969 48.6781 45.2969C48.6898 45.2969 48.7132 45.2969 48.7132 45.3086C48.7132 45.9015 48.7132 46.4904 48.7132 47.0755C48.7132 47.1223 48.5962 47.134 48.5611 47.134C43.7479 47.134 38.9386 47.134 34.1332 47.134C24.1401 47.1223 14.1471 47.134 4.15402 47.134C4.06041 47.134 4.23593 47.0638 4.28274 47.0638Z" fill="#ABABAB"/>
<g style="mix-blend-mode:multiply" opacity="0.5">
<path d="M48.6278 45.3318V45.9052H4.23242V45.3318H48.6278Z" fill="#ABABAB"/>
<path d="M4.32783 45.3319C4.32783 45.9521 4.16401 45.8351 4.80759 45.8351C5.44727 45.8351 6.08695 45.8351 6.72663 45.8351C9.05912 45.8351 11.3955 45.8351 13.7358 45.8351C20.234 45.8351 26.7322 45.8351 33.2305 45.8351C38.2777 45.8351 43.3249 45.8351 48.3722 45.8351C48.653 45.8351 48.536 45.8351 48.536 45.8234C48.536 45.4957 48.7466 45.4021 48.4658 45.4021C47.9041 45.4021 47.3424 45.4021 46.7808 45.4021C44.2298 45.4021 41.6789 45.4021 39.128 45.4021C27.4967 45.4021 15.8616 45.4021 4.22252 45.4021C4.0938 45.4021 4.12891 45.2617 4.23422 45.2617C7.40142 45.2617 10.5686 45.2617 13.7358 45.2617C25.3671 45.2617 37.0022 45.2617 48.6413 45.2617C48.6881 45.2617 48.7232 45.2851 48.7232 45.3319C48.7232 45.5191 48.7232 45.7064 48.7232 45.8936C48.7232 45.9404 48.6647 45.9755 48.6296 45.9755C45.4624 45.9755 42.2952 45.9755 39.128 45.9755C27.4967 45.9755 15.8616 45.9755 4.22252 45.9755C4.17571 45.9755 4.12891 45.9638 4.12891 45.9053C4.12891 45.7181 4.12891 45.5309 4.12891 45.3436C4.12891 45.25 4.32783 45.2266 4.32783 45.3319Z" fill="#ABABAB"/>
</g>
<path d="M4.23047 37.761H48.6258V39.6566H4.23047V37.761Z" fill="#ABABAB"/>
<path d="M4.26739 39.5983C15.4384 39.5983 26.6055 39.5983 37.7687 39.5983C40.5302 39.5983 43.2918 39.5983 46.0533 39.5983C46.771 39.5983 47.4887 39.5983 48.2064 39.5983C48.3546 39.5983 48.4989 39.5983 48.6394 39.5983C48.5457 39.5983 48.534 39.6451 48.534 39.4111C48.534 39.0054 48.534 38.5997 48.534 38.1941C48.534 37.8782 48.6979 37.8079 48.4287 37.8079C48.2337 37.8079 48.0387 37.8079 47.8437 37.8079C47.0168 37.8079 46.1937 37.8079 45.3746 37.8079C42.4727 37.8079 39.5707 37.8079 36.6688 37.8079C29.2032 37.8079 21.7377 37.8079 14.2721 37.8079C11.6354 37.8079 8.99478 37.8079 6.35025 37.8079C5.71837 37.8079 5.09039 37.8079 4.46631 37.8079C4.12697 37.8079 4.3259 37.8314 4.3259 37.7728C4.3259 38.3969 4.3259 39.021 4.3259 39.6451C4.3259 39.7036 4.13867 39.7504 4.13867 39.6685C4.13867 39.0366 4.13867 38.4047 4.13867 37.7728C4.13867 37.726 4.23228 37.7026 4.26739 37.7026C7.42678 37.7026 10.5901 37.7026 13.7573 37.7026C25.3963 37.7026 37.0315 37.7026 48.6628 37.7026C48.6979 37.7026 48.7213 37.7143 48.7213 37.7494C48.7213 38.3813 48.7213 39.0132 48.7213 39.6451C48.7213 39.6919 48.6277 39.7036 48.5925 39.7036C45.4254 39.7036 42.2621 39.7036 39.1027 39.7036C27.4636 39.7036 15.8284 39.7036 4.19718 39.7036C4.06846 39.7036 4.19718 39.5983 4.26739 39.5983Z" fill="#ABABAB"/>
<path d="M4.22656 39.6567H48.6219V41.5524H4.22656V39.6567Z" fill="#ABABAB"/>
<path d="M4.25915 41.5055C15.4302 41.5055 26.6012 41.5055 37.7722 41.5055C40.5337 41.5055 43.2952 41.5055 46.0568 41.5055C46.7745 41.5055 47.4922 41.5055 48.2099 41.5055C48.3503 41.5055 48.4907 41.5055 48.6311 41.5055C48.5375 41.5055 48.5258 41.564 48.5258 41.3183C48.5258 40.9126 48.5258 40.507 48.5258 40.1013C48.5258 39.528 48.4673 39.7035 47.8354 39.7035C47.0085 39.7035 46.1816 39.7035 45.3547 39.7035C42.4527 39.7035 39.5508 39.7035 36.6488 39.7035C29.1911 39.7035 21.7294 39.7035 14.2639 39.7035C11.6272 39.7035 8.98655 39.7035 6.34202 39.7035C5.71014 39.7035 5.07826 39.7035 4.44638 39.7035C4.10704 39.7035 4.31766 39.7152 4.31766 39.6567C4.31766 40.2807 4.31766 40.9009 4.31766 41.5172C4.31766 41.5874 4.13044 41.6225 4.13044 41.5757C4.13044 40.9438 4.13044 40.312 4.13044 39.6801C4.13044 39.6216 4.22405 39.6099 4.25915 39.6099C7.42635 39.6099 10.5896 39.6099 13.749 39.6099C25.3881 39.6099 37.0233 39.6099 48.6545 39.6099C48.6662 39.6099 48.713 39.6099 48.713 39.6216C48.713 40.2534 48.713 40.8853 48.713 41.5172C48.713 41.5757 48.6194 41.5991 48.5843 41.5991C45.4171 41.5991 42.2538 41.5991 39.0944 41.5991C27.4554 41.5991 15.8163 41.5991 4.17724 41.5991C4.04853 41.5991 4.20065 41.5055 4.25915 41.5055Z" fill="#ABABAB"/>
<path d="M4.23047 35.8652H48.6258V37.7609H4.23047V35.8652Z" fill="#ABABAB"/>
<path d="M4.26739 37.7025C15.4306 37.7025 26.5977 37.7025 37.7687 37.7025C40.5302 37.7025 43.2918 37.7025 46.0533 37.7025C46.771 37.7025 47.4887 37.7025 48.2064 37.7025C48.3546 37.7025 48.4989 37.7025 48.6394 37.7025C48.5457 37.7025 48.534 37.7493 48.534 37.5153C48.534 37.1096 48.534 36.704 48.534 36.2983C48.534 35.9824 48.6979 35.9239 48.4287 35.9239C48.2337 35.9239 48.0387 35.9239 47.8437 35.9239C47.0168 35.9239 46.1937 35.9239 45.3746 35.9239C42.4727 35.9239 39.5707 35.9239 36.6688 35.9239C29.2032 35.9239 21.7416 35.9239 14.2838 35.9239C11.6393 35.9239 8.99478 35.9239 6.35025 35.9239C5.71837 35.9239 5.09039 35.9239 4.46631 35.9239C4.12697 35.9239 4.3259 35.9356 4.3259 35.8888C4.3259 36.5051 4.3259 37.1253 4.3259 37.7493C4.3259 37.8195 4.13867 37.8546 4.13867 37.7727C4.13867 37.1409 4.13867 36.509 4.13867 35.8771C4.13867 35.8186 4.23228 35.8069 4.26739 35.8069C7.42678 35.8069 10.5901 35.8069 13.7573 35.8069C25.3963 35.8069 37.0315 35.8069 48.6628 35.8069C48.6979 35.8069 48.7213 35.8186 48.7213 35.8537C48.7213 36.4856 48.7213 37.1174 48.7213 37.7493C48.7213 37.7961 48.6277 37.8195 48.5925 37.8195C45.4332 37.8195 42.2699 37.8195 39.1027 37.8195C27.4636 37.8195 15.8284 37.8195 4.19718 37.8195C4.06846 37.8195 4.18548 37.7025 4.26739 37.7025Z" fill="#ABABAB"/>
<path d="M4.23047 41.5522H48.6258V43.4362H4.23047V41.5522Z" fill="#ABABAB"/>
<path d="M4.29137 43.401C15.4624 43.401 26.6295 43.401 37.7927 43.401C40.5542 43.401 43.3197 43.401 46.089 43.401C46.8067 43.401 47.5244 43.401 48.2421 43.401C48.3825 43.401 48.5229 43.401 48.6633 43.401C48.5463 43.401 48.5346 43.4595 48.5346 43.2138C48.5346 42.8081 48.5346 42.4025 48.5346 41.9968C48.5346 41.4118 48.4176 41.5873 47.8208 41.5873C46.9939 41.5873 46.167 41.5873 45.3401 41.5873C42.4382 41.5873 39.5362 41.5873 36.6342 41.5873C29.1765 41.5873 21.7149 41.5873 14.2493 41.5873C11.6126 41.5873 8.97196 41.5873 6.32743 41.5873C5.69555 41.5873 5.06367 41.5873 4.43179 41.5873C4.06905 41.5873 4.32648 41.599 4.32648 41.5522C4.32648 42.1763 4.32648 42.7964 4.32648 43.4127C4.32648 43.4712 4.13925 43.4946 4.13925 43.4712C4.13925 42.8393 4.13925 42.2075 4.13925 41.5756C4.13925 41.5171 4.25627 41.5054 4.29137 41.5054C7.45857 41.5054 10.6219 41.5054 13.7813 41.5054C25.4203 41.5054 37.0555 41.5054 48.6867 41.5054C48.6984 41.5054 48.7218 41.5054 48.7218 41.5171C48.7218 42.149 48.7218 42.7808 48.7218 43.4127C48.7218 43.4712 48.6048 43.4829 48.5697 43.4829C45.4025 43.4829 42.2392 43.4829 39.0798 43.4829C27.4408 43.4829 15.8017 43.4829 4.16266 43.4829C4.06905 43.4829 4.25627 43.401 4.29137 43.401Z" fill="#ABABAB"/>
<path d="M27.3897 3.65129H25.4707L26.4302 3.26514L27.3897 3.65129Z" fill="#ABABAB"/>
<path d="M26.4664 3.30016C26.1466 3.43278 25.8267 3.56149 25.5069 3.68631C25.5069 3.66291 25.5069 3.6356 25.5069 3.6044C26.1466 3.6044 26.7863 3.6044 27.4259 3.6044C27.3869 3.6356 27.3479 3.66681 27.3089 3.69801C26.9891 3.56539 26.6692 3.43668 26.3494 3.31186C26.2792 3.27676 26.4547 3.19485 26.5015 3.21825C26.8214 3.35087 27.1412 3.48348 27.461 3.6161C27.543 3.6512 27.3791 3.70971 27.3557 3.70971C26.7161 3.70971 26.0764 3.70971 25.4367 3.70971C25.3431 3.70971 25.3782 3.6512 25.4367 3.6278C25.7565 3.49519 26.0764 3.36257 26.3962 3.22995C26.4781 3.19485 26.5951 3.25335 26.4664 3.30016Z" fill="#ABABAB"/>
<path d="M16.1885 7.44263H36.666L41.2998 9.33826H11.543L16.1885 7.44263Z" fill="#ABABAB"/>
<path d="M11.5913 9.29163C21.4907 9.29163 31.3902 9.29163 41.2896 9.29163C41.43 9.29163 41.2077 9.37354 41.1258 9.33844C40.8762 9.23703 40.6304 9.13561 40.3886 9.0342C39.5851 8.70656 38.7855 8.38282 37.9898 8.06298C37.2058 7.73534 36.7612 7.48961 35.9889 7.48961C32.9465 7.48961 29.9002 7.48961 26.85 7.48961C23.6282 7.48961 20.4064 7.48961 17.1846 7.48961C16.3889 7.48961 16.2017 7.48961 15.5347 7.75874C14.2163 8.29701 12.898 8.83528 11.5796 9.37354C11.5094 9.40865 11.3924 9.36184 11.5094 9.30334C11.5484 9.29553 11.5874 9.28383 11.6264 9.26823C13.405 8.53104 15.2071 7.396 17.1612 7.396C20.3362 7.396 23.5151 7.396 26.6979 7.396C29.7871 7.396 32.8802 7.396 35.9772 7.396C36.5973 7.396 36.8431 7.4428 37.4281 7.68853C38.7465 8.2268 40.0649 8.76507 41.3832 9.30334C41.4651 9.32674 41.2896 9.38525 41.2662 9.38525C31.3512 9.38525 21.4322 9.38525 11.5094 9.38525C11.3807 9.38525 11.5211 9.29163 11.5913 9.29163Z" fill="#ABABAB"/>
<path d="M11.5376 9.33813H41.2945L41.5168 9.43175L42.2657 11.2338H10.5781L11.327 9.43175L11.5376 9.33813Z" fill="#ABABAB"/>
<path d="M11.4165 9.42022C11.1981 9.93508 10.9835 10.4538 10.7729 10.9765C10.6793 11.1871 10.5272 11.1871 10.7495 11.1871C16.452 11.1871 22.1506 11.1871 27.8453 11.1871C31.2934 11.1871 34.7414 11.1871 38.1894 11.1871C39.2426 11.1871 40.2996 11.1871 41.3605 11.1871C41.6258 11.1871 41.891 11.1871 42.1562 11.1871C42.1952 11.1871 42.2381 11.1871 42.285 11.1871C42.0392 11.1871 42.0392 10.9531 41.9222 10.6606C41.5127 9.70105 41.5478 9.39682 40.5882 9.39682C39.5819 9.39682 38.5756 9.39682 37.5693 9.39682C34.1134 9.39682 30.6576 9.39682 27.2018 9.39682C23.5899 9.39682 19.9781 9.39682 16.3662 9.39682C15.1805 9.39682 13.9908 9.39682 12.7973 9.39682C12.3409 9.39682 11.7792 9.2915 11.358 9.46703C11.2761 9.50213 11.159 9.44362 11.2878 9.38512C11.4984 9.3032 11.592 9.2915 11.8143 9.2915C17.8133 9.2915 23.8122 9.2915 29.8112 9.2915C32.955 9.2915 36.0949 9.2915 39.2309 9.2915C39.9018 9.2915 40.5726 9.2915 41.2435 9.2915C41.9222 9.2915 42.1445 10.7191 42.3552 11.2105C42.3786 11.2573 42.2499 11.2925 42.2264 11.2925C42.2108 11.2925 42.1952 11.2925 42.1796 11.2925C31.6327 11.2925 21.0858 11.2925 10.5389 11.2925C10.5155 11.2925 10.4687 11.2808 10.4804 11.2456C10.73 10.645 10.9796 10.0443 11.2293 9.44362C11.2527 9.37341 11.4399 9.36171 11.4165 9.42022Z" fill="#ABABAB"/>
<path d="M32.0157 5.54688L36.6612 7.44251H16.1836L20.8174 5.54688H32.0157Z" fill="#ABABAB"/>
<path d="M20.8605 5.59363C20.0492 5.92127 19.2379 6.24891 18.4266 6.57656C17.7947 6.83399 16.7182 7.39566 16.2267 7.39566C17.4125 7.39566 18.5943 7.39566 19.7723 7.39566C23.4309 7.39566 27.0896 7.39566 30.7482 7.39566C32.2226 7.39566 33.697 7.39566 35.1714 7.39566C35.5927 7.39566 36.01 7.39566 36.4235 7.39566C36.7979 7.39566 36.6224 7.51267 36.3884 7.41906C34.9686 6.83399 33.5488 6.25282 32.129 5.67554C31.462 5.40641 30.2451 5.60533 29.4845 5.60533C26.5825 5.60533 23.6806 5.60533 20.7786 5.60533C20.6499 5.60533 20.7903 5.50002 20.8605 5.50002C24.0043 5.50002 27.152 5.50002 30.3036 5.50002C31.1461 5.50002 31.8599 5.40641 32.6322 5.72235C33.9974 6.28402 35.3625 6.84179 36.7277 7.39566C36.8213 7.43076 36.6458 7.50097 36.6224 7.50097C29.7965 7.50097 22.9707 7.50097 16.1448 7.50097C16.0629 7.50097 16.0863 7.43076 16.1448 7.40736C17.6894 6.77548 19.234 6.1436 20.7786 5.51172C20.8605 5.47662 20.9775 5.53513 20.8605 5.59363Z" fill="#ABABAB"/>
<path d="M32.0147 5.54701H20.8164L25.4619 3.65137H27.3809L32.0147 5.54701Z" fill="#ABABAB"/>
<path d="M27.3421 3.70982C26.4645 3.70982 25.7156 3.61621 24.9551 3.92045C23.8161 4.38071 22.6772 4.84487 21.5382 5.31293C21.351 5.39094 21.1599 5.46895 20.9648 5.54695C20.8361 5.60546 20.8127 5.48845 20.9063 5.48845C21.1638 5.48845 21.4212 5.48845 21.6786 5.48845C22.8098 5.48845 23.937 5.48845 25.0604 5.48845C27.3382 5.48845 29.6161 5.48845 31.894 5.48845C32.1866 5.48845 31.7536 5.52355 31.5313 5.42994C31.0008 5.21151 30.4703 4.99308 29.9399 4.77466C29.0584 4.42361 28.1808 4.06867 27.307 3.70982C27.2134 3.67472 27.389 3.58111 27.4475 3.60451C28.9999 4.23639 30.5484 4.86827 32.0929 5.50015C32.1749 5.53525 32.011 5.60546 31.9759 5.60546C28.2471 5.60546 24.5143 5.60546 20.7776 5.60546C20.6957 5.60546 20.7191 5.53525 20.7776 5.51185C22.096 4.97358 23.4144 4.43532 24.7327 3.89705C25.6454 3.5226 26.4177 3.60451 27.4124 3.60451C27.5411 3.60451 27.4124 3.70982 27.3421 3.70982Z" fill="#ABABAB"/>
<path d="M10.5848 11.2339H42.2724L43.0564 13.1295H9.80078L10.5848 11.2339Z" fill="#ABABAB"/>
<path d="M9.83972 13.0709C11.0021 13.0709 12.1644 13.0709 13.3268 13.0709C20.4022 13.0709 27.4738 13.0709 34.5415 13.0709C37.0924 13.0709 39.6434 13.0709 42.1943 13.0709C42.4517 13.0709 42.7052 13.0709 42.9549 13.0709C43.0017 13.0709 43.0446 13.0709 43.0836 13.0709C42.8496 13.0709 42.8496 12.8954 42.7325 12.6029C42.6389 12.3805 42.2645 11.2923 42.1826 11.2923C41.9954 11.2923 41.8042 11.2923 41.6092 11.2923C35.384 11.2923 29.1549 11.2923 22.922 11.2923C19.7158 11.2923 16.5096 11.2923 13.3034 11.2923C12.4921 11.2923 11.6808 11.2923 10.8694 11.2923C10.7836 11.2923 10.6978 11.2923 10.612 11.2923C10.4833 11.2923 10.7056 11.1636 10.6354 11.3274C10.3936 11.9281 10.1479 12.5249 9.89823 13.1177C9.87482 13.1762 9.6876 13.1996 9.711 13.1411C9.96844 12.5093 10.2298 11.8774 10.495 11.2455C10.5184 11.1987 10.5769 11.1753 10.6237 11.1753C10.6393 11.1753 10.651 11.1753 10.6588 11.1753C21.2135 11.1753 31.7644 11.1753 42.3113 11.1753C42.3347 11.1753 42.3581 11.187 42.3698 11.2104C42.6272 11.8423 42.8886 12.4742 43.1538 13.106C43.1772 13.1528 43.0485 13.1879 43.0251 13.1879C42.8847 13.1879 42.7481 13.1879 42.6155 13.1879C31.663 13.1879 20.7143 13.1879 9.76951 13.1879C9.6408 13.1879 9.76951 13.0709 9.83972 13.0709Z" fill="#ABABAB"/>
<path d="M7.4422 18.8164H45.4018L46.1858 20.712H6.6582L7.4422 18.8164Z" fill="#ABABAB"/>
<path d="M6.69167 20.6417C12.9715 20.6417 19.2473 20.6417 25.5193 20.6417C31.8771 20.6417 38.2349 20.6417 44.5927 20.6417C45.1154 20.6417 45.6342 20.6417 46.149 20.6417C46.3011 20.6417 46.0905 20.7471 46.0437 20.63C45.9033 20.279 45.759 19.9319 45.6108 19.5886C45.5171 19.3429 45.4235 18.8748 45.2714 18.8748C43.5552 18.8748 41.8351 18.8748 40.1111 18.8748C32.8874 18.8748 25.6637 18.8748 18.4399 18.8748C15.5458 18.8748 12.6516 18.8748 9.75746 18.8748C9.06317 18.8748 8.36888 18.8748 7.6746 18.8748C7.34695 18.8748 7.51077 18.8631 7.48737 18.9216C7.23774 19.5223 6.99201 20.1191 6.75018 20.712C6.71508 20.7822 6.52785 20.7939 6.56296 20.7003C6.82819 20.0684 7.08952 19.4365 7.34695 18.8046C7.37036 18.7695 7.44057 18.7578 7.47567 18.7578C8.56001 18.7578 9.64434 18.7578 10.7287 18.7578C22.2975 18.7578 33.8664 18.7578 45.4352 18.7578C45.4586 18.7578 45.482 18.7695 45.4937 18.7929C45.7512 19.417 46.0125 20.045 46.2777 20.6769C46.3011 20.7471 46.1841 20.7705 46.149 20.7705C44.6122 20.7705 43.0793 20.7705 41.5503 20.7705C29.9035 20.7705 18.2605 20.7705 6.62146 20.7705C6.49275 20.7705 6.60976 20.6417 6.69167 20.6417Z" fill="#ABABAB"/>
<path d="M5.8797 22.5959H46.9753L47.7593 24.4916H5.0957L5.8797 22.5959Z" fill="#ABABAB"/>
<path d="M5.13269 24.4447C14.2442 24.4447 23.3558 24.4447 32.4673 24.4447C37.5068 24.4447 42.5501 24.4447 47.5973 24.4447C47.925 24.4447 47.6675 24.5266 47.5739 24.2926C47.4803 24.0937 46.942 22.6544 46.9303 22.6544C46.5325 22.6544 46.1346 22.6544 45.7368 22.6544C43.3185 22.6544 40.9041 22.6544 38.4936 22.6544C31.0904 22.6544 23.6912 22.6544 16.2959 22.6544C13.5421 22.6544 10.7884 22.6544 8.03465 22.6544C7.38717 22.6544 6.73969 22.6544 6.09221 22.6544C5.77627 22.6544 5.95179 22.6427 5.92839 22.6895C5.68656 23.2902 5.44083 23.8869 5.1912 24.4798C5.16779 24.55 4.98057 24.5734 5.00397 24.5032C5.26141 23.8713 5.52274 23.2395 5.78797 22.6076C5.81137 22.5608 5.86988 22.5491 5.91669 22.5491C7.94494 22.5491 9.9693 22.5491 11.9897 22.5491C23.6678 22.5491 35.342 22.5491 47.0122 22.5491C47.0356 22.5491 47.059 22.5491 47.0707 22.5725C47.3282 23.2044 47.5895 23.8362 47.8547 24.4681C47.8782 24.5266 47.7494 24.55 47.726 24.55C45.1751 24.55 42.6242 24.55 40.0733 24.55C28.403 24.55 16.7327 24.55 5.06248 24.55C4.93376 24.55 5.06248 24.4447 5.13269 24.4447Z" fill="#ABABAB"/>
<path d="M9.79572 13.1296H43.0513L43.8353 15.0253H9.01172L9.79572 13.1296Z" fill="#ABABAB"/>
<path d="M9.02179 14.955C11.2607 14.955 13.4995 14.955 15.7384 14.955C22.9933 14.955 30.2482 14.955 37.5032 14.955C39.5314 14.955 41.5636 14.955 43.5996 14.955C43.9507 14.955 43.74 15.0486 43.6464 14.8262C43.5411 14.5805 42.9794 13.1997 43.0262 13.1997C42.5426 13.1997 42.0628 13.1997 41.587 13.1997C34.9951 13.1997 28.3994 13.1997 21.7998 13.1997C18.6794 13.1997 15.5551 13.1997 12.4269 13.1997C11.6468 13.1997 10.8667 13.1997 10.0866 13.1997C10.0008 13.1997 9.9189 13.1997 9.84089 13.1997C9.72387 13.1997 9.8994 13.0944 9.84089 13.2466C9.59126 13.8394 9.34553 14.4362 9.1037 15.0369C9.06859 15.1071 8.88137 15.1071 8.91647 15.0135C9.18171 14.3816 9.44304 13.7497 9.70047 13.1178C9.72387 13.0827 9.77068 13.0593 9.80578 13.0593C9.9384 13.0593 10.0749 13.0593 10.2153 13.0593C21.1601 13.0593 32.1088 13.0593 43.0614 13.0593C43.0965 13.0593 43.1316 13.071 43.1433 13.1061C43.4007 13.738 43.662 14.3699 43.9273 15.0018C43.9507 15.0486 43.8571 15.0837 43.8219 15.0837C43.4475 15.0837 43.077 15.0837 42.7103 15.0837C31.4769 15.0837 20.2396 15.0837 8.99838 15.0837C8.86967 15.0837 8.91647 14.955 9.02179 14.955Z" fill="#ABABAB"/>
<path d="M6.659 20.7122H46.1866L46.9706 22.5961H5.875L6.659 20.7122Z" fill="#ABABAB"/>
<path d="M5.88702 22.5375C13.5866 22.5375 21.2901 22.5375 28.9974 22.5375C34.7467 22.5375 40.4922 22.5375 46.2337 22.5375C46.4443 22.5375 46.6549 22.5375 46.8656 22.5375C46.9046 22.5375 46.9397 22.5375 46.9709 22.5375C46.7602 22.5375 46.7602 22.3503 46.6432 22.0694C46.4716 21.6638 46.3 21.2542 46.1284 20.8408C46.0699 20.6887 46.222 20.7706 46.1284 20.7706C45.9723 20.7706 45.8202 20.7706 45.672 20.7706C43.5735 20.7706 41.4751 20.7706 39.3766 20.7706C32.0437 20.7706 24.7147 20.7706 17.3896 20.7706C14.5656 20.7706 11.7417 20.7706 8.9177 20.7706C8.24682 20.7706 7.57593 20.7706 6.90505 20.7706C6.62421 20.7706 6.72953 20.7589 6.70612 20.8174C6.45649 21.418 6.21076 22.0148 5.96893 22.6077C5.93383 22.6896 5.7466 22.6896 5.78171 22.596C6.04694 21.9641 6.30827 21.3322 6.56571 20.7004C6.58911 20.6652 6.63591 20.6418 6.67102 20.6418C8.20001 20.6418 9.7329 20.6418 11.2697 20.6418C22.9088 20.6418 34.5517 20.6418 46.1986 20.6418C46.2337 20.6418 46.2688 20.6418 46.2805 20.677C46.5379 21.3088 46.7992 21.9407 47.0645 22.5726C47.0879 22.6311 46.9943 22.6662 46.9592 22.6662C44.9387 22.6662 42.9144 22.6662 40.8861 22.6662C29.2158 22.6662 17.5417 22.6662 5.86362 22.6662C5.7349 22.6662 5.78171 22.5375 5.88702 22.5375Z" fill="#ABABAB"/>
<path d="M8.22931 16.9207H44.6209L45.4049 18.8163H7.44531L8.22931 16.9207Z" fill="#ABABAB"/>
<path d="M7.47644 18.7577C12.3364 18.7577 17.1965 18.7577 22.0565 18.7577C28.8979 18.7577 35.7394 18.7577 42.5808 18.7577C43.3765 18.7577 44.1722 18.7577 44.9679 18.7577C45.1162 18.7577 45.2683 18.7577 45.4243 18.7577C45.1201 18.7577 44.8275 17.6929 44.6754 17.3184C44.4648 16.827 44.3127 16.9674 43.6691 16.9674C42.7018 16.9674 41.7344 16.9674 40.7671 16.9674C33.6916 16.9674 26.6161 16.9674 19.5407 16.9674C16.5685 16.9674 13.6002 16.9674 10.6358 16.9674C9.91034 16.9674 9.18875 16.9674 8.47106 16.9674C8.13172 16.9674 8.29554 16.9557 8.27214 17.0142C8.03031 17.6071 7.78458 18.2038 7.53495 18.8045C7.51154 18.863 7.32432 18.8864 7.34772 18.8279C7.60516 18.196 7.86649 17.5641 8.13172 16.9323C8.15512 16.8855 8.21363 16.8621 8.26044 16.8621C8.95472 16.8621 9.64901 16.8621 10.3433 16.8621C21.7795 16.8621 33.2158 16.8621 44.652 16.8621C44.6754 16.8621 44.6988 16.8738 44.7105 16.8972C44.9679 17.529 45.2293 18.1609 45.4945 18.7928C45.5179 18.8396 45.3892 18.863 45.3658 18.863C44.2737 18.863 43.1854 18.863 42.1011 18.863C30.54 18.863 18.9751 18.863 7.40623 18.863C7.27751 18.863 7.40623 18.7577 7.47644 18.7577Z" fill="#ABABAB"/>
<path d="M9.01642 15.0251H43.84L44.624 16.9208H8.23242L9.01642 15.0251Z" fill="#ABABAB"/>
<path d="M8.29526 16.8856C11.7901 16.8856 15.2888 16.8856 18.7915 16.8856C25.945 16.8856 33.0985 16.8856 40.252 16.8856C41.7342 16.8856 43.2124 16.8856 44.6868 16.8856C43.973 16.8856 44.3124 15.0602 43.4933 15.0602C42.7444 15.0602 41.9955 15.0602 41.2466 15.0602C34.3739 15.0602 27.5052 15.0602 20.6403 15.0602C17.5901 15.0602 14.5399 15.0602 11.4898 15.0602C10.7409 15.0602 9.99197 15.0602 9.24308 15.0602C8.86863 15.0602 9.09096 15.0485 9.06755 15.107C8.82572 15.7077 8.57999 16.3045 8.33036 16.8973C8.30696 16.9441 8.13144 16.9675 8.14314 16.9324C8.40837 16.3006 8.6697 15.6687 8.92714 15.0368C8.95054 15.0017 9.04415 14.99 9.07925 14.99C9.4537 14.99 9.82425 14.99 10.1909 14.99C21.4321 14.99 32.6694 14.99 43.9028 14.99C43.9145 14.99 43.9262 14.99 43.9379 15.0017C44.1954 15.6336 44.4567 16.2655 44.7219 16.8973C44.7336 16.9324 44.5815 16.9558 44.5698 16.9558C43.8755 16.9558 43.1812 16.9558 42.4869 16.9558C31.0507 16.9558 19.6145 16.9558 8.17824 16.9558C8.08463 16.9558 8.26015 16.8856 8.29526 16.8856Z" fill="#ABABAB"/>
<g style="mix-blend-mode:multiply" opacity="0.5">
<path d="M48.6297 43.4363V44.0097H4.23438V43.4363H48.6297Z" fill="#ABABAB"/>
<path d="M4.33341 43.4128C4.33341 44.0681 4.21639 43.9628 4.83657 43.9628C5.48405 43.9628 6.12763 43.9628 6.76731 43.9628C9.0998 43.9628 11.4323 43.9628 13.7648 43.9628C20.2708 43.9628 26.7729 43.9628 33.2711 43.9628C38.3184 43.9628 43.3617 43.9628 48.4011 43.9628C48.7405 43.9628 48.5415 43.9628 48.5415 43.9394C48.5415 43.6468 48.7171 43.4947 48.4362 43.4947C47.8746 43.4947 47.3129 43.4947 46.7512 43.4947C44.2003 43.4947 41.6533 43.4947 39.1102 43.4947C27.4711 43.4947 15.832 43.4947 4.19299 43.4947C4.06427 43.4947 4.20469 43.3894 4.2749 43.3894C7.44209 43.3894 10.6054 43.3894 13.7648 43.3894C25.4038 43.3894 37.039 43.3894 48.6703 43.3894C48.682 43.3894 48.7288 43.3894 48.7288 43.4128C48.7288 43.6 48.7288 43.7912 48.7288 43.9862C48.7288 44.033 48.6352 44.0564 48.6001 44.0564C45.4329 44.0564 42.2696 44.0564 39.1102 44.0564C27.4711 44.0564 15.832 44.0564 4.19299 44.0564C4.18129 44.0564 4.14618 44.0564 4.14618 44.033C4.14618 43.8458 4.14618 43.6585 4.14618 43.4713C4.14618 43.4011 4.33341 43.366 4.33341 43.4128Z" fill="#ABABAB"/>
</g>
<g style="mix-blend-mode:multiply" opacity="0.5">
<path d="M48.6258 41.5054V42.067H4.23047V41.5054H48.6258Z" fill="#ABABAB"/>
<path d="M4.3259 41.4937C4.3259 42.1256 4.20888 42.0085 4.82906 42.0085C5.46874 42.0085 6.11232 42.0085 6.7598 42.0085C9.09229 42.0085 11.4248 42.0085 13.7573 42.0085C20.2555 42.0085 26.7576 42.0085 33.2636 42.0085C38.3031 42.0085 43.3464 42.0085 48.3936 42.0085C48.733 42.0085 48.534 42.0202 48.534 41.9968C48.534 41.6926 48.7096 41.5639 48.4287 41.5639C47.8671 41.5639 47.3093 41.5639 46.7554 41.5639C44.2045 41.5639 41.6536 41.5639 39.1027 41.5639C27.4636 41.5639 15.8284 41.5639 4.19718 41.5639C4.06846 41.5639 4.18548 41.4469 4.26739 41.4469C7.42678 41.4469 10.5901 41.4469 13.7573 41.4469C25.3963 41.4469 37.0315 41.4469 48.6628 41.4469C48.6979 41.4469 48.7213 41.4586 48.7213 41.4937C48.7213 41.6809 48.7213 41.872 48.7213 42.067C48.7213 42.1139 48.6277 42.1256 48.5925 42.1256C45.4332 42.1256 42.2699 42.1256 39.1027 42.1256C27.4636 42.1256 15.8284 42.1256 4.19718 42.1256C4.16207 42.1256 4.13867 42.1139 4.13867 42.0787C4.13867 41.8915 4.13867 41.7043 4.13867 41.5171C4.13867 41.4469 4.3259 41.4118 4.3259 41.4937Z" fill="#ABABAB"/>
</g>
<g style="mix-blend-mode:multiply" opacity="0.5">
<path d="M48.6278 39.6799V40.2416H4.23242V39.6799H48.6278Z" fill="#ABABAB"/>
<path d="M4.32783 39.6682C4.32783 40.3001 4.21082 40.1831 4.83099 40.1831C5.47067 40.1831 6.11426 40.1831 6.76174 40.1831C9.09423 40.1831 11.4267 40.1831 13.7592 40.1831C20.2574 40.1831 26.7595 40.1831 33.2656 40.1831C38.305 40.1831 43.3483 40.1831 48.3956 40.1831C48.7232 40.1831 48.536 40.1948 48.536 40.1714C48.536 39.8554 48.7115 39.7384 48.4424 39.7384C47.8807 39.7384 47.319 39.7384 46.7574 39.7384C44.2064 39.7384 41.6555 39.7384 39.1046 39.7384C27.4655 39.7384 15.8304 39.7384 4.19911 39.7384C4.0704 39.7384 4.17571 39.6214 4.26932 39.6214C7.42872 39.6214 10.592 39.6214 13.7592 39.6214C25.3905 39.6214 37.0256 39.6214 48.6647 39.6214C48.6998 39.6214 48.7232 39.6331 48.7232 39.6682C48.7232 39.8554 48.7232 40.0466 48.7232 40.2416C48.7232 40.2884 48.6413 40.3118 48.5945 40.3118C45.4351 40.3118 42.2718 40.3118 39.1046 40.3118C27.4655 40.3118 15.8304 40.3118 4.19911 40.3118C4.16401 40.3118 4.12891 40.2884 4.12891 40.2533C4.12891 40.0661 4.12891 39.8788 4.12891 39.6916C4.12891 39.6097 4.32783 39.5746 4.32783 39.6682Z" fill="#ABABAB"/>
</g>
<g style="mix-blend-mode:multiply" opacity="0.5">
<path d="M48.62 37.8196V38.3812H4.22461V37.8196H48.62Z" fill="#ABABAB"/>
<path d="M4.31571 37.7961C4.31571 38.4514 4.19869 38.3344 4.81887 38.3344C5.46635 38.3344 6.10993 38.3344 6.74961 38.3344C9.08211 38.3344 11.4146 38.3344 13.7471 38.3344C20.2531 38.3344 26.7552 38.3344 33.2534 38.3344C38.3007 38.3344 43.3479 38.3344 48.3951 38.3344C48.7228 38.3344 48.5239 38.3461 48.5239 38.3227C48.5239 38.0301 48.6994 37.8663 48.4185 37.8663C47.8569 37.8663 47.2952 37.8663 46.7335 37.8663C44.1826 37.8663 41.6356 37.8663 39.0925 37.8663C27.4534 37.8663 15.8144 37.8663 4.17529 37.8663C4.04658 37.8663 4.19869 37.7727 4.2572 37.7727C7.4244 37.7727 10.5877 37.7727 13.7471 37.7727C25.3862 37.7727 37.0252 37.7727 48.6643 37.7727C48.6643 37.7727 48.7111 37.7727 48.7111 37.7961C48.7111 37.9833 48.7111 38.1706 48.7111 38.3578C48.7111 38.4046 48.6175 38.428 48.5824 38.428C45.4152 38.428 42.2519 38.428 39.0925 38.428C27.4534 38.428 15.8144 38.428 4.17529 38.428C4.16359 38.428 4.12849 38.428 4.12849 38.4046C4.12849 38.2174 4.12849 38.0301 4.12849 37.8429C4.12849 37.7844 4.31571 37.7493 4.31571 37.7961Z" fill="#ABABAB"/>
</g>
<g style="mix-blend-mode:multiply" opacity="0.5">
<path d="M48.6258 35.8655V36.4272H4.23047V35.8655H48.6258Z" fill="#ABABAB"/>
<path d="M4.3259 35.8538C4.3259 36.4857 4.22058 36.3686 4.82906 36.3686C5.46874 36.3686 6.11232 36.3686 6.7598 36.3686C9.09229 36.3686 11.4248 36.3686 13.7573 36.3686C20.2555 36.3686 26.7576 36.3686 33.2636 36.3686C38.3109 36.3686 43.3542 36.3686 48.3936 36.3686C48.733 36.3686 48.534 36.3803 48.534 36.3569C48.534 36.0527 48.7096 35.924 48.4287 35.924C47.8671 35.924 47.3054 35.924 46.7437 35.924C44.2006 35.924 41.6536 35.924 39.1027 35.924C27.4636 35.924 15.8284 35.924 4.19718 35.924C4.06846 35.924 4.19718 35.807 4.26739 35.807C7.42678 35.807 10.5901 35.807 13.7573 35.807C25.3963 35.807 37.0315 35.807 48.6628 35.807C48.6979 35.807 48.7213 35.8187 48.7213 35.8538C48.7213 36.041 48.7213 36.2282 48.7213 36.4155C48.7213 36.4623 48.6277 36.4857 48.5925 36.4857C45.4254 36.4857 42.2621 36.4857 39.1027 36.4857C27.4636 36.4857 15.8284 36.4857 4.19718 36.4857C4.16207 36.4857 4.13867 36.474 4.13867 36.4389C4.13867 36.2516 4.13867 36.0644 4.13867 35.8772C4.13867 35.807 4.3259 35.7719 4.3259 35.8538Z" fill="#ABABAB"/>
</g>
<g style="mix-blend-mode:multiply" opacity="0.5">
<path d="M48.6278 33.97V34.5316H4.23242V33.97H48.6278Z" fill="#ABABAB"/>
<path d="M4.32783 33.9583C4.32783 34.5785 4.16401 34.4731 4.80759 34.4731C5.44727 34.4731 6.08695 34.4731 6.72663 34.4731C9.06693 34.4731 11.4033 34.4731 13.7358 34.4731C20.234 34.4731 26.7322 34.4731 33.2305 34.4731C38.2777 34.4731 43.3249 34.4731 48.3722 34.4731C48.653 34.4731 48.536 34.4731 48.536 34.4497C48.536 34.1338 48.7466 34.0402 48.4658 34.0402C47.9041 34.0402 47.3424 34.0402 46.7808 34.0402C44.2298 34.0402 41.6789 34.0402 39.128 34.0402C27.4967 34.0402 15.8616 34.0402 4.22252 34.0402C4.0938 34.0402 4.12891 33.8998 4.23422 33.8998C7.40142 33.8998 10.5686 33.8998 13.7358 33.8998C25.3671 33.8998 37.0022 33.8998 48.6413 33.8998C48.6764 33.8998 48.7232 33.9115 48.7232 33.9583C48.7232 34.1455 48.7232 34.3366 48.7232 34.5316C48.7232 34.5668 48.6647 34.6019 48.6179 34.6019C45.4585 34.6019 42.2952 34.6019 39.128 34.6019C27.4967 34.6019 15.8616 34.6019 4.22252 34.6019C4.17571 34.6019 4.12891 34.5902 4.12891 34.5433C4.12891 34.3561 4.12891 34.1689 4.12891 33.9817C4.12891 33.8881 4.32783 33.8647 4.32783 33.9583Z" fill="#ABABAB"/>
</g>
<g style="mix-blend-mode:multiply" opacity="0.5">
<path d="M48.62 32.051V32.6244H4.22461V32.051H48.62Z" fill="#ABABAB"/>
<path d="M4.31571 32.0276C4.31571 32.6828 4.19869 32.5775 4.81887 32.5775C5.46635 32.5775 6.10993 32.5775 6.74961 32.5775C9.08211 32.5775 11.4146 32.5775 13.7471 32.5775C20.2531 32.5775 26.7552 32.5775 33.2534 32.5775C38.3007 32.5775 43.3479 32.5775 48.3951 32.5775C48.7228 32.5775 48.5239 32.5775 48.5239 32.5541C48.5239 32.2616 48.6994 32.0978 48.4185 32.0978C47.8569 32.0978 47.2952 32.0978 46.7335 32.0978C44.1826 32.0978 41.6356 32.0978 39.0925 32.0978C27.4534 32.0978 15.8144 32.0978 4.17529 32.0978C4.04658 32.0978 4.19869 32.0042 4.2572 32.0042C7.4244 32.0042 10.5877 32.0042 13.7471 32.0042C25.3862 32.0042 37.0213 32.0042 48.6526 32.0042C48.6643 32.0042 48.7111 32.0042 48.7111 32.0276C48.7111 32.2148 48.7111 32.402 48.7111 32.5892C48.7111 32.6477 48.6175 32.6711 48.5824 32.6711C45.4152 32.6711 42.2519 32.6711 39.0925 32.6711C27.4534 32.6711 15.8144 32.6711 4.17529 32.6711C4.16359 32.6711 4.12849 32.6711 4.12849 32.6477C4.12849 32.4605 4.12849 32.2694 4.12849 32.0744C4.12849 32.0159 4.31571 31.9807 4.31571 32.0276Z" fill="#ABABAB"/>
</g>
<g style="mix-blend-mode:multiply" opacity="0.5">
<path d="M48.618 30.1199V30.6815H4.22266V30.1199H48.618Z" fill="#ABABAB"/>
<path d="M4.31264 30.0964C4.31264 30.74 4.19563 30.6347 4.81581 30.6347C5.45549 30.6347 6.09907 30.6347 6.74655 30.6347C9.07904 30.6347 11.4115 30.6347 13.744 30.6347C20.2422 30.6347 26.7444 30.6347 33.2504 30.6347C38.2976 30.6347 43.3409 30.6347 48.3804 30.6347C48.7197 30.6347 48.5208 30.6347 48.5208 30.623C48.5208 30.3187 48.6963 30.1666 48.4155 30.1666C47.8538 30.1666 47.2921 30.1666 46.7305 30.1666C44.1873 30.1666 41.6403 30.1666 39.0894 30.1666C27.4503 30.1666 15.8113 30.1666 4.17223 30.1666C4.05521 30.1666 4.18393 30.0613 4.25413 30.0613C7.41353 30.0613 10.5768 30.0613 13.744 30.0613C25.3831 30.0613 37.0182 30.0613 48.6495 30.0613C48.6729 30.0613 48.708 30.073 48.708 30.0964C48.708 30.2836 48.708 30.4708 48.708 30.6581C48.708 30.7166 48.6261 30.74 48.5793 30.74C45.4121 30.74 42.2488 30.74 39.0894 30.74C27.4503 30.74 15.8113 30.74 4.17223 30.74C4.16052 30.74 4.12542 30.7283 4.12542 30.7049C4.12542 30.5176 4.12542 30.3304 4.12542 30.1432C4.12542 30.073 4.31264 30.0379 4.31264 30.0964Z" fill="#ABABAB"/>
</g>
<g style="mix-blend-mode:multiply" opacity="0.5">
<path d="M48.62 28.3179V28.8912H4.22461V28.3179H48.62Z" fill="#ABABAB"/>
<path d="M4.31571 28.2945C4.31571 28.9498 4.19869 28.8445 4.81887 28.8445C5.46635 28.8445 6.10993 28.8445 6.74961 28.8445C9.08211 28.8445 11.4146 28.8445 13.7471 28.8445C20.2531 28.8445 26.7552 28.8445 33.2534 28.8445C38.3007 28.8445 43.3479 28.8445 48.3951 28.8445C48.7345 28.8445 48.5239 28.8562 48.5239 28.8211C48.5239 28.5286 48.6994 28.3647 48.4185 28.3647C47.8569 28.3647 47.2952 28.3647 46.7335 28.3647C44.1826 28.3647 41.6356 28.3647 39.0925 28.3647C27.4534 28.3647 15.8144 28.3647 4.17529 28.3647C4.04658 28.3647 4.19869 28.2828 4.2572 28.2828C7.4244 28.2828 10.5877 28.2828 13.7471 28.2828C25.3862 28.2828 37.0252 28.2828 48.6643 28.2828C48.6643 28.2828 48.7111 28.2828 48.7111 28.2945C48.7111 28.4817 48.7111 28.6729 48.7111 28.8679C48.7111 28.9147 48.6175 28.9264 48.5824 28.9264C45.4152 28.9264 42.2519 28.9264 39.0925 28.9264C27.4534 28.9264 15.8144 28.9264 4.17529 28.9264C4.16359 28.9264 4.12849 28.9381 4.12849 28.9147C4.12849 28.7275 4.12849 28.5403 4.12849 28.353C4.12849 28.2945 4.31571 28.2594 4.31571 28.2945Z" fill="#ABABAB"/>
</g>
<g style="mix-blend-mode:multiply" opacity="0.5">
<path d="M48.6239 26.3872V26.9606H4.22852V26.3872H48.6239Z" fill="#ABABAB"/>
<path d="M4.32134 26.3873C4.32134 27.0075 4.20432 26.8904 4.8245 26.8904C5.46418 26.8904 6.10776 26.8904 6.75524 26.8904C9.08773 26.8904 11.4202 26.8904 13.7527 26.8904C20.2509 26.8904 26.753 26.8904 33.2591 26.8904C38.2985 26.8904 43.3418 26.8904 48.3891 26.8904C48.7167 26.8904 48.5295 26.9021 48.5295 26.8787C48.5295 26.5745 48.705 26.4575 48.4359 26.4575C47.8742 26.4575 47.3125 26.4575 46.7509 26.4575C44.1999 26.4575 41.649 26.4575 39.0981 26.4575C27.459 26.4575 15.8239 26.4575 4.19262 26.4575C4.0639 26.4575 4.16922 26.3288 4.26283 26.3288C7.42222 26.3288 10.5855 26.3288 13.7527 26.3288C25.384 26.3288 37.0191 26.3288 48.6582 26.3288C48.6933 26.3288 48.7167 26.3522 48.7167 26.3873C48.7167 26.5745 48.7167 26.7617 48.7167 26.949C48.7167 27.0075 48.6348 27.0192 48.588 27.0192C45.4286 27.0192 42.2653 27.0192 39.0981 27.0192C27.459 27.0192 15.8239 27.0192 4.19262 27.0192C4.15752 27.0192 4.13411 26.9958 4.13411 26.9607C4.13411 26.7734 4.13411 26.5862 4.13411 26.399C4.13411 26.3171 4.32134 26.2937 4.32134 26.3873Z" fill="#ABABAB"/>
</g>
<path d="M26.4219 0.059082V1.49836L10.2856 8.39053L9.24414 7.18528L26.4219 0.059082Z" fill="#ABABAB"/>
<path d="M9.32401 7.1501C9.56584 7.43093 9.81157 7.71177 10.0612 7.9926C10.2016 8.15642 10.3654 8.29684 10.2835 8.33195C10.5644 8.21493 10.8452 8.09792 11.126 7.9809C12.4444 7.41143 13.7628 6.84586 15.0811 6.28419C18.3107 4.90342 21.5442 3.52264 24.7816 2.14187C25.2185 1.95465 25.6554 1.76742 26.0922 1.5802C26.4667 1.41638 26.3262 1.46318 26.3262 1.00683C26.3262 0.702589 26.2326 0.199426 26.4433 0.105814C26.373 0.137018 26.3028 0.168222 26.2326 0.199426C25.8816 0.339844 25.5305 0.484162 25.1795 0.63238C19.8826 2.83226 14.5819 5.02823 9.2772 7.22031C9.18359 7.26711 9.07828 7.1969 9.19529 7.1384C14.929 4.7669 20.6588 2.3954 26.3847 0.0239042C26.4199 0.0122028 26.5135 -0.0112003 26.5135 0.047307C26.5135 0.530968 26.5135 1.01073 26.5135 1.48659C26.5135 1.50999 26.4784 1.53339 26.455 1.54509C21.0801 3.83858 15.7013 6.13597 10.3186 8.43726C10.2835 8.44896 10.225 8.46066 10.1899 8.42556C9.84667 8.02771 9.49953 7.62596 9.14849 7.22031C9.10168 7.1618 9.2772 7.09159 9.32401 7.1501Z" fill="#ABABAB"/>
<path d="M9.24625 7.1853L10.2877 8.39055L1.40627 29.7223L0.0957031 29.4766L9.24625 7.1853Z" fill="#ABABAB"/>
<path d="M0.154139 29.4298C0.575392 29.5078 0.996644 29.5858 1.4179 29.6638C1.30088 29.6404 1.28918 29.7808 1.38279 29.5585C1.54661 29.1606 1.71043 28.7628 1.87425 28.3649C2.54514 26.7657 3.21212 25.1626 3.87521 23.5556C5.54461 19.5537 7.21402 15.5479 8.88343 11.5382C9.27348 10.6021 9.66353 9.66989 10.0536 8.74158C10.1823 8.43734 10.2291 8.46074 10.0068 8.21501C9.75714 7.91857 9.50361 7.62214 9.24618 7.3257C9.12916 7.19698 9.36319 7.09167 9.30469 7.24379C8.43878 9.36566 7.56897 11.4836 6.69526 13.5977C4.52659 18.8868 2.35791 24.1758 0.189243 29.4649C0.16584 29.5351 -0.0213832 29.5468 0.00201974 29.4883C3.0522 22.0539 6.10239 14.6235 9.15257 7.19698C9.16427 7.13848 9.28128 7.09167 9.32809 7.15018C9.67913 7.54803 10.0263 7.94978 10.3695 8.35543C10.3773 8.36323 10.3812 8.37103 10.3812 8.37883C7.41685 15.4933 4.45638 22.6039 1.49981 29.7106C1.4764 29.7691 1.39449 29.7808 1.34769 29.7808C0.910834 29.695 0.473979 29.6131 0.0371241 29.5351C-0.0681892 29.5117 0.0956314 29.4181 0.154139 29.4298Z" fill="#ABABAB"/>
<path d="M43.5977 7.18528L42.3222 8.39053L26.4199 1.49836V0.059082L43.5977 7.18528Z" fill="#ABABAB"/>
<path d="M26.5131 0.0473851C26.5131 0.293116 26.396 1.41646 26.5482 1.47496C26.8602 1.60758 27.1722 1.7441 27.4843 1.88452C28.8338 2.46959 30.1795 3.05076 31.5213 3.62803C34.7041 5.00881 37.883 6.38568 41.058 7.75865C41.448 7.93027 41.8342 8.09799 42.2164 8.26182C42.2788 8.29302 42.3373 8.32032 42.3919 8.34373C42.2515 8.28522 42.2749 8.34373 42.4505 8.17991C42.5909 8.04729 42.7352 7.91077 42.8834 7.77035C43.0121 7.64164 43.4217 7.18528 43.5153 7.23209C43.4451 7.20088 43.3749 7.16968 43.3047 7.13847C42.9536 6.99806 42.6026 6.85374 42.2515 6.70552C36.9469 4.50564 31.6461 2.30967 26.3492 0.117594C26.2556 0.0824896 26.4311 -0.0111221 26.4897 0.0122808C32.2156 2.38378 37.9454 4.75918 43.6791 7.13847C43.7025 7.15018 43.6908 7.18528 43.6791 7.20868C43.2501 7.60653 42.8249 8.00828 42.4036 8.41393C42.3685 8.44904 42.2983 8.46074 42.2515 8.43734C36.9469 6.14385 31.6461 3.84646 26.3492 1.54517C26.3258 1.54517 26.3258 1.52177 26.3258 1.51007C26.3258 1.03421 26.3258 0.554449 26.3258 0.0707881C26.3258 0.000579326 26.5131 -0.0345252 26.5131 0.0473851Z" fill="#ABABAB"/>
<path d="M52.7483 29.4766L51.4377 29.7223L42.3223 8.39055L43.5977 7.1853L52.7483 29.4766Z" fill="#ABABAB"/>
<path d="M43.6756 7.2088C43.4533 7.41943 42.3767 8.27363 42.4469 8.43745C42.5874 8.7651 42.7278 9.09274 42.8682 9.42038C43.5157 10.9338 44.1632 12.4472 44.8106 13.9605C46.5581 18.0561 48.3055 22.1516 50.0529 26.2471C50.4819 27.2456 50.911 28.2441 51.3401 29.2427C51.4103 29.4182 51.5624 29.6405 51.4688 29.6522C51.8354 29.582 52.1982 29.5157 52.557 29.4533C52.7559 29.4182 52.6623 29.5469 52.6155 29.4299C51.7496 27.3158 50.8798 25.1979 50.0061 23.076C47.8374 17.7869 45.6687 12.4979 43.5001 7.2088C43.4767 7.13859 43.6639 7.08008 43.6873 7.16199C46.7375 14.5885 49.7877 22.019 52.8378 29.4533C52.8495 29.4884 52.791 29.5352 52.7559 29.5352C52.3191 29.621 51.8861 29.7029 51.4571 29.7809C51.4103 29.7926 51.3635 29.7926 51.3401 29.7458C48.3055 22.6391 45.267 15.5285 42.2246 8.41405C42.2246 8.40235 42.2363 8.37895 42.248 8.36725C42.6693 7.96159 43.0944 7.55984 43.5235 7.16199C43.5703 7.10349 43.7575 7.12689 43.6756 7.2088Z" fill="#ABABAB"/>
<g style="mix-blend-mode:multiply" opacity="0.5">
<path d="M47.9928 25.0651H4.7793L5.01333 24.4917H47.7588L47.9928 25.0651Z" fill="#ABABAB"/>
</g>
<g style="mix-blend-mode:multiply" opacity="0.5">
<path d="M47.208 23.1693H5.57422L5.80825 22.6077H46.974L47.208 23.1693Z" fill="#ABABAB"/>
</g>
<g style="mix-blend-mode:multiply" opacity="0.5">
<path d="M46.4252 21.2738H6.37109L6.60512 20.7122H46.1912L46.4252 21.2738Z" fill="#ABABAB"/>
</g>
<g style="mix-blend-mode:multiply" opacity="0.5">
<path d="M45.6404 19.3781H7.16602L7.40004 18.8164H45.4064L45.6404 19.3781Z" fill="#ABABAB"/>
</g>
<g style="mix-blend-mode:multiply" opacity="0.5">
<path d="M44.8576 17.4826H7.96289L8.19692 16.9209H44.6236L44.8576 17.4826Z" fill="#ABABAB"/>
</g>
<g style="mix-blend-mode:multiply" opacity="0.5">
<path d="M44.0728 15.5868H8.74609L8.99182 15.0251H43.8388L44.0728 15.5868Z" fill="#ABABAB"/>
</g>
<g style="mix-blend-mode:multiply" opacity="0.5">
<path d="M43.2881 13.6913H9.54102L9.77504 13.1296H43.054L43.2881 13.6913Z" fill="#ABABAB"/>
</g>
<g style="mix-blend-mode:multiply" opacity="0.5">
<path d="M42.4819 11.7604H10.3613L10.5954 11.1987H42.2478L42.4819 11.7604Z" fill="#ABABAB"/>
</g>
<g style="mix-blend-mode:multiply" opacity="0.5">
<path d="M41.7087 9.88833H11.1328L11.3317 9.43197L11.5775 9.32666H41.2758L41.5215 9.43197L41.7087 9.88833Z" fill="#ABABAB"/>
</g>
<g style="mix-blend-mode:multiply" opacity="0.5">
<path d="M38.0691 8.01602H14.7832L16.1757 7.45435H36.6766L38.0691 8.01602Z" fill="#ABABAB"/>
</g>
<g style="mix-blend-mode:multiply" opacity="0.5">
<path d="M33.413 6.12025H19.4414L20.8222 5.54688H32.0205L33.413 6.12025Z" fill="#ABABAB"/>
</g>
<g style="mix-blend-mode:multiply" opacity="0.5">
<path d="M28.7685 4.22474H24.0762L25.4686 3.65137H27.3877L28.7685 4.22474Z" fill="#ABABAB"/>
</g>
<g style="mix-blend-mode:multiply" opacity="0.5">
<path fill-rule="evenodd" clip-rule="evenodd" d="M16.6977 19.7761V26.4109H9.04492V19.7761H16.6977ZM12.5203 23.3919H9.88743V25.6269H12.5203V23.3919ZM12.5203 20.3846H9.88743V22.6196H12.5203V20.3846ZM16.0073 23.3919H13.3745V25.6269H16.0073V23.3919ZM16.0073 20.3729H13.3745V22.6079H16.0073V20.3729Z" fill="#ABABAB"/>
</g>
<g style="mix-blend-mode:multiply" opacity="0.5">
<path fill-rule="evenodd" clip-rule="evenodd" d="M30.2582 19.7761V26.4109H22.6055V19.7761H30.2582ZM26.0808 23.3919H23.448V25.6269H26.0808V23.3919ZM26.0808 20.3846H23.448V22.6196H26.0808V20.3846ZM29.5678 23.3919H26.935V25.6269H29.5678V23.3919ZM29.5678 20.3729H26.935V22.6079H29.5678V20.3729Z" fill="#ABABAB"/>
</g>
<g style="mix-blend-mode:multiply" opacity="0.5">
<path fill-rule="evenodd" clip-rule="evenodd" d="M43.8168 19.7761V26.4109H36.1641V19.7761H43.8168ZM39.6394 23.3919H37.0066V25.6269H39.6394V23.3919ZM39.6394 20.3846H37.0066V22.6196H39.6394V20.3846ZM43.1264 23.3919H40.4936V25.6269H43.1264V23.3919ZM43.1264 20.3729H40.4936V22.6079H43.1264V20.3729Z" fill="#ABABAB"/>
</g>
<path d="M43.6902 19.5188V25.8493L36.2832 25.8376V19.5071L43.6902 19.5188Z" fill="#ABABAB"/>
<path d="M43.5267 19.6006V25.7205H36.4473V19.6006H43.5267Z" fill="#ABABAB"/>
<g style="mix-blend-mode:screen" opacity="0.4">
<path d="M40.8936 19.5071L36.2832 23.0877V21.9644L39.4426 19.5071H40.8936Z" fill="#ABABAB"/>
</g>
<g style="mix-blend-mode:screen" opacity="0.4">
<path d="M42.1456 19.5071L36.2832 24.059V23.5558L41.5021 19.5071H42.1456Z" fill="#ABABAB"/>
</g>
<g style="mix-blend-mode:screen">
<path d="M38.5884 19.5071L36.2832 21.3091V21.0985L38.3076 19.5071H38.5884Z" fill="#ABABAB"/>
</g>
<g style="mix-blend-mode:screen" opacity="0.7">
<path d="M43.6902 19.7411L36.2832 25.4982V24.6089L42.8477 19.5188H43.6902V19.7411Z" fill="#ABABAB"/>
</g>
<g style="mix-blend-mode:screen">
<path d="M43.6888 23.6845L40.9039 25.8493H40.6113L43.6888 23.4622V23.6845Z" fill="#ABABAB"/>
</g>
<g style="mix-blend-mode:screen">
<path d="M43.6919 24.0591V24.1878L41.5505 25.8494H41.3867L43.6919 24.0591Z" fill="#ABABAB"/>
</g>
<g style="mix-blend-mode:screen" opacity="0.7">
<path d="M43.6909 22.608L39.5252 25.8376H38.0625L43.6909 21.4846V22.608Z" fill="#ABABAB"/>
</g>
<g style="mix-blend-mode:screen" opacity="0.7">
<path d="M43.6894 20.8996L37.3121 25.8376H37.0312L43.6894 20.6772V20.8996Z" fill="#ABABAB"/>
</g>
<g style="mix-blend-mode:screen">
<path d="M43.6903 19.5422L36.3301 25.3227V24.9249L43.3627 19.5188L43.6903 19.5422Z" fill="#ABABAB"/>
</g>
<g style="mix-blend-mode:screen">
<path d="M43.7012 22.1516L38.8334 25.8493H38.4473L43.7012 21.8357V22.1516Z" fill="#ABABAB"/>
</g>
<g style="mix-blend-mode:screen">
<path d="M40.6947 19.5071L36.2832 22.8069L36.2949 22.5027L40.2617 19.5188L40.6947 19.5071Z" fill="#ABABAB"/>
</g>
<path fill-rule="evenodd" clip-rule="evenodd" d="M43.8168 19.4016V26.0363H36.1641V19.4016H43.8168ZM39.6394 23.0174H37.0066V25.2523H39.6394V23.0174ZM39.6394 20.0101H37.0066V22.2451H39.6394V20.0101ZM43.1264 23.0174H40.4936V25.2523H43.1264V23.0174ZM43.1264 19.9984H40.4936V22.2334H43.1264V19.9984Z" fill="#ABABAB"/>
<path d="M30.1316 19.5188V25.8493L22.7246 25.8376V19.5071L30.1316 19.5188Z" fill="#ABABAB"/>
<path d="M29.9681 19.6006V25.7205H22.8887V19.6006H29.9681Z" fill="#ABABAB"/>
<g style="mix-blend-mode:screen" opacity="0.4">
<path d="M27.335 19.5071L22.7246 23.0877V21.9644L25.884 19.5071H27.335Z" fill="#ABABAB"/>
</g>
<g style="mix-blend-mode:screen" opacity="0.4">
<path d="M28.587 19.5071L22.7246 24.059V23.5558L27.9435 19.5071H28.587Z" fill="#ABABAB"/>
</g>
<g style="mix-blend-mode:screen">
<path d="M25.0298 19.5071L22.7246 21.3091V21.0985L24.749 19.5071H25.0298Z" fill="#ABABAB"/>
</g>
<g style="mix-blend-mode:screen" opacity="0.7">
<path d="M30.1316 19.7411L22.7246 25.4982V24.6089L29.2891 19.5188H30.1316V19.7411Z" fill="#ABABAB"/>
</g>
<g style="mix-blend-mode:screen">
<path d="M30.1302 23.6845L27.3453 25.8493H27.0527L30.1302 23.4622V23.6845Z" fill="#ABABAB"/>
</g>
<g style="mix-blend-mode:screen">
<path d="M30.1333 24.0591V24.1878L28.0036 25.8494H27.8281L30.1333 24.0591Z" fill="#ABABAB"/>
</g>
<g style="mix-blend-mode:screen" opacity="0.7">
<path d="M30.1323 22.608L25.9666 25.8376H24.5039L30.1323 21.4846V22.608Z" fill="#ABABAB"/>
</g>
<g style="mix-blend-mode:screen" opacity="0.7">
<path d="M30.1308 20.8996L23.7535 25.8376H23.4727L30.1308 20.6772V20.8996Z" fill="#ABABAB"/>
</g>
<g style="mix-blend-mode:screen">
<path d="M30.1317 19.5422L22.7715 25.3227V24.9249L29.8041 19.5188L30.1317 19.5422Z" fill="#ABABAB"/>
</g>
<g style="mix-blend-mode:screen">
<path d="M30.1426 22.1516L25.2748 25.8493H24.8887L30.1426 21.8357V22.1516Z" fill="#ABABAB"/>
</g>
<g style="mix-blend-mode:screen">
<path d="M27.1361 19.5071L22.7246 22.8069L22.7363 22.5027L26.7031 19.5188L27.1361 19.5071Z" fill="#ABABAB"/>
</g>
<path fill-rule="evenodd" clip-rule="evenodd" d="M30.2582 19.4016V26.0363H22.6055V19.4016H30.2582ZM26.0808 23.0174H23.448V25.2523H26.0808V23.0174ZM26.0808 20.0101H23.448V22.2451H26.0808V20.0101ZM29.5678 23.0174H26.935V25.2523H29.5678V23.0174ZM29.5678 19.9984H26.935V22.2334H29.5678V19.9984Z" fill="#ABABAB"/>
<path d="M16.5633 19.5188V25.8493L9.15625 25.8376V19.5071L16.5633 19.5188Z" fill="#ABABAB"/>
<path d="M16.3997 19.6006V25.7205H9.32031V19.6006H16.3997Z" fill="#ABABAB"/>
<g style="mix-blend-mode:screen" opacity="0.4">
<path d="M13.7666 19.5071L9.15625 23.0877V21.9644L12.3156 19.5071H13.7666Z" fill="#ABABAB"/>
</g>
<g style="mix-blend-mode:screen" opacity="0.4">
<path d="M15.0187 19.5071L9.15625 24.059V23.5558L14.3751 19.5071H15.0187Z" fill="#ABABAB"/>
</g>
<g style="mix-blend-mode:screen">
<path d="M11.4614 19.5071L9.15625 21.3091V21.0985L11.1806 19.5071H11.4614Z" fill="#ABABAB"/>
</g>
<g style="mix-blend-mode:screen" opacity="0.7">
<path d="M16.5633 19.7411L9.15625 25.4982V24.6089L15.7208 19.5188H16.5633V19.7411Z" fill="#ABABAB"/>
</g>
<g style="mix-blend-mode:screen">
<path d="M16.5619 23.6845L13.7769 25.8493H13.4844L16.5619 23.4622V23.6845Z" fill="#ABABAB"/>
</g>
<g style="mix-blend-mode:screen">
<path d="M16.565 24.0591V24.1878L14.4236 25.8494H14.2598L16.565 24.0591Z" fill="#ABABAB"/>
</g>
<g style="mix-blend-mode:screen" opacity="0.7">
<path d="M16.564 22.608L12.3982 25.8376H10.9355L16.564 21.4846V22.608Z" fill="#ABABAB"/>
</g>
<g style="mix-blend-mode:screen" opacity="0.7">
<path d="M16.5624 20.8996L10.1851 25.8376H9.9043L16.5624 20.6772V20.8996Z" fill="#ABABAB"/>
</g>
<g style="mix-blend-mode:screen">
<path d="M16.5633 19.5422L9.20312 25.3227V24.9249L16.2357 19.5188L16.5633 19.5422Z" fill="#ABABAB"/>
</g>
<g style="mix-blend-mode:screen">
<path d="M16.5743 22.1516L11.7065 25.8493H11.3203L16.5743 21.8357V22.1516Z" fill="#ABABAB"/>
</g>
<g style="mix-blend-mode:screen">
<path d="M13.5677 19.5071L9.15625 22.8069L9.16795 22.5027L13.1347 19.5188L13.5677 19.5071Z" fill="#ABABAB"/>
</g>
<path fill-rule="evenodd" clip-rule="evenodd" d="M16.6977 19.4016V26.0363H9.04492V19.4016H16.6977ZM12.5203 23.0174H9.88743V25.2523H12.5203V23.0174ZM12.5203 20.0101H9.88743V22.2451H12.5203V20.0101ZM16.0073 23.0174H13.3745V25.2523H16.0073V23.0174ZM16.0073 19.9984H13.3745V22.2334H16.0073V19.9984Z" fill="#ABABAB"/>
<path fill-rule="evenodd" clip-rule="evenodd" d="M30.2543 5.92163V12.5564H22.6016V5.92163H30.2543ZM26.0769 9.54909H23.4441V11.7841H26.0769V9.54909ZM26.0769 6.53011H23.4441V8.76509H26.0769V6.53011ZM29.5639 9.53738H26.9311V11.7724H29.5639V9.53738ZM29.5639 6.53011H26.9311V8.76509H29.5639V6.53011Z" fill="#ABABAB"/>
<path d="M30.1277 5.66429V11.9948H22.7207V5.65259L30.1277 5.66429Z" fill="#ABABAB"/>
<g style="mix-blend-mode:screen" opacity="0.7">
<path d="M29.9642 5.7578V11.8777L22.8848 11.866V5.74609L29.9642 5.7578Z" fill="#ABABAB"/>
</g>
<g style="mix-blend-mode:screen" opacity="0.4">
<path d="M27.3311 5.66431L22.7207 9.24496V8.10991L25.8801 5.66431H27.3311Z" fill="#ABABAB"/>
</g>
<g style="mix-blend-mode:screen" opacity="0.4">
<path d="M28.5831 5.66431L22.7207 10.2045V9.71301L27.9396 5.66431H28.5831Z" fill="#ABABAB"/>
</g>
<g style="mix-blend-mode:screen">
<path d="M25.0259 5.66431L22.7207 7.46633V7.244L24.7451 5.66431H25.0259Z" fill="#ABABAB"/>
</g>
<g style="mix-blend-mode:screen" opacity="0.7">
<path d="M30.1277 5.89834L22.7207 11.6438V10.7661L29.2852 5.66431H30.1277V5.89834Z" fill="#ABABAB"/>
</g>
<g style="mix-blend-mode:screen">
<path d="M30.1263 9.82999L27.3414 11.9948H27.0488L30.1263 9.60767V9.82999Z" fill="#ABABAB"/>
</g>
<g style="mix-blend-mode:screen">
<path d="M30.1294 10.2046V10.3333L27.9997 11.9949H27.8242L30.1294 10.2046Z" fill="#ABABAB"/>
</g>
<g style="mix-blend-mode:screen" opacity="0.7">
<path d="M30.1284 8.76517L25.9627 11.9948H24.5L30.1284 7.63013V8.76517Z" fill="#ABABAB"/>
</g>
<g style="mix-blend-mode:screen" opacity="0.7">
<path d="M30.1269 7.04508L23.7496 11.9948H23.4688L30.1269 6.82275V7.04508Z" fill="#ABABAB"/>
</g>
<g style="mix-blend-mode:screen">
<path d="M30.1278 5.68771L22.7676 11.4799V11.0821L29.8002 5.66431L30.1278 5.68771Z" fill="#ABABAB"/>
</g>
<g style="mix-blend-mode:screen">
<path d="M30.1387 8.29716L25.2709 11.9948H24.8848L30.1387 7.99292V8.29716Z" fill="#ABABAB"/>
</g>
<g style="mix-blend-mode:screen">
<path d="M27.1322 5.65259L22.7207 8.9524L22.7324 8.64816L26.6992 5.67599L27.1322 5.65259Z" fill="#ABABAB"/>
</g>
<path fill-rule="evenodd" clip-rule="evenodd" d="M30.2543 5.54712V12.1819H22.6016V5.54712H30.2543ZM26.0769 9.17457H23.4441V11.4096H26.0769V9.17457ZM26.0769 6.1556H23.4441V8.39058H26.0769V6.1556ZM29.5639 9.16287H26.9311V11.3979H29.5639V9.16287ZM29.5639 6.1556H26.9311V8.39058H29.5639V6.1556Z" fill="#ABABAB"/>
<g style="mix-blend-mode:multiply">
<g style="mix-blend-mode:multiply" opacity="0.5">
<path d="M48.62 26.3875V26.5981V26.9609V28.2831V28.3182V28.8916V30.1202V30.1788V30.6819V32.051V32.0744V32.6244V33.97V34.5317V35.8657V36.4273V37.7613V37.8198V38.3815V39.6569V39.6804V40.242V41.5058V41.5526V42.0674V43.4365V44.0099V45.3322V45.9055V47.0991H48.5849V46.4789V45.9055V45.8821V44.6067V44.045V43.9865V42.6642V42.0909V40.7686V40.1952V38.8495V38.2996V38.2879V36.9071V36.4039V36.3454V35.1168V34.5551V34.52V33.186V32.8233V32.6244H48.503L47.719 30.7287L46.9233 28.8331L46.1393 26.9375L45.3553 25.0418L44.5713 23.1462L43.7873 21.2505L43.0033 19.3549L42.2193 17.4593L41.4704 15.6572L41.2598 15.5636L36.626 13.6797L31.9805 11.784L27.3467 9.88841L26.3872 9.49056L25.4277 9.88841L20.7822 11.784L16.1484 13.6797L11.5029 15.5636L11.2923 15.6572L10.5434 17.4593L9.7594 19.3549L8.97541 21.2505L8.19141 23.1462L7.40741 25.0418L6.62341 26.9375L5.83941 28.8331L5.05541 30.7287L4.27142 32.6244H4.22461V32.0744V32.051V30.6819V30.1788V30.1202V28.8916V28.3182V28.2831V26.9609V26.5981V26.3875H4.30652L5.09052 24.4918L5.87452 22.5962L6.65851 20.7123L7.44251 18.8166L8.22651 16.921L9.01051 15.0254L9.79451 13.1297L10.5785 11.2341L11.3274 9.43205L11.538 9.33844L16.1835 7.4428L20.8173 5.54717L25.4628 3.65153L26.4223 3.26538L27.3818 3.65153L32.0156 5.54717L36.6611 7.4428L41.2949 9.33844L41.5172 9.43205L42.2661 11.2341L43.0501 13.1297L43.8341 15.0254L44.6181 16.921L45.4021 18.8166L46.1861 20.7123L46.9701 22.5962L47.7541 24.4918L48.5381 26.3875H48.62Z" fill="#ABABAB"/>
</g>
</g>
<g style="mix-blend-mode:multiply" opacity="0.5">
<path d="M9.66752 7.72354L4.07422 19.7878L9.24627 7.18528L26.424 0.059082L43.6018 7.18528L48.9376 20.1739L43.1571 7.72354L26.3889 0.76117L9.66752 7.72354Z" fill="#ABABAB"/>
</g>
<path fill-rule="evenodd" clip-rule="evenodd" d="M41.6006 29.8743V47.0754H26.4355V29.8743H41.6006ZM28.7407 32.2965L34.0064 37.644L39.2721 32.2965H28.7407ZM28.6822 42.9448L32.9884 38.6972L28.6822 34.4495V42.9448ZM39.2838 45.3202L34.0181 39.9609L28.7407 45.3202H39.2838ZM39.354 34.4495L35.0361 38.6972L39.354 42.9448V34.4495Z" fill="#ABABAB"/>
<path d="M26.531 29.8509C26.531 30.1396 26.531 30.4243 26.531 30.7051C26.531 34.0128 26.531 37.3243 26.531 40.6397C26.531 42.2389 26.531 43.8381 26.531 45.4373C26.531 45.7064 26.4374 47.0287 26.6129 47.0287C29.5617 47.0287 32.5143 47.0287 35.4709 47.0287C37.0857 47.0287 38.7005 47.0287 40.3153 47.0287C40.721 47.0287 41.1305 47.0287 41.544 47.0287C41.6493 47.0287 41.4972 47.1457 41.4972 46.8415C41.4972 41.2092 41.4972 35.573 41.4972 29.9328C41.4972 29.886 27.9 29.9094 26.3789 29.9094C26.2852 29.9094 26.4608 29.8392 26.5076 29.8392C31.5548 29.8392 36.6059 29.8392 41.661 29.8392C41.661 29.8392 41.6961 29.8392 41.6961 29.8509C41.6961 35.5847 41.6961 41.3145 41.6961 47.0404C41.6961 47.0989 41.5674 47.1106 41.5323 47.1106C36.485 47.1106 31.4339 47.1106 26.3789 47.1106C26.3789 47.1106 26.3438 47.1106 26.3438 47.0989C26.3438 41.3652 26.3438 35.6315 26.3438 29.8977C26.3438 29.8509 26.531 29.8158 26.531 29.8509Z" fill="#ABABAB"/>
<path d="M39.3563 32.2849C37.601 34.0713 35.8419 35.8538 34.0789 37.6324C34.0555 37.6675 33.9385 37.7143 33.9151 37.6792C32.1521 35.8928 30.3929 34.1064 28.6377 32.32C28.6026 32.2849 28.7664 32.2498 28.7898 32.2498C32.3003 32.2498 35.8146 32.2498 39.3329 32.2498C39.4265 32.2498 39.251 32.3317 39.2041 32.3317C36.9185 32.3317 34.6289 32.3317 32.3354 32.3317C31.1886 32.3317 30.0419 32.3317 28.8952 32.3317C28.5441 32.3317 28.8015 32.2381 28.9654 32.4136C29.3086 32.7646 29.6519 33.1118 29.9951 33.455C31.056 34.5315 32.1131 35.6081 33.1662 36.6846C33.4548 36.9732 33.7435 37.2619 34.0321 37.5505C34.1374 37.6675 33.8566 37.7143 33.9736 37.5973C34.075 37.4881 34.1803 37.3789 34.2895 37.2697C35.9199 35.6159 37.5503 33.9582 39.1807 32.2966C39.2158 32.2615 39.3914 32.2498 39.3563 32.2849Z" fill="#ABABAB"/>
<path d="M28.7536 34.4146C30.189 35.8344 31.6244 37.2503 33.0598 38.6622C33.0715 38.6739 33.0715 38.6856 33.0598 38.6856C31.6244 40.1054 30.1851 41.5213 28.7419 42.9333C28.7302 42.945 28.5664 43.0152 28.5664 42.9684C28.5664 40.1366 28.5664 37.3049 28.5664 34.4731C28.5664 34.4146 28.7536 34.3912 28.7536 34.4263C28.7536 36.2595 28.7536 38.0928 28.7536 39.926C28.7536 40.8543 28.7536 41.7865 28.7536 42.7226C28.7536 42.945 28.5079 43.0152 28.7068 42.828C28.9877 42.5471 29.2685 42.2663 29.5493 41.9854C30.4308 41.1273 31.3084 40.2653 32.1822 39.3994C32.697 38.8846 33.0364 38.8729 32.5215 38.3697C31.2031 37.0747 29.8887 35.7798 28.5781 34.4848C28.543 34.4497 28.7185 34.3795 28.7536 34.4146Z" fill="#ABABAB"/>
<path d="M28.6374 45.3202C30.4004 43.5337 32.1596 41.7512 33.9148 39.9726C33.9382 39.9375 34.0552 39.9024 34.0903 39.9258C35.8455 41.7122 37.6008 43.4986 39.356 45.2851C39.4028 45.3202 39.2273 45.3553 39.2039 45.3553C35.6934 45.3553 32.183 45.3553 28.6725 45.3553C28.5789 45.3553 28.7544 45.2734 28.7895 45.2734C31.083 45.2734 33.3765 45.2734 35.67 45.2734C36.809 45.2734 37.9518 45.2734 39.0985 45.2734C39.4496 45.2734 39.2039 45.367 39.0283 45.1915C38.6851 44.8404 38.3418 44.4933 37.9986 44.15C36.9377 43.0735 35.8806 41.997 34.8275 40.9204C34.5389 40.6318 34.2502 40.3431 33.9616 40.0545C33.8563 39.9492 34.1488 39.9024 34.0318 40.0194C33.9226 40.1208 33.8134 40.2261 33.7042 40.3353C32.0738 41.997 30.4434 43.6547 28.813 45.3085C28.7778 45.3436 28.6023 45.367 28.6374 45.3202Z" fill="#ABABAB"/>
<path d="M39.2407 42.9682C37.8053 41.5562 36.3699 40.1442 34.9346 38.7322C34.9229 38.7205 34.9229 38.7088 34.9346 38.6971C36.3699 37.2851 37.8092 35.8693 39.2524 34.4495C39.2641 34.4378 39.4279 34.3793 39.4279 34.4261C39.4279 37.2578 39.4279 40.0896 39.4279 42.9214C39.4279 42.9682 39.2407 43.0033 39.2407 42.9682C39.2407 41.1349 39.2407 39.3017 39.2407 37.4685C39.2407 36.5324 39.2407 35.6001 39.2407 34.6718C39.2407 34.4378 39.4864 34.3793 39.2992 34.5665C39.0106 34.8473 38.7258 35.1243 38.445 35.3973C37.5713 36.2632 36.6937 37.1291 35.8122 37.995C35.2973 38.5099 34.958 38.5099 35.4845 39.0248C36.7951 40.3197 38.1096 41.6147 39.4279 42.9097C39.4513 42.9331 39.2758 43.0033 39.2407 42.9682Z" fill="#ABABAB"/>
<path d="M32.9741 38.6973L28.6562 42.945V34.4497L32.9741 38.6973Z" fill="#ABABAB" stroke="#6D6D6D" stroke-width="0.6"/>
<path d="M35.0234 38.6973L39.3296 34.4497V42.945L35.0234 38.6973Z" fill="#ABABAB" stroke="#6D6D6D" stroke-width="0.6"/>
<path d="M33.9922 37.6442L28.7266 32.2966H39.2696L33.9922 37.6442Z" fill="#ABABAB" stroke="#6D6D6D" stroke-width="0.6"/>
<path d="M33.9922 39.9612L39.2696 45.3205H28.7266L33.9922 39.9612Z" fill="#ABABAB" stroke="#6D6D6D" stroke-width="0.6"/>
<path fill-rule="evenodd" clip-rule="evenodd" d="M26.4229 29.8745V47.0757H11.2695V29.8745H26.4229ZM13.5513 32.2967L18.8287 37.6443L24.0943 32.2967H13.5513ZM13.4928 42.945L17.7989 38.6974L13.4928 34.4498V42.945ZM24.0943 45.3204L18.8287 39.9612L13.5513 45.3204H24.0943ZM24.1645 34.4498L19.8467 38.6974L24.1645 42.945V34.4498Z" fill="#ABABAB"/>
<path d="M11.3669 29.8744C11.3669 30.1552 11.3669 30.44 11.3669 30.7286C11.3669 34.0362 11.3669 37.3438 11.3669 40.6515C11.3669 42.2507 11.3669 43.8499 11.3669 45.4491C11.3669 45.9015 11.3669 46.354 11.3669 46.8064C11.3669 47.099 11.2733 46.9937 11.402 46.9937C14.3508 46.9937 17.2996 46.9937 20.2483 46.9937C21.8631 46.9937 23.4779 46.9937 25.0927 46.9937C25.5062 46.9937 25.9157 46.9937 26.3214 46.9937C26.4501 46.9937 26.3331 47.1224 26.3331 46.8181C26.3331 41.1858 26.3331 35.5535 26.3331 29.9212C26.3331 29.8978 26.4969 29.9446 26.3097 29.9446C26.1693 29.9446 26.0328 29.9446 25.9001 29.9446C25.3697 29.9446 24.8392 29.9446 24.3087 29.9446C22.5691 29.9446 20.8256 29.9446 19.0782 29.9446C16.4727 29.9446 13.871 29.9446 11.2733 29.9446C11.1446 29.9446 11.168 29.8042 11.285 29.8042C16.3322 29.8042 21.3834 29.8042 26.4384 29.8042C26.4852 29.8042 26.532 29.8159 26.532 29.8744C26.532 35.6003 26.532 41.3301 26.532 47.0639C26.532 47.1107 26.4618 47.1458 26.4267 47.1458C21.3717 47.1458 16.3205 47.1458 11.2733 47.1458C11.2265 47.1458 11.1797 47.1224 11.1797 47.0756C11.1797 41.3418 11.1797 35.612 11.1797 29.8861C11.1797 29.7925 11.3669 29.7691 11.3669 29.8744Z" fill="#ABABAB"/>
<path d="M24.1796 32.3199C22.4243 34.1063 20.6691 35.8928 18.9139 37.6792C18.8671 37.726 18.7969 37.7377 18.7501 37.6909C16.9871 35.9045 15.2279 34.118 13.4727 32.3316C13.4259 32.2848 13.5312 32.2146 13.5663 32.2146C17.0846 32.2146 20.5989 32.2146 24.1094 32.2146C24.2381 32.2146 24.203 32.3667 24.0977 32.3667C21.8042 32.3667 19.5107 32.3667 17.2172 32.3667C16.0783 32.3667 14.9354 32.3667 13.7887 32.3667C13.4727 32.3667 13.6131 32.2146 13.8004 32.4018C14.1436 32.7529 14.4869 33.1 14.8301 33.4433C15.8832 34.5198 16.9403 35.5963 18.0012 36.6729C18.2898 36.9615 18.5785 37.2501 18.8671 37.5388C18.9724 37.6558 18.7033 37.6675 18.8086 37.5505C18.9178 37.4491 19.0231 37.3437 19.1245 37.2345C20.7549 35.5729 22.3892 33.9152 24.0275 32.2614C24.086 32.1912 24.2732 32.238 24.1796 32.3199Z" fill="#ABABAB"/>
<path d="M13.5662 34.3912C15.0015 35.8032 16.4408 37.219 17.884 38.6388C17.9191 38.6739 17.9074 38.709 17.8723 38.7441C16.4369 40.1561 15.0015 41.572 13.5662 42.9918C13.5194 43.0386 13.4023 43.0269 13.4023 42.945C13.4023 40.1132 13.4023 37.2814 13.4023 34.4497C13.4023 34.3678 13.5896 34.3327 13.5896 34.438C13.5896 36.279 13.5896 38.1162 13.5896 39.9494C13.5896 40.8777 13.5896 41.806 13.5896 42.7343C13.5896 42.9918 13.3906 42.9333 13.5545 42.7694C13.8431 42.4886 14.1278 42.2117 14.4087 41.9386C15.2824 41.0727 16.16 40.2068 17.0415 39.3409C17.2677 39.1225 17.4901 38.9041 17.7085 38.6856C17.6734 38.7207 17.5564 38.5803 17.3691 38.3931C16.0508 37.0981 14.7363 35.8032 13.4257 34.5082C13.3438 34.4263 13.5077 34.3327 13.5662 34.3912Z" fill="#ABABAB"/>
<path d="M13.4842 45.2853C15.2394 43.4989 16.9947 41.7164 18.7499 39.9378C18.7967 39.891 18.8669 39.8676 18.9137 39.9261C20.6767 41.7047 22.4358 43.4872 24.1911 45.2736C24.2379 45.3204 24.1443 45.3906 24.0974 45.3906C20.5792 45.3906 17.0649 45.3906 13.5544 45.3906C13.4257 45.3906 13.4608 45.2385 13.5661 45.2385C15.8596 45.2385 18.1531 45.2385 20.4466 45.2385C21.5933 45.2385 22.7362 45.2385 23.8751 45.2385C24.1911 45.2385 24.0506 45.3906 23.8634 45.2034C23.5202 44.8524 23.1769 44.5052 22.8337 44.162C21.7806 43.0855 20.7235 42.0089 19.6626 40.9324C19.374 40.6438 19.0892 40.3551 18.8084 40.0665C18.6914 39.9495 18.9605 39.9378 18.8552 40.0548C18.746 40.164 18.6407 40.2693 18.5393 40.3707C16.9088 42.0323 15.2784 43.69 13.648 45.3438C13.5778 45.4141 13.4023 45.3672 13.4842 45.2853Z" fill="#ABABAB"/>
<path d="M24.0988 43.0034C22.6634 41.5836 21.2241 40.1678 19.781 38.7558C19.7459 38.7207 19.7576 38.6856 19.7927 38.6505C21.228 37.2307 22.6634 35.8148 24.0988 34.4028C24.1456 34.356 24.2626 34.3677 24.2626 34.4379C24.2626 37.2697 24.2626 40.1015 24.2626 42.9332C24.2626 43.0268 24.0754 43.0502 24.0754 42.9449C24.0754 41.1117 24.0754 39.2785 24.0754 37.4452C24.0754 36.5169 24.0754 35.5847 24.0754 34.6486C24.0754 34.3911 24.2743 34.4496 24.1105 34.6252C23.8219 34.8982 23.5371 35.1751 23.2563 35.456C22.3826 36.3219 21.505 37.1878 20.6235 38.0537C20.3972 38.2721 20.1749 38.4906 19.9565 38.709C19.9916 38.6739 20.1086 38.8143 20.2958 39.0015C21.6142 40.2965 22.9287 41.5914 24.2392 42.8864C24.3211 42.9683 24.1573 43.0619 24.0988 43.0034Z" fill="#ABABAB"/>
<path d="M17.8081 38.6973L13.4902 42.945V34.4497L17.8081 38.6973Z" fill="#ABABAB" stroke="#6D6D6D" stroke-width="0.6"/>
<path d="M19.8457 38.6973L24.1635 34.4497V42.945L19.8457 38.6973Z" fill="#ABABAB" stroke="#6D6D6D" stroke-width="0.6"/>
<path d="M18.8282 37.6442L13.5625 32.2966H24.0938L18.8282 37.6442Z" fill="#ABABAB" stroke="#6D6D6D" stroke-width="0.6"/>
<path d="M18.8282 39.9612L24.0938 45.3205H13.5625L18.8282 39.9612Z" fill="#ABABAB" stroke="#6D6D6D" stroke-width="0.6"/>
<g style="mix-blend-mode:multiply" opacity="0.5">
<path d="M17.6306 38.8612L13.4883 34.7774V34.4497L17.8061 38.6973L17.6306 38.8612Z" fill="#ABABAB"/>
</g>
<g style="mix-blend-mode:multiply" opacity="0.5">
<path d="M24.1635 34.4497V34.7774L20.0212 38.8612L19.8457 38.6973L24.1635 34.4497Z" fill="#ABABAB"/>
</g>
<g style="mix-blend-mode:multiply" opacity="0.5">
<path d="M23.7759 32.6243H13.8765L13.5605 32.2966H24.0919L23.7759 32.6243Z" fill="#ABABAB"/>
</g>
<g style="mix-blend-mode:multiply" opacity="0.5">
<path d="M18.8262 40.2888L13.8765 45.3205H13.5605L18.8262 39.9612L24.0919 45.3205H23.7759L18.8262 40.2888Z" fill="#ABABAB"/>
</g>
<g style="mix-blend-mode:multiply" opacity="0.5">
<path d="M32.8142 38.8612L28.6719 34.7774V34.4497L32.9897 38.6973L32.8142 38.8612Z" fill="#ABABAB"/>
</g>
<g style="mix-blend-mode:multiply" opacity="0.5">
<path d="M39.3471 34.4497V34.7774L35.2048 38.8612L35.0293 38.6973L39.3471 34.4497Z" fill="#ABABAB"/>
</g>
<g style="mix-blend-mode:multiply" opacity="0.5">
<path d="M38.9615 32.6243H29.062L28.7461 32.2966H39.2774L38.9615 32.6243Z" fill="#ABABAB"/>
</g>
<g style="mix-blend-mode:multiply" opacity="0.5">
<path d="M34.0118 40.2888L29.062 45.3205H28.7461L34.0118 39.9612L39.2774 45.3205H38.9615L34.0118 40.2888Z" fill="#ABABAB"/>
</g>
<g style="mix-blend-mode:multiply" opacity="0.5">
<path d="M41.51 29.8745V37.9134L41.1589 30.5883H26.8246L26.4151 47.0757L25.9587 30.5883H11.6712L11.2383 37.9134L11.2617 29.8745H41.51Z" fill="#ABABAB"/>
</g>
</svg>
