<svg width="62" height="52" viewBox="0 0 62 52" fill="none" xmlns="http://www.w3.org/2000/svg">
<g filter="url(#filter0_d_623_2820)">
<rect x="10.5" y="6.5" width="41" height="31" rx="9.5" stroke="white" shape-rendering="crispEdges"/>
</g>
<path fill-rule="evenodd" clip-rule="evenodd" d="M36.7452 22.0001C36.7452 25.1732 34.1728 27.7457 30.9996 27.7457C27.8264 27.7457 25.2539 25.1733 25.2539 22.0001C25.2539 18.8269 27.8264 16.2544 30.9996 16.2544C34.1728 16.2544 36.7452 18.8269 36.7452 22.0001" fill="white"/>
<path fill-rule="evenodd" clip-rule="evenodd" d="M22.1608 22.4421H23.9285C24.1725 22.4421 24.3705 22.2441 24.3705 22.0001C24.3705 21.7561 24.1725 21.5581 23.9285 21.5581H22.1608C21.9167 21.5581 21.7188 21.7561 21.7188 22.0001C21.7188 22.2441 21.9167 22.4421 22.1608 22.4421V22.4421Z" fill="white"/>
<path fill-rule="evenodd" clip-rule="evenodd" d="M23.5653 26.8025L25.0963 25.9185C25.3076 25.7965 25.3801 25.526 25.2582 25.3148C25.1361 25.1035 24.8658 25.031 24.6544 25.1529L23.1234 26.037C22.9121 26.1589 22.8396 26.4294 22.9615 26.6407C23.0836 26.8519 23.3541 26.9244 23.5653 26.8025V26.8025Z" fill="white"/>
<path fill-rule="evenodd" clip-rule="evenodd" d="M26.9635 29.8761L27.8474 28.3451C27.9693 28.1338 27.8968 27.8633 27.6856 27.7413C27.4743 27.6194 27.2038 27.6919 27.0818 27.9031L26.198 29.4341C26.0759 29.6454 26.1484 29.9159 26.3597 30.0378C26.5709 30.1599 26.8414 30.0874 26.9635 29.8761Z" fill="white"/>
<path fill-rule="evenodd" clip-rule="evenodd" d="M31.4426 30.8392V29.0714C31.4426 28.8274 31.2446 28.6294 31.0006 28.6294C30.7566 28.6294 30.5586 28.8274 30.5586 29.0714V30.8392C30.5586 31.0832 30.7566 31.2812 31.0006 31.2812C31.2446 31.2812 31.4426 31.0832 31.4426 30.8392Z" fill="white"/>
<path fill-rule="evenodd" clip-rule="evenodd" d="M35.8025 29.4341L34.9185 27.9031C34.7965 27.6919 34.526 27.6194 34.3148 27.7413C34.1035 27.8633 34.031 28.1338 34.1529 28.3451L35.037 29.8761C35.1589 30.0874 35.4294 30.1599 35.6407 30.0378C35.8519 29.9159 35.9244 29.6454 35.8025 29.4341H35.8025Z" fill="white"/>
<path fill-rule="evenodd" clip-rule="evenodd" d="M38.8756 26.0367L37.3446 25.1527C37.1333 25.0308 36.8628 25.1033 36.7408 25.3144C36.6189 25.5258 36.6914 25.7963 36.9026 25.9182L38.4336 26.8022C38.6449 26.9242 38.9154 26.8517 39.0373 26.6404C39.1594 26.4292 39.0869 26.1587 38.8756 26.0367V26.0367Z" fill="white"/>
<path fill-rule="evenodd" clip-rule="evenodd" d="M38.0709 22.4421H39.8387C40.0827 22.4421 40.2807 22.2441 40.2807 22.0001C40.2807 21.7561 40.0827 21.5581 39.8387 21.5581H38.0709C37.8269 21.5581 37.6289 21.7561 37.6289 22.0001C37.6289 22.2441 37.8269 22.4421 38.0709 22.4421Z" fill="white"/>
<path fill-rule="evenodd" clip-rule="evenodd" d="M37.3446 18.8469L38.8756 17.9629C39.0869 17.8409 39.1594 17.5705 39.0375 17.3593C38.9154 17.1479 38.6451 17.0754 38.4337 17.1974L36.9027 18.0814C36.6914 18.2033 36.6189 18.4738 36.7408 18.6852C36.8629 18.8963 37.1334 18.9689 37.3446 18.8469V18.8469Z" fill="white"/>
<path fill-rule="evenodd" clip-rule="evenodd" d="M34.9186 16.0971L35.8024 14.5661C35.9244 14.3548 35.8519 14.0843 35.6407 13.9624C35.4294 13.8403 35.1589 13.9128 35.0369 14.1241L34.153 15.6551C34.031 15.8664 34.1035 16.1369 34.3148 16.2589C34.526 16.3808 34.7965 16.3083 34.9186 16.0971Z" fill="white"/>
<path fill-rule="evenodd" clip-rule="evenodd" d="M31.4426 14.9285V13.1608C31.4426 12.9167 31.2446 12.7188 31.0006 12.7188C30.7566 12.7188 30.5586 12.9167 30.5586 13.1608V14.9285C30.5586 15.1725 30.7566 15.3705 31.0006 15.3705C31.2446 15.3705 31.4426 15.1725 31.4426 14.9285Z" fill="white"/>
<path fill-rule="evenodd" clip-rule="evenodd" d="M27.8474 15.6551L26.9634 14.1241C26.8414 13.9128 26.5709 13.8403 26.3598 13.9624C26.1484 14.0843 26.0759 14.3548 26.1979 14.5661L27.0819 16.0971C27.2038 16.3083 27.4743 16.3808 27.6857 16.2589C27.8968 16.1369 27.9693 15.8664 27.8474 15.6551H27.8474Z" fill="white"/>
<path fill-rule="evenodd" clip-rule="evenodd" d="M25.0964 18.0814L23.5654 17.1974C23.3541 17.0754 23.0836 17.148 22.9616 17.3591C22.8396 17.5704 22.9121 17.8409 23.1234 17.9629L24.6544 18.8469C24.8657 18.9689 25.1362 18.8963 25.2581 18.685C25.3801 18.4739 25.3076 18.2034 25.0964 18.0814V18.0814Z" fill="white"/>
<defs>
<filter id="filter0_d_623_2820" x="0" y="0" width="62" height="52" filterUnits="userSpaceOnUse" color-interpolation-filters="sRGB">
<feFlood flood-opacity="0" result="BackgroundImageFix"/>
<feColorMatrix in="SourceAlpha" type="matrix" values="0 0 0 0 0 0 0 0 0 0 0 0 0 0 0 0 0 0 127 0" result="hardAlpha"/>
<feOffset dy="4"/>
<feGaussianBlur stdDeviation="5"/>
<feComposite in2="hardAlpha" operator="out"/>
<feColorMatrix type="matrix" values="0 0 0 0 0 0 0 0 0 0 0 0 0 0 0 0 0 0 0.1 0"/>
<feBlend mode="normal" in2="BackgroundImageFix" result="effect1_dropShadow_623_2820"/>
<feBlend mode="normal" in="SourceGraphic" in2="effect1_dropShadow_623_2820" result="shape"/>
</filter>
</defs>
</svg>
