<svg width="150" height="150" viewBox="0 0 150 150" fill="none" xmlns="http://www.w3.org/2000/svg">
<path d="M39.1074 77.1705H45.4281V81.3851H39.1074V77.1705Z" fill="#FE912A"/>
<path d="M53.8555 87.7068H60.1761V91.9213H53.8555V87.7068Z" fill="#FE912A"/>
<path d="M39.1074 87.7068H49.6418V91.9213H39.1074V87.7068Z" fill="#FE912A"/>
<path d="M22.2539 87.7068H34.8952V91.9213H22.2539V87.7068Z" fill="#FE912A"/>
<path d="M34.8945 98.243H60.1771V102.458H34.8945V98.243Z" fill="#FE912A"/>
<path d="M22.2539 98.243H30.6814V102.458H22.2539V98.243Z" fill="#FE912A"/>
<path d="M47.5352 108.779H60.1764V112.994H47.5352V108.779Z" fill="#FE912A"/>
<path d="M22.2539 108.779H43.3227V112.994H22.2539V108.779Z" fill="#FE912A"/>
<path d="M34.8945 119.316H47.5358V123.53H34.8945V119.316Z" fill="#FE912A"/>
<path d="M22.2539 119.316H30.6814V123.53H22.2539V119.316Z" fill="#FE912A"/>
<path d="M133.918 70.8488C133.918 70.2899 133.696 69.7539 133.301 69.3587C132.906 68.9635 132.37 68.7415 131.811 68.7415H119.17C118.611 68.7415 118.075 68.9635 117.68 69.3587C117.285 69.7539 117.063 70.2899 117.063 70.8488V81.3851H106.528C105.97 81.3851 105.434 81.6071 105.039 82.0023C104.643 82.3975 104.421 82.9335 104.421 83.4924V94.0287H93.8871C93.3283 94.0287 92.7924 94.2507 92.3973 94.6459C92.0022 95.0411 91.7802 95.5771 91.7802 96.136V106.672H81.2458C80.687 106.672 80.1511 106.894 79.756 107.29C79.3609 107.685 79.1389 108.221 79.1389 108.78V121.423H64.0283C63.5313 120.017 62.5533 118.832 61.2673 118.078C59.9812 117.323 58.4699 117.047 57.0003 117.3C55.5308 117.552 54.1977 118.316 53.2367 119.456C52.2756 120.596 51.7485 122.039 51.7485 123.53C51.7485 125.022 52.2756 126.465 53.2367 127.605C54.1977 128.745 55.5308 129.509 57.0003 129.761C58.4699 130.013 59.9812 129.738 61.2673 128.983C62.5533 128.229 63.5313 127.044 64.0283 125.638H66.4976V131.959C66.497 132.518 66.2748 133.054 65.8798 133.449C65.4849 133.844 64.9493 134.066 64.3908 134.067H18.0394C17.4808 134.066 16.9453 133.844 16.5503 133.449C16.1553 133.054 15.9332 132.518 15.9325 131.959V83.4924H26.4669C28.1427 83.4904 29.7492 82.8238 30.9342 81.6386C32.1191 80.4535 32.7856 78.8466 32.7876 77.1706V66.6342H64.3908C64.9493 66.6349 65.4849 66.8571 65.8798 67.2521C66.2748 67.6472 66.497 68.1828 66.4976 68.7415V70.8488H70.7114V68.7415C70.7095 67.0654 70.0429 65.4586 68.858 64.2734C67.6731 63.0883 66.0665 62.4216 64.3908 62.4197H32.426C31.5956 62.4175 30.773 62.58 30.0058 62.8978C29.2386 63.2156 28.5421 63.6825 27.9566 64.2714L13.57 78.6606C12.9812 79.2463 12.5145 79.9429 12.1967 80.7103C11.8789 81.4776 11.7165 82.3003 11.7188 83.1308V131.959C11.7207 133.636 12.3872 135.242 13.5722 136.428C14.7571 137.613 16.3637 138.279 18.0394 138.281H64.3908C66.0665 138.279 67.6731 137.613 68.858 136.428C70.0429 135.242 70.7095 133.636 70.7114 131.959V125.638H138.132V121.423H133.918V70.8488ZM28.5738 69.6144V77.1706C28.5732 77.7293 28.351 78.2649 27.956 78.6599C27.561 79.055 27.0255 79.2772 26.4669 79.2778H18.9122L28.5738 69.6144ZM58.0701 125.638C57.6534 125.638 57.2461 125.514 56.8996 125.283C56.5531 125.051 56.2831 124.722 56.1236 124.337C55.9641 123.952 55.9224 123.528 56.0037 123.119C56.085 122.711 56.2857 122.335 56.5803 122.04C56.875 121.746 57.2504 121.545 57.6591 121.464C58.0678 121.382 58.4914 121.424 58.8764 121.584C59.2614 121.743 59.5904 122.013 59.8219 122.36C60.0534 122.706 60.177 123.114 60.177 123.53C60.1764 124.089 59.9542 124.625 59.5592 125.02C59.1642 125.415 58.6287 125.637 58.0701 125.638ZM83.3527 110.887H91.7802V121.423H83.3527V110.887ZM95.9939 98.2432H104.421V121.423H95.9939V98.2432ZM108.635 85.5996H117.063V121.423H108.635V85.5996ZM121.276 121.423V72.956H129.704V121.423H121.276Z" fill="#FE912A"/>
<path d="M18.0394 64.527C19.1071 64.5272 20.1575 64.2568 21.0925 63.7411C22.0274 63.2254 22.8165 62.4812 23.386 61.5778C23.9555 60.6745 24.2869 59.6416 24.3492 58.5755C24.4116 57.5094 24.2028 56.4449 23.7424 55.4813L30.0642 49.1583C30.8638 49.5406 31.7348 49.7503 32.6207 49.7738C33.5067 49.7974 34.3876 49.6343 35.2064 49.2951C36.0252 48.9559 36.7634 48.4481 37.3732 47.8049C37.983 47.1617 38.4506 46.3974 38.7457 45.5616H47.8981C48.3649 46.8826 49.2574 48.0112 50.4352 48.7697C51.6131 49.5283 53.0095 49.8739 54.4051 49.7522C55.8008 49.6305 57.1164 49.0485 58.1453 48.0976C59.1741 47.1466 59.8579 45.8807 60.0891 44.4988L71.9875 34.2983C73.3076 34.9914 74.8301 35.1955 76.286 34.8744C77.742 34.5534 79.0376 33.728 79.944 32.544C80.8503 31.36 81.309 29.8936 81.2391 28.4041C81.1691 26.9146 80.575 25.4977 79.5617 24.4039C78.5484 23.3101 77.1811 22.6098 75.7014 22.4266C74.2218 22.2435 72.7251 22.5894 71.4758 23.4032C70.2265 24.217 69.305 25.4463 68.8742 26.8739C68.4433 28.3014 68.5309 29.8354 69.1214 31.2046L59.0417 39.8459C58.3784 38.8907 57.4644 38.1373 56.4003 37.6685C55.3362 37.1997 54.1634 37.0338 53.0111 37.189C51.8588 37.3442 50.7716 37.8146 49.8695 38.5483C48.9673 39.2819 48.2852 40.2504 47.8981 41.347H38.7457C38.4599 40.5377 38.0122 39.7951 37.43 39.1645C36.8478 38.5339 36.1433 38.0285 35.3594 37.6791C34.5756 37.3297 33.7288 37.1436 32.8707 37.1322C32.0126 37.1208 31.1611 37.2843 30.3683 37.6128C29.5754 37.9413 28.8578 38.4278 28.2591 39.0427C27.6603 39.6577 27.1931 40.3881 26.8859 41.1896C26.5786 41.991 26.4378 42.8466 26.4719 43.7043C26.5061 44.5619 26.7145 45.4037 27.0845 46.1781L20.7627 52.5011C19.9067 52.0922 18.9696 51.8813 18.021 51.8841C17.0723 51.8868 16.1365 52.103 15.2828 52.5168C14.4291 52.9306 13.6795 53.5313 13.0895 54.2743C12.4996 55.0173 12.0845 55.8837 11.8749 56.809C11.6653 57.7344 11.6667 58.6951 11.879 59.6199C12.0912 60.5447 12.5089 61.4098 13.101 62.1511C13.6931 62.8924 14.4445 63.4909 15.2994 63.9022C16.1542 64.3135 17.0907 64.527 18.0394 64.527ZM74.9251 26.5962C75.3418 26.5962 75.7492 26.7197 76.0956 26.9513C76.4421 27.1828 76.7122 27.5119 76.8716 27.897C77.0311 28.2821 77.0728 28.7058 76.9915 29.1145C76.9102 29.5233 76.7096 29.8988 76.4149 30.1935C76.1203 30.4882 75.7448 30.6889 75.3362 30.7702C74.9275 30.8515 74.5038 30.8098 74.1189 30.6503C73.7339 30.4908 73.4048 30.2207 73.1733 29.8742C72.9418 29.5276 72.8182 29.1202 72.8182 28.7034C72.8189 28.1447 73.0411 27.6091 73.436 27.2141C73.831 26.819 74.3665 26.5968 74.9251 26.5962ZM53.8563 41.347C54.273 41.347 54.6804 41.4706 55.0268 41.7022C55.3733 41.9337 55.6434 42.2628 55.8028 42.6479C55.9623 43.0329 56.004 43.4566 55.9227 43.8654C55.8414 44.2742 55.6408 44.6496 55.3461 44.9443C55.0515 45.2391 54.6761 45.4398 54.2674 45.5211C53.8587 45.6024 53.435 45.5606 53.0501 45.4011C52.6651 45.2417 52.336 44.9716 52.1045 44.625C51.873 44.2785 51.7494 43.8711 51.7494 43.4543C51.7501 42.8956 51.9723 42.36 52.3672 41.9649C52.7622 41.5699 53.2977 41.3477 53.8563 41.347ZM32.7875 41.347C33.2042 41.347 33.6116 41.4706 33.9581 41.7022C34.3045 41.9337 34.5746 42.2628 34.734 42.6479C34.8935 43.0329 34.9352 43.4566 34.8539 43.8654C34.7726 44.2742 34.572 44.6496 34.2773 44.9443C33.9827 45.2391 33.6073 45.4398 33.1986 45.5211C32.7899 45.6024 32.3663 45.5606 31.9813 45.4011C31.5963 45.2417 31.2672 44.9716 31.0357 44.625C30.8042 44.2785 30.6807 43.8711 30.6807 43.4543C30.6813 42.8956 30.9035 42.36 31.2985 41.9649C31.6934 41.5699 32.229 41.3477 32.7875 41.347ZM18.0394 56.0979C18.4561 56.0979 18.8634 56.2215 19.2099 56.453C19.5564 56.6846 19.8264 57.0137 19.9859 57.3987C20.1454 57.7838 20.1871 58.2075 20.1058 58.6163C20.0245 59.025 19.8238 59.4005 19.5292 59.6952C19.2345 59.9899 18.8591 60.1906 18.4504 60.2719C18.0417 60.3532 17.6181 60.3115 17.2331 60.152C16.8481 59.9925 16.5191 59.7224 16.2876 59.3759C16.0561 59.0293 15.9325 58.6219 15.9325 58.2052C15.9331 57.6465 16.1553 57.1108 16.5503 56.7158C16.9453 56.3207 17.4808 56.0985 18.0394 56.0979Z" fill="#FE912A"/>
<path d="M94.3003 61.1343L80.3741 75.0631H61.9224C61.4254 73.6572 60.4474 72.4722 59.1613 71.7176C57.8753 70.963 56.3639 70.6875 54.8944 70.9397C53.4248 71.1918 52.0917 71.9555 51.1307 73.0957C50.1697 74.2359 49.6426 75.6791 49.6426 77.1704C49.6426 78.6617 50.1697 80.105 51.1307 81.2451C52.0917 82.3853 53.4248 83.149 54.8944 83.4012C56.3639 83.6534 57.8753 83.3778 59.1613 82.6232C60.4474 81.8687 61.4254 80.6837 61.9224 79.2777H66.4986V117.208H70.7123V79.2777H81.2467C81.8055 79.2777 82.3415 79.0557 82.7366 78.6604L97.9424 63.4519C104.211 66.7796 111.525 67.551 118.349 65.6044C125.174 63.6578 130.981 59.1443 134.552 53.0101C138.123 46.8759 139.181 39.5972 137.505 32.6998C135.829 25.8023 131.548 19.8217 125.56 16.0116C119.572 12.2014 112.342 10.8575 105.385 12.2616C98.4284 13.6657 92.2851 17.7088 88.2431 23.5434C84.2011 29.3779 82.5742 36.5509 83.7034 43.5588C84.8326 50.5667 88.6302 56.8653 94.3003 61.1343L94.3003 61.1343ZM55.9642 79.2777C55.5475 79.2777 55.1401 79.1541 54.7937 78.9225C54.4472 78.691 54.1771 78.3619 54.0177 77.9768C53.8582 77.5918 53.8165 77.1681 53.8978 76.7593C53.9791 76.3505 54.1797 75.9751 54.4744 75.6804C54.769 75.3856 55.1444 75.1849 55.5531 75.1036C55.9618 75.0223 56.3855 75.0641 56.7704 75.2236C57.1554 75.3831 57.4845 75.6531 57.716 75.9997C57.9475 76.3462 58.0711 76.7536 58.0711 77.1704C58.0704 77.7291 57.8482 78.2647 57.4533 78.6598C57.0583 79.0548 56.5228 79.277 55.9642 79.2777ZM127.643 55.0836L115.435 41.3469H133.822C133.354 46.4876 131.179 51.3237 127.643 55.0836ZM133.822 37.1324H112.85V16.1565C118.243 16.6565 123.292 19.0271 127.122 22.8578C130.952 26.6885 133.322 31.7381 133.822 37.1324ZM108.636 16.1565V39.2396C108.636 39.7556 108.826 40.2535 109.17 40.6381L109.168 40.6396L124.495 57.8855C121.618 60.0083 118.29 61.4365 114.769 62.0585C111.249 62.6805 107.632 62.4793 104.203 61.4707C100.773 60.4622 97.6229 58.6735 94.9993 56.2448C92.3757 53.8161 90.3495 50.8131 89.0793 47.4709C87.8091 44.1287 87.3293 40.5378 87.6775 36.9792C88.0257 33.4207 89.1924 29.9909 91.0863 26.9584C92.9802 23.9259 95.55 21.3727 98.5946 19.4988C101.639 17.6248 105.076 16.4809 108.636 16.1565Z" fill="#FE912A"/>
</svg>
