<svg width="18" height="18" viewBox="0 0 18 18" fill="none" xmlns="http://www.w3.org/2000/svg">
<path d="M13.6731 7.24761C13.3518 7.24761 13.0889 7.51047 13.0889 7.83174V14.5493C13.0889 15.0312 12.6947 15.4255 12.2127 15.4255H3.45072C2.96881 15.4255 2.57452 15.0312 2.57452 14.5493V5.78727C2.57452 5.30536 2.96881 4.91107 3.45072 4.91107H9.56588C9.88715 4.91107 10.15 4.64821 10.15 4.32693C10.15 4.00566 9.88715 3.7428 9.56588 3.7428H3.45072C2.32261 3.7428 1.40625 4.65916 1.40625 5.78727V14.5493C1.40625 15.6774 2.32261 16.5938 3.45072 16.5938H12.2127C13.3408 16.5938 14.2572 15.6774 14.2572 14.5493V7.83174C14.2572 7.51047 13.9944 7.24761 13.6731 7.24761Z" fill="white"/>
<path d="M16.0102 1.40625H11.9213C11.6 1.40625 11.3371 1.66911 11.3371 1.99038C11.3371 2.31166 11.6 2.57452 11.9213 2.57452H14.601L7.41976 9.75572C7.19341 9.98208 7.19341 10.3545 7.41976 10.5808C7.53294 10.694 7.68262 10.7524 7.83231 10.7524C7.98199 10.7524 8.13168 10.694 8.24485 10.5808L15.4261 3.39961V6.07933C15.4261 6.4006 15.6889 6.66346 16.0102 6.66346C16.3315 6.66346 16.5943 6.4006 16.5943 6.07933V1.99038C16.5943 1.66911 16.3315 1.40625 16.0102 1.40625Z" fill="white"/>
</svg>
