<svg width="150" height="150" viewBox="0 0 150 150" fill="none" xmlns="http://www.w3.org/2000/svg">
<path d="M132.275 103.539H122.314V91.1305C122.314 91.1021 122.311 91.0744 122.31 91.0462C122.309 91.0072 122.308 90.9686 122.304 90.9298C122.3 90.8762 122.293 90.8233 122.285 90.7709C122.282 90.7484 122.281 90.7256 122.278 90.7031L113.562 41.0709C113.353 39.8831 112.318 39.0169 111.109 39.0169H98.6574V31.5718H108.618C109.994 31.5718 111.109 30.4606 111.109 29.0902V14.2003C111.109 12.8299 109.993 11.7188 108.618 11.7188H83.7158C82.3406 11.7188 81.2256 12.8299 81.2256 14.2003V29.0899C81.2256 30.4606 82.3408 31.5715 83.7158 31.5715H93.6767V39.0165H71.2646V21.6453C71.2646 20.2746 70.1496 19.1637 68.7744 19.1637H53.8331C52.4576 19.1637 51.3429 20.2748 51.3429 21.6453V39.0167H38.8917C37.682 39.0167 36.6474 39.8831 36.4388 41.0704L27.7227 90.7026C27.719 90.7239 27.7183 90.7457 27.7151 90.7669C27.7071 90.8211 27.6999 90.8757 27.6957 90.9308C27.6927 90.9686 27.6912 91.006 27.69 91.0438C27.689 91.0729 27.6855 91.1014 27.6855 91.1305V103.539H17.7246C16.3491 103.539 15.2344 104.65 15.2344 106.02V135.8C15.2344 137.17 16.3494 138.281 17.7246 138.281H132.275C133.651 138.281 134.766 137.17 134.766 135.8V106.02C134.766 104.65 133.651 103.539 132.275 103.539ZM86.2059 16.6819H106.128V26.6084H86.2059V16.6819ZM56.3233 24.1268H66.2842V48.943H56.3233V24.1268ZM40.9838 43.9798H51.3426V48.943H48.8525C47.477 48.943 46.3623 50.0541 46.3623 51.4245C46.3623 52.7952 47.4773 53.9061 48.8525 53.9061H53.8328H68.7742H73.7545C75.13 53.9061 76.2447 52.795 76.2447 51.4245C76.2447 50.0538 75.1297 48.943 73.7545 48.943H71.2644V43.9798H109.016L116.86 88.649H33.1397L40.9838 43.9798ZM32.6659 93.6121H117.334V103.539H32.6659V93.6121ZM129.785 133.318H20.2147V108.502H30.1757H119.824H129.785V133.318Z" fill="white"/>
<path d="M117.334 113.465H32.666C31.2905 113.465 30.1758 114.577 30.1758 115.947V125.873C30.1758 127.244 31.2908 128.355 32.666 128.355H117.334C118.709 128.355 119.824 127.243 119.824 125.873V115.947C119.824 114.576 118.709 113.465 117.334 113.465ZM114.844 123.392H35.1564V118.429H114.844V123.392H114.844Z" fill="white"/>
<path d="M88.6971 56.3881H83.7167C82.3416 56.3881 81.2266 57.4992 81.2266 58.8696C81.2266 60.2403 82.3418 61.3512 83.7167 61.3512H88.6971C90.0723 61.3512 91.1873 60.2401 91.1873 58.8696C91.1873 57.4989 90.0721 56.3881 88.6971 56.3881Z" fill="white"/>
<path d="M103.639 56.3881H98.6581C97.283 56.3881 96.168 57.4992 96.168 58.8696C96.168 60.2403 97.2832 61.3512 98.6581 61.3512H103.639C105.014 61.3512 106.129 60.2401 106.129 58.8696C106.129 57.4989 105.014 56.3881 103.639 56.3881Z" fill="white"/>
<path d="M88.6971 66.5627H83.7167C82.3416 66.5627 81.2266 67.6739 81.2266 69.0443C81.2266 70.415 82.3418 71.5259 83.7167 71.5259H88.6971C90.0723 71.5259 91.1873 70.4147 91.1873 69.0443C91.1873 67.6736 90.0721 66.5627 88.6971 66.5627Z" fill="white"/>
<path d="M103.639 66.5627H98.6581C97.283 66.5627 96.168 67.6739 96.168 69.0443C96.168 70.415 97.2832 71.5259 98.6581 71.5259H103.639C105.014 71.5259 106.129 70.4147 106.129 69.0443C106.129 67.6736 105.014 66.5627 103.639 66.5627Z" fill="white"/>
<path d="M88.6971 76.2408H83.7167C82.3416 76.2408 81.2266 77.3522 81.2266 78.7224C81.2266 80.0926 82.3418 81.204 83.7167 81.204H88.6971C90.0723 81.204 91.1873 80.0926 91.1873 78.7224C91.1873 77.3522 90.0721 76.2408 88.6971 76.2408Z" fill="white"/>
<path d="M103.639 76.2408H98.6581C97.283 76.2408 96.168 77.3522 96.168 78.7224C96.168 80.0926 97.2832 81.204 98.6581 81.204H103.639C105.014 81.204 106.129 80.0926 106.129 78.7224C106.129 77.3522 105.014 76.2408 103.639 76.2408Z" fill="white"/>
<path d="M73.7558 58.8695H48.8535C47.478 58.8695 46.3633 59.9806 46.3633 61.3511V71.2776C46.3633 72.6483 47.4783 73.7591 48.8535 73.7591H73.7558C75.1312 73.7591 76.246 72.648 76.246 71.2776V61.3511C76.2462 59.9806 75.1312 58.8695 73.7558 58.8695ZM71.2656 68.796H51.3436V63.8329H71.2656V68.796Z" fill="white"/>
</svg>
