<svg width="90" height="90" viewBox="0 0 90 90" fill="none" xmlns="http://www.w3.org/2000/svg">
<path d="M24.6773 58.0513C17.4732 58.0513 11.6133 63.9112 11.6133 71.1153C11.6133 78.3194 17.4732 84.1793 24.6773 84.1793C31.8814 84.1793 37.7414 78.3194 37.7414 71.1153C37.7414 63.9112 31.8814 58.0513 24.6773 58.0513ZM34.7222 69.6639H28.7649C28.3265 68.4345 27.3583 67.4661 26.1289 67.0279V61.0706C30.5692 61.7108 34.082 65.2236 34.7222 69.6639ZM24.6773 72.5671C23.8761 72.5671 23.2257 71.9167 23.2257 71.1155C23.2257 70.3143 23.8761 69.6639 24.6773 69.6639C25.4785 69.6639 26.1289 70.3143 26.1289 71.1155C26.1289 71.9167 25.4785 72.5671 24.6773 72.5671ZM23.2257 61.0706V67.0279C21.9963 67.4663 21.028 68.4345 20.5898 69.6639H14.6325C15.2726 65.2236 18.7854 61.7108 23.2257 61.0706ZM14.6325 72.5671H20.5898C21.0282 73.7965 21.9963 74.7648 23.2257 75.203V81.1603C18.7854 80.5202 15.2726 77.0074 14.6325 72.5671ZM26.1289 81.1603V75.203C27.3583 74.7646 28.3267 73.7965 28.7649 72.5671H34.7222C34.082 77.0074 30.5692 80.5202 26.1289 81.1603Z" fill="#F47B20"/>
<path d="M85.6439 11.6011H77.8432C74.4232 11.6011 71.4359 14.0311 70.7393 17.3768L70.2878 19.5426C68.1729 12.7275 64.8155 8.69794 60.966 8.69794C59.4216 8.69794 57.2572 9.38752 55.1176 12.2571C54.8868 3.67841 51.0373 1.05104 49.8223 0.442851C47.8017 -0.558735 45.2166 0.255647 44.1046 2.24142C43.0232 4.18799 43.6082 6.68316 45.3994 7.91273C45.5838 8.15812 46.2776 9.29172 46.4053 12.1441C44.2934 9.37591 42.1668 8.69811 40.644 8.69811C39.2099 8.69811 37.2169 9.30191 35.2123 11.7217C34.1309 10.1655 32.9899 9.43832 32.4239 9.15391C30.4034 8.15091 27.8196 8.9667 26.7062 10.9525C25.6248 12.899 26.2098 15.3942 28.001 16.6238C28.1882 16.8734 28.898 18.039 29.0098 20.9871C28.419 21.1743 27.8514 21.4095 27.2954 21.6679L24.1455 15.718C22.3253 12.2821 18.7819 10.1483 14.822 10.1483C13.9496 10.1483 13.1062 10.2673 12.2962 10.4691L11.598 5.59035L8.72389 6.00097L9.52509 11.6055C9.17968 11.8087 8.84869 12.0323 8.53071 12.2733L3.92935 7.67174L1.87696 9.72431L6.47691 14.3243C6.43191 14.3838 6.38551 14.4433 6.34191 14.5043H0V17.4074H4.86274C4.53614 18.4206 4.35474 19.4976 4.35474 20.6168C4.35474 23.6055 5.63651 26.4565 7.8689 28.4393L15.0542 34.8262H2.90316C1.30199 34.8262 0 36.1283 0 37.7293V40.6325C0 42.2337 1.30199 43.5356 2.90316 43.5356H3.16436L7.24032 63.9142C6.31994 66.1351 5.80614 68.5665 5.80614 71.1155C5.80614 81.5203 14.2716 89.9858 24.6765 89.9858C34.5908 89.9858 42.7267 82.2939 43.4728 72.5671H44.4338L50.1443 85.3365C51.5799 88.2048 54.4643 89.9858 57.6692 89.9858C61.6306 89.9858 65.0939 87.1713 65.9025 83.2911L79.0247 20.3106H85.6453C88.0462 20.3106 90 18.3568 90 15.9558C90 13.5549 88.0448 11.6011 85.6439 11.6011ZM60.9658 11.6011C64.21 11.6011 67.4499 17.6294 68.8841 26.2895L67.1059 34.8262H63.8326C63.5698 25.9339 60.9382 18.4322 57.0625 14.5188C58.3166 12.6319 59.6812 11.6011 60.9658 11.6011ZM21.7735 34.8262C21.7735 28.4233 26.9832 23.2137 33.386 23.2137C39.7887 23.2137 44.9984 28.4234 44.9984 34.8262H21.7735ZM42.6006 23.6201C44.5384 17.972 47.6318 14.5043 50.8049 14.5043C56.0842 14.5043 60.5668 23.6709 60.931 34.8262H47.9018C47.9018 30.3192 45.8362 26.2853 42.6006 23.6201ZM46.6388 3.65678C47.0162 2.98478 47.8624 2.70741 48.5274 3.04138C48.8859 3.21998 51.8587 4.91835 52.2027 11.7393C51.7425 11.6507 51.2781 11.6013 50.8049 11.6013C50.2939 11.6013 49.7917 11.6637 49.2953 11.7667C49.0485 7.37432 47.5781 5.92995 47.2602 5.67015L47.099 5.55554C46.5054 5.19397 46.289 4.28677 46.6388 3.65678ZM40.6439 11.6011C41.93 11.6011 43.2944 12.6331 44.55 14.5202C42.7964 16.2896 41.2753 18.814 40.1083 21.9726C39.3477 21.5734 38.5507 21.2322 37.7189 20.971C37.6477 18.3306 37.2413 16.2476 36.6651 14.6233C37.9367 12.6753 39.3345 11.6011 40.6439 11.6011ZM29.8602 14.3824L29.699 14.2678C29.1068 13.9064 28.889 12.9992 29.2402 12.3677C29.619 11.6957 30.4654 11.4213 31.1288 11.7523C31.4858 11.9309 34.4427 13.616 34.8027 20.3818C34.3367 20.3368 33.865 20.3106 33.3875 20.3106C32.8824 20.3106 32.3831 20.3368 31.891 20.3876C31.6282 16.0676 30.1766 14.6408 29.8602 14.3824ZM7.25789 20.6169C7.25789 16.4466 10.6517 13.0528 14.8946 13.0528C17.7034 13.0528 20.2639 14.5958 21.5791 17.0766L24.7958 23.1529C21.3295 25.7105 19.0419 29.7634 18.8937 34.3576L9.79684 26.268C8.1839 24.8365 7.25789 22.7753 7.25789 20.6169ZM2.90316 37.7293H66.5007L65.8953 40.6325H2.90316V37.7293ZM6.12553 43.5356H65.2913L59.848 69.6639H43.4744C42.7282 59.937 34.5923 52.2451 24.6781 52.2451C18.4102 52.2451 12.8622 55.3297 9.42929 60.0458L6.12553 43.5356ZM59.2428 72.5671L57.5662 80.6131L53.9679 72.5671H59.2428ZM24.6767 87.0827C15.873 87.0827 8.70947 79.9192 8.70947 71.1155C8.70947 62.3118 15.873 55.1483 24.6767 55.1483C33.4804 55.1483 40.6439 62.3118 40.6439 71.1155C40.6439 79.9192 33.4804 87.0827 24.6767 87.0827ZM85.6439 17.4074H76.6616L63.0604 82.6975C62.5306 85.2377 60.2618 87.0827 57.6678 87.0827C55.5689 87.0827 53.6803 85.9157 52.7673 84.0939L47.6142 72.5671H50.7873L55.3381 82.7397C55.7823 83.6281 56.675 84.1797 57.6678 84.1797C58.8944 84.1797 59.9672 83.3087 60.2196 82.1053L73.5812 17.9694C73.9978 15.9604 75.7906 14.503 77.843 14.503H85.6437C86.4449 14.503 87.0953 15.1534 87.0953 15.9546C87.0953 16.7558 86.4452 17.4074 85.6439 17.4074Z" fill="#F47B20"/>
</svg>
