<svg width="90" height="90" viewBox="0 0 90 90" fill="none" xmlns="http://www.w3.org/2000/svg">
<path d="M5.27344 5.27344H21.0938V0H0V21.0938H5.27344V5.27344Z" fill="#F47B20"/>
<path d="M68.9062 0V5.27344H84.7266V21.0938H90V0H68.9062Z" fill="#F47B20"/>
<path d="M84.7266 84.7266H68.9062V90H90V68.9062H84.7266V84.7266Z" fill="#F47B20"/>
<path d="M5.27344 68.9062H0V90H21.0938V84.7266H5.27344V68.9062Z" fill="#F47B20"/>
<path d="M10.7227 10.5469V36.9141H37.0898V21.0938H42.3633V15.8203H37.0898V10.5469H10.7227ZM31.8164 31.6406H15.9961V15.8203H31.8164V31.6406Z" fill="#F47B20"/>
<path d="M79.2773 79.1016V52.7344H68.7305V47.4609H63.457V52.7344H47.6367V58.0078H52.9102V63.2812H47.6367V68.5547H52.9102V79.1016H79.2773ZM58.1836 58.0078H74.0039V73.8281H58.1836V58.0078Z" fill="#F47B20"/>
<path d="M26.543 47.4609H37.0898V42.1875H10.7227V47.4609H21.2695V52.7344H15.9961V58.0078H21.2695V68.5547H15.9961V73.8281H21.2695V79.1016H47.6367V73.8281H42.3633V68.5547H37.0898V73.8281H26.543V68.5547H31.8164V63.2812H26.543V47.4609Z" fill="#F47B20"/>
<path d="M21.2695 21.0938H26.543V26.3672H21.2695V21.0938Z" fill="#F47B20"/>
<path d="M63.457 21.0938H68.7305V26.3672H63.457V21.0938Z" fill="#F47B20"/>
<path d="M68.7305 36.9141H79.2773V10.5469H52.9102V36.9141H63.457V42.1875H68.7305V36.9141ZM58.1836 31.6406V15.8203H74.0039V31.6406H58.1836Z" fill="#F47B20"/>
<path d="M79.2773 47.4609V42.1875C78.0016 42.1875 70.0152 42.1875 68.7305 42.1875V47.4609H79.2773Z" fill="#F47B20"/>
<path d="M63.457 63.2812H68.7305V68.5547H63.457V63.2812Z" fill="#F47B20"/>
<path d="M42.3633 58.0078H47.6367V63.2812H42.3633V58.0078Z" fill="#F47B20"/>
<path d="M31.8164 63.2812H37.0898C37.0898 62.0055 37.0898 54.0191 37.0898 52.7344H31.8164V63.2812Z" fill="#F47B20"/>
<path d="M37.0898 47.4609H42.3633V52.7344H37.0898V47.4609Z" fill="#F47B20"/>
<path d="M15.9961 58.0078H10.7227V68.5547H15.9961C15.9961 67.2789 15.9961 59.2925 15.9961 58.0078Z" fill="#F47B20"/>
<path d="M10.7227 73.8281H15.9961V79.1016H10.7227V73.8281Z" fill="#F47B20"/>
<path d="M42.3633 10.5469H47.6367V15.8203H42.3633V10.5469Z" fill="#F47B20"/>
<path d="M42.3633 31.6406H47.6367C47.6367 30.3648 47.6367 22.3785 47.6367 21.0938H42.3633V31.6406Z" fill="#F47B20"/>
<path d="M47.6367 42.1875V36.9141H42.3633V47.4609H63.457V42.1875H47.6367Z" fill="#F47B20"/>
</svg>
