<svg width="66" height="35" viewBox="0 0 66 35" fill="none" xmlns="http://www.w3.org/2000/svg">
<path d="M15.9926 30.6195L14.7407 30.6259L14.7344 26.4827H15.9862L15.9926 30.6195Z" fill="#ABABAB"/>
<path d="M15.2372 27.7154L14.9258 26.8003L20.8356 24.7605L21.1533 25.6692L15.2372 27.7154Z" fill="#ABABAB"/>
<path d="M17.754 31.8267L16.7944 32.4431C16.7944 32.4431 16.4449 32.1826 14.958 31.3501C13.4646 30.524 9.23242 32.2779 9.23242 32.2779C10.1856 30.1364 15.1677 27.9885 15.1677 28.4207C15.1677 28.8591 15.7841 29.4247 16.3941 30.2571L17.754 31.8267Z" fill="#ABABAB"/>
<path d="M38.5007 14.2625L38.4817 14.2562C38.3991 14.2371 38.3482 14.1545 38.3673 14.0783L39.2696 10.3799C39.2887 10.2973 39.365 10.2464 39.4476 10.2655L39.4666 10.2718C39.5492 10.2909 39.6001 10.3735 39.581 10.4561L38.685 14.1545C38.666 14.2308 38.5833 14.2816 38.5007 14.2625Z" fill="#ABABAB"/>
<path d="M38.9785 12.4007L39.0548 12.0894L43.0391 13.0553L42.9629 13.3666L38.9785 12.4007Z" fill="#ABABAB"/>
<path d="M39.3266 13.144C39.3266 13.144 39.1804 13.1757 39.1105 13.163C39.1105 13.163 38.9834 13.1249 38.8881 13.0995C38.8627 13.0931 38.8373 13.0868 38.8182 13.0868C38.7483 13.0804 38.5895 13.0868 38.4242 13.0232C38.259 12.9597 37.6172 12.4958 37.6172 12.4958L37.7697 12.0827L37.8523 11.6697C37.8523 11.6697 38.9262 11.4854 39.0851 11.5299C39.1021 11.5341 39.1169 11.5384 39.1296 11.5426C39.263 11.5934 39.3393 11.6824 39.4092 11.7142C39.4346 11.7269 39.6697 11.8667 39.6761 11.9493C39.6952 12.0637 39.6634 12.1463 39.6062 12.1971C39.6062 12.1971 39.6316 12.4195 39.549 12.5466C39.549 12.5466 39.5744 12.75 39.4283 12.8771C39.4283 12.8771 39.4346 13.0868 39.3266 13.144Z" fill="#ABABAB"/>
<path d="M31.2231 24.0487L30.9943 24.5507C30.9943 24.5507 30.0221 24.1885 30.0157 24.1758C30.0094 24.1631 30.2826 23.4832 30.2826 23.4832L31.2231 24.0487Z" fill="#ABABAB"/>
<path d="M39.5745 24.0234L39.8414 24.8114C39.8414 24.8114 38.7738 25.0529 38.6213 25.0402C38.6086 25.0402 38.418 24.1442 38.418 24.1442L39.5745 24.0234Z" fill="#ABABAB"/>
<path d="M38.4967 24.8112C38.4967 24.8112 39.2402 24.6015 39.2656 24.5697C39.2847 24.538 39.5579 24.3537 39.7041 24.3791C39.8439 24.3982 39.8566 24.5697 39.9964 24.6015C40.1362 24.6396 41.2292 24.9828 41.3817 25.0718C41.5342 25.1607 42.2523 24.9002 42.3921 25.0845C42.5319 25.2751 42.6717 25.7644 41.5342 25.936C40.4031 26.1076 39.1893 26.6159 38.9161 26.546C38.6428 26.4825 38.4522 25.1099 38.4967 24.8112Z" fill="#ABABAB"/>
<path d="M29.9458 24.0425C29.9458 24.0425 30.6385 24.3411 30.6766 24.3284C30.7084 24.3157 31.0325 24.3412 31.1215 24.4428C31.2168 24.5445 31.1278 24.6843 31.2104 24.7923C31.2994 24.9067 31.7951 25.5549 31.9412 25.7074C32.0556 25.8281 32.7038 25.9425 32.9135 26.1649C33.0723 26.3238 32.8881 26.9783 31.7823 26.667C30.7148 26.3683 29.3803 25.8408 29.2151 25.6248C29.0498 25.4087 29.7298 24.2522 29.9458 24.0425Z" fill="#ABABAB"/>
<path d="M30.6357 14.2308C30.6357 14.2308 33.6796 15.578 34.3278 16.0419C34.9759 16.4994 36.3867 17.3509 36.4375 17.5606C36.482 17.7704 36.7616 17.567 36.2596 18.6092C35.7639 19.6513 33.4 22.1614 33.1776 22.4347C32.9488 22.7206 31.3093 24.4237 31.3093 24.4237L30.0701 23.4959C30.0701 23.4959 32.4404 20.0008 32.7836 19.4861C33.1267 18.9714 33.2792 18.8951 33.0759 18.6664C32.8725 18.4439 32.0592 18.4503 27.8778 16.7218C27.4584 16.5503 26.2891 16.1499 26.1366 15.5907C25.857 14.5803 26.0922 13.2903 27.2169 12.7248C28.3417 12.1592 30.6357 14.2308 30.6357 14.2308Z" fill="#ABABAB"/>
<path d="M32.0688 4.42574C32.0434 4.45116 32.0116 4.50199 31.9862 4.57189C31.9417 4.67357 31.8909 4.81973 31.8464 4.97224C31.713 5.45519 31.5859 6.07795 31.5859 6.07795C31.5859 6.07795 29.8447 4.62909 30.0925 4.53377C30.334 4.4448 30.5183 4.01904 30.5183 4.01904C30.5183 4.01904 32.2531 4.26688 32.0688 4.42574Z" fill="#ABABAB"/>
<path d="M30.5886 13.6843C30.5886 13.6843 33.7341 14.4151 34.5158 14.663C35.291 14.9108 36.6319 15.3429 36.9941 15.5526C37.1847 15.6606 37.477 15.8195 37.8265 16.957C38.2205 18.247 39.1356 21.8691 39.3389 22.4283C39.466 22.7842 39.841 24.1759 39.841 24.1759L38.2332 24.4618C38.2332 24.4618 36.3141 20.6109 36.1553 19.5815C35.8947 17.853 35.2211 17.8466 34.9542 17.6878C34.681 17.5353 33.3783 17.8339 28.7394 17.4717C28.2755 17.4336 27.0046 17.4145 26.6805 16.9125C26.0831 16.0101 25.4858 14.9807 26.4009 14.072C27.3223 13.1633 30.5886 13.6843 30.5886 13.6843Z" fill="#ABABAB"/>
<path d="M32.6789 0.784303C32.6789 0.784303 33.2254 1.72479 33.0983 1.97898C32.9775 2.23952 33.6702 2.85591 33.5558 2.98936C33.4414 3.12281 33.2063 3.28168 33.2127 3.31981C33.219 3.35793 33.0157 4.57802 32.7488 4.60979C32.4819 4.63521 30.6518 4.54625 30.4992 3.97433C30.3467 3.40241 29.9019 2.15055 29.7939 1.92179C29.6922 1.68666 30.7407 -0.105347 32.6789 0.784303Z" fill="#ABABAB"/>
<path d="M32.8474 1.11481C32.8474 1.11481 31.6591 1.52787 31.2969 1.91551C31.2969 1.91551 31.2333 2.20146 31.3985 2.50648L31.0808 2.65264C31.0808 2.65264 30.4898 3.19279 30.439 3.67574C30.4453 3.75199 30.4453 3.79012 30.439 3.77106C30.3691 3.6249 29.5684 2.25865 29.3714 1.75028C29.2252 1.37535 29.9306 1.0195 30.0514 0.962309C30.1467 0.841571 30.2738 0.720826 30.4199 0.606443C31.2206 0.015461 32.6758 -0.58823 32.8474 1.11481Z" fill="#ABABAB"/>
<path d="M31.3124 3.18641C31.1917 3.36434 30.607 3.0466 30.5371 2.6399C30.4736 2.23956 30.9438 2.21414 31.0328 2.35395C31.1281 2.5001 31.4395 3.00848 31.3124 3.18641Z" fill="#ABABAB"/>
<path d="M31.8707 6.26191C31.8707 6.26191 32.6714 8.28904 32.1376 9.15327C31.6038 10.0175 30.5871 13.6841 30.5871 13.6841C28.973 13.2901 25.9863 14.7326 25.9863 14.7326C25.999 14.2624 26.895 10.3162 27.3907 8.07298C27.8864 5.82344 30.0914 4.53345 30.0914 4.53345C31.1082 5.04182 31.8707 6.26191 31.8707 6.26191Z" fill="#ABABAB"/>
<path d="M31.9868 4.57172C31.9424 4.6734 31.8915 4.81956 31.847 4.97207C31.5865 4.86404 31.0908 4.40651 31.0781 4.3938C31.2815 4.47641 31.9868 4.57172 31.9868 4.57172Z" fill="#ABABAB"/>
<path d="M31.0527 6.2747C31.0527 6.2747 31.5801 7.0182 31.9105 7.58376C32.2791 8.21922 32.6413 8.84833 32.7176 8.99449C32.8828 9.28045 33.4611 9.43296 33.7153 9.54099C33.9504 9.64267 37.8521 11.53 37.903 11.5236C37.9538 11.5173 37.6679 12.6802 37.6679 12.6802C37.6679 12.6802 32.0631 10.9644 31.8152 10.7357C31.5674 10.5132 30.843 9.49651 30.5443 9.0771C30.2583 8.68311 29.8262 8.02858 29.5975 7.74262C29.3369 7.43125 28.7968 6.35096 29.4831 5.81081C30.36 5.12451 30.843 5.95697 31.0527 6.2747Z" fill="#ABABAB"/>
<path d="M31.5784 10.4689L31.3814 11.0598C31.3814 11.0598 30.962 10.5769 30.5807 9.99226C30.2058 9.41399 29.5703 7.70459 29.5703 7.70459C29.9452 8.23203 31.5784 10.4689 31.5784 10.4689Z" fill="#ABABAB"/>
<path d="M58.3092 27.3723L35.0957 27.4104V27.0228L58.3029 26.9783L58.3092 27.3723Z" fill="#ABABAB"/>
<path d="M65.9993 26.2664L60.4453 26.2791V23.5657L65.9929 23.5593L65.9993 26.2664Z" fill="#ABABAB"/>
<path d="M62.7577 24.0867L55.7232 24.0994L55.7168 22.0469L62.7577 22.0342V24.0867Z" fill="#ABABAB"/>
<path d="M55.7184 22.047L55.7248 24.3156L45.4747 24.3347L41.5285 18.1389H40.9375C53.8311 16.8044 55.7184 22.047 55.7184 22.047Z" fill="#ABABAB"/>
<path d="M21.1113 1.02589L22.6364 1.01953L28.0824 17.548H26.4683L21.1113 1.02589Z" fill="#ABABAB"/>
<path d="M33.9445 22.5172L22.2329 22.5426L22.2266 16.207L33.9318 16.188L33.9445 22.5172Z" fill="#ABABAB"/>
<path d="M48.0119 26.9974L36.707 27.0164V24.9639L48.0056 24.9448L48.0119 26.9974Z" fill="#ABABAB"/>
<path d="M58.6077 23.572L56.3835 26.9845L46.4576 27.0035L44.6211 23.5974L58.6077 23.572Z" fill="#ABABAB"/>
<path d="M39.811 18.1389C39.1183 18.0499 37.7394 15.4318 37.8283 15.0823C37.9236 14.7328 39.7538 14.771 40.3066 14.8599C40.8595 14.9489 41.6347 14.3261 42.0478 13.8495C43.592 12.0702 43.9288 12.7121 44.3863 13.106C44.8502 13.5 47.5573 14.6756 47.786 14.6693C48.0148 14.6693 55.5387 14.6566 59.8027 14.6502C64.073 14.6439 63.3931 20.6363 63.3931 20.6363L63.7171 20.9858V22.0343L55.0494 22.047C52.8825 17.4145 40.4973 18.2279 39.811 18.1389Z" fill="#ABABAB"/>
<path d="M65.0205 28.6304C65.0269 31.814 62.4469 34.4067 59.2568 34.4067C56.0732 34.4131 53.4868 31.8395 53.4805 28.6494C53.4741 25.4658 56.0541 22.8731 59.2378 22.8731C62.4278 22.8667 65.0141 25.4467 65.0205 28.6304Z" fill="#ABABAB"/>
<path d="M63.2256 28.6303C63.2256 30.8291 61.4526 32.6147 59.2539 32.6147C57.0552 32.6211 55.2695 30.8418 55.2695 28.6494C55.2632 26.4507 57.0425 24.6651 59.2412 24.6651C61.4336 24.6587 63.2192 26.438 63.2256 28.6303Z" fill="#ABABAB"/>
<path d="M36.8441 25.4023C36.8505 30.397 32.8089 34.4576 27.8078 34.464C22.8131 34.4704 18.7525 30.4288 18.7461 25.4277C18.7397 20.433 22.7813 16.3787 27.7761 16.366C32.7772 16.3596 36.8314 20.4012 36.8441 25.4023Z" fill="#ABABAB"/>
<path d="M33.952 25.4023C33.9584 28.802 31.2068 31.5663 27.8007 31.5726C24.401 31.579 21.6431 28.8274 21.6367 25.4277C21.6304 22.028 24.3819 19.2637 27.7817 19.2573C31.1814 19.251 33.9457 22.0025 33.952 25.4023Z" fill="#ABABAB"/>
<path d="M37.0861 19.2445L34.0168 16.1816L21.9112 16.207L18.8101 19.3144H18.2891L21.8032 15.7876L34.3218 15.7686L37.8868 19.3144L37.0861 19.2445Z" fill="#ABABAB"/>
<path d="M24.3652 15.7877H22.2236L22.2109 10.1702L24.3524 10.1638L24.3652 15.7877Z" fill="#ABABAB"/>
<path d="M32.6326 15.7751C32.6008 14.1292 32.4483 12.1847 32.2577 11.7844C31.5206 11.5747 26.494 11.7081 23.0689 11.8733L23.0371 11.1743C23.0562 11.1743 25.3184 11.0663 27.6061 11.0091C32.3721 10.8947 32.5881 11.1044 32.7406 11.2569C32.8614 11.384 33.0902 11.6128 33.2427 13.7734C33.3126 14.7838 33.3316 15.756 33.3316 15.7624L32.6326 15.7751Z" fill="#ABABAB"/>
<path d="M49.4683 23.3369H48.5533L48.5215 6.68774H49.4429L49.4683 23.3369Z" fill="#ABABAB"/>
<path d="M0.00550813 33.2311C0.310531 31.9221 2.35672 30.7274 3.81193 30.8863C5.2735 31.0515 6.14408 29.2468 7.51033 29.5327C8.88293 29.8123 7.45315 30.3525 9.75988 30.308C12.0603 30.2572 11.6536 32.3097 11.6536 32.3097C11.6536 32.3097 -0.29316 34.5402 0.00550813 33.2311Z" fill="#ABABAB"/>
</svg>
