<svg width="57" height="27" viewBox="0 0 57 27" fill="none" xmlns="http://www.w3.org/2000/svg">
<path d="M1.44729 18.0109H0.359375V15.4834H1.44729V18.0109Z" fill="#ABABAB"/>
<path d="M54.9918 20.7033H53.2006C52.5852 17.2198 49.5413 14.5714 45.8819 14.5714C42.2336 14.5714 39.1896 17.2198 38.5742 20.7033H37.2006H20.783H19.6292C19.0138 17.2198 15.9699 14.5714 12.3105 14.5714C8.66217 14.5714 5.61822 17.2198 4.99184 20.7033H1.39844V9.79121H29.86V0.010993L41.1786 0L46.6512 7.95604L54.9918 10.8352V20.7033Z" fill="#ABABAB"/>
<path d="M17.4954 20.7034H7.28666H7.13281C7.71523 18.3847 9.81413 16.6594 12.3086 16.6594C14.8141 16.6594 16.913 18.3847 17.4954 20.7034Z" fill="#ABABAB"/>
<path d="M37.5053 11.1318H35.5162C35.2195 11.1318 34.9668 10.923 34.9668 10.6593C34.9668 10.3956 35.2195 10.1758 35.5162 10.1758H37.5053C37.802 10.1758 38.0437 10.3956 38.0437 10.6593C38.0437 10.923 37.802 11.1318 37.5053 11.1318Z" fill="#ABABAB"/>
<path d="M33.0781 1.6045L40.1111 1.58252L44.2649 7.95614H33.0781V1.6045Z" fill="#ABABAB"/>
<path d="M4.87891 21.6814C5.05473 17.7364 8.31847 14.5715 12.3075 14.5715C16.2965 14.5715 19.5712 17.7364 19.736 21.6814H17.6481C17.4833 18.8902 15.1536 16.6594 12.3075 16.6594C9.47231 16.6594 7.14264 18.8902 6.97781 21.6814H4.87891Z" fill="#ABABAB"/>
<path d="M12.3086 27C9.55035 27 7.30859 24.7692 7.30859 22C7.30859 19.2418 9.55035 17.011 12.3086 17.011C15.0668 17.011 17.3086 19.2418 17.3086 22C17.3086 24.7692 15.0668 27 12.3086 27Z" fill="#ABABAB"/>
<path d="M12.3094 25.3517C10.4633 25.3517 8.96875 23.8572 8.96875 22.0001C8.96875 20.1539 10.4633 18.6594 12.3094 18.6594C14.1556 18.6594 15.6611 20.1539 15.6611 22.0001C15.6611 23.8572 14.1556 25.3517 12.3094 25.3517Z" fill="#ABABAB"/>
<path d="M12.3071 24.945C10.6807 24.945 9.37305 23.6264 9.37305 22C9.37305 20.3846 10.6807 19.0659 12.3071 19.0659C13.9335 19.0659 15.2522 20.3846 15.2522 22C15.2522 23.6264 13.9335 24.945 12.3071 24.945Z" fill="#ABABAB"/>
<path d="M12.3073 23.8241C11.3073 23.8241 10.4941 23.0109 10.4941 22C10.4941 21 11.3073 20.1868 12.3073 20.1868C13.3073 20.1868 14.1205 21 14.1205 22C14.1205 23.0109 13.3073 23.8241 12.3073 23.8241Z" fill="#ABABAB"/>
<path d="M12.3055 19.9891C12.1626 19.9891 12.0527 19.8683 12.0527 19.7254C12.0527 19.5825 12.1626 19.4727 12.3055 19.4727C12.4483 19.4727 12.5692 19.5825 12.5692 19.7254C12.5692 19.8683 12.4483 19.9891 12.3055 19.9891Z" fill="#ABABAB"/>
<path d="M12.3055 24.5385C12.1626 24.5385 12.0527 24.4286 12.0527 24.2857C12.0527 24.1429 12.1626 24.022 12.3055 24.022C12.4483 24.022 12.5692 24.1429 12.5692 24.2857C12.5692 24.4286 12.4483 24.5385 12.3055 24.5385Z" fill="#ABABAB"/>
<path d="M11.2905 20.2527C11.1696 20.3297 11.0158 20.2857 10.9388 20.1648C10.8729 20.0439 10.9169 19.8791 11.0377 19.8132C11.1586 19.7363 11.3125 19.7802 11.3894 19.9011C11.4553 20.0329 11.4114 20.1868 11.2905 20.2527Z" fill="#ABABAB"/>
<path d="M13.5659 24.1978C13.445 24.2747 13.2911 24.2308 13.2142 24.1099C13.1483 23.978 13.1922 23.8242 13.3131 23.7582C13.434 23.6813 13.5988 23.7253 13.6648 23.8461C13.7417 23.967 13.6977 24.1319 13.5659 24.1978Z" fill="#ABABAB"/>
<path d="M10.5554 21C10.4895 21.1209 10.3246 21.1649 10.2037 21.0879C10.0829 21.022 10.0389 20.8572 10.1048 20.7363C10.1818 20.6154 10.3356 20.5715 10.4565 20.6484C10.5884 20.7143 10.6213 20.8681 10.5554 21Z" fill="#ABABAB"/>
<path d="M14.5007 23.2747C14.4238 23.3956 14.2699 23.4395 14.1491 23.3626C14.0282 23.2967 13.9842 23.1428 14.0502 23.011C14.1271 22.8901 14.2809 22.8461 14.4018 22.923C14.5337 22.989 14.5666 23.1538 14.5007 23.2747Z" fill="#ABABAB"/>
<path d="M10.2789 22.0001C10.2789 22.1429 10.169 22.2638 10.0262 22.2638C9.88333 22.2638 9.77344 22.1429 9.77344 22.0001C9.77344 21.8682 9.88333 21.7473 10.0262 21.7473C10.169 21.7473 10.2789 21.8682 10.2789 22.0001Z" fill="#ABABAB"/>
<path d="M14.8388 22.0001C14.8388 22.1429 14.7179 22.2638 14.575 22.2638C14.4322 22.2638 14.3223 22.1429 14.3223 22.0001C14.3223 21.8682 14.4322 21.7473 14.575 21.7473C14.7179 21.7473 14.8388 21.8682 14.8388 22.0001Z" fill="#ABABAB"/>
<path d="M10.5554 23.011C10.6213 23.1428 10.5884 23.2967 10.4565 23.3626C10.3356 23.4395 10.1818 23.3956 10.1048 23.2747C10.0389 23.1538 10.0829 22.989 10.2037 22.923C10.3246 22.8461 10.4895 22.8901 10.5554 23.011Z" fill="#ABABAB"/>
<path d="M14.5007 20.7363C14.5666 20.8572 14.5337 21.022 14.4018 21.0879C14.2809 21.1649 14.1271 21.1209 14.0502 21C13.9842 20.8681 14.0282 20.7143 14.1491 20.6484C14.2699 20.5715 14.4238 20.6154 14.5007 20.7363Z" fill="#ABABAB"/>
<path d="M11.2905 23.7582C11.4114 23.8242 11.4553 23.978 11.3894 24.1099C11.3125 24.2308 11.1586 24.2747 11.0377 24.1978C10.9169 24.1319 10.8729 23.967 10.9388 23.8461C11.0158 23.7253 11.1696 23.6813 11.2905 23.7582Z" fill="#ABABAB"/>
<path d="M13.5659 19.8132C13.6977 19.8791 13.7417 20.0439 13.6648 20.1648C13.5988 20.2857 13.434 20.3297 13.3131 20.2527C13.1922 20.1868 13.1483 20.0329 13.2142 19.9011C13.2911 19.7802 13.445 19.7363 13.5659 19.8132Z" fill="#ABABAB"/>
<path d="M38.4609 21.6814C38.6258 17.7364 41.8895 14.5715 45.8785 14.5715C49.8785 14.5715 53.1422 17.7364 53.3071 21.6814H51.2192C51.0543 18.8902 48.7247 16.6594 45.8785 16.6594C43.0434 16.6594 40.7137 18.8902 40.5488 21.6814H38.4609Z" fill="#ABABAB"/>
<path d="M51.0658 20.7034H50.7031H40.7031C41.2855 18.3847 43.3844 16.6594 45.8789 16.6594C48.3844 16.6594 50.4833 18.3847 51.0658 20.7034Z" fill="#ABABAB"/>
<path d="M45.8816 27C43.1233 27 40.8926 24.7692 40.8926 22C40.8926 19.2418 43.1233 17.011 45.8816 17.011C48.6508 17.011 50.8816 19.2418 50.8816 22C50.8816 24.7692 48.6508 27 45.8816 27Z" fill="#ABABAB"/>
<path d="M45.8817 25.3517C44.0355 25.3517 42.541 23.8572 42.541 22.0001C42.541 20.1539 44.0355 18.6594 45.8817 18.6594C47.7278 18.6594 49.2333 20.1539 49.2333 22.0001C49.2333 23.8572 47.7278 25.3517 45.8817 25.3517Z" fill="#ABABAB"/>
<path d="M45.8833 24.945C44.2679 24.945 42.9492 23.6264 42.9492 22C42.9492 20.3846 44.2679 19.0659 45.8833 19.0659C47.5097 19.0659 48.8283 20.3846 48.8283 22C48.8283 23.6264 47.5097 24.945 45.8833 24.945Z" fill="#ABABAB"/>
<path d="M45.8835 23.8241C44.8835 23.8241 44.0703 23.0109 44.0703 22C44.0703 21 44.8835 20.1868 45.8835 20.1868C46.8945 20.1868 47.7077 21 47.7077 22C47.7077 23.0109 46.8945 23.8241 45.8835 23.8241Z" fill="#ABABAB"/>
<path d="M45.8817 19.9891C45.7388 19.9891 45.6289 19.8683 45.6289 19.7254C45.6289 19.5825 45.7388 19.4727 45.8817 19.4727C46.0245 19.4727 46.1454 19.5825 46.1454 19.7254C46.1454 19.8683 46.0245 19.9891 45.8817 19.9891Z" fill="#ABABAB"/>
<path d="M45.8817 24.5385C45.7388 24.5385 45.6289 24.4286 45.6289 24.2857C45.6289 24.1429 45.7388 24.022 45.8817 24.022C46.0245 24.022 46.1454 24.1429 46.1454 24.2857C46.1454 24.4286 46.0245 24.5385 45.8817 24.5385Z" fill="#ABABAB"/>
<path d="M44.8745 20.2527C44.7536 20.3297 44.5997 20.2857 44.5228 20.1648C44.4569 20.0439 44.5008 19.8791 44.6217 19.8132C44.7426 19.7363 44.9074 19.7802 44.9734 19.9011C45.0393 20.0329 45.0063 20.1868 44.8745 20.2527Z" fill="#ABABAB"/>
<path d="M47.1594 24.1978C47.0276 24.2747 46.8737 24.2308 46.8078 24.1099C46.7309 23.978 46.7748 23.8242 46.8957 23.7582C47.0166 23.6813 47.1814 23.7253 47.2474 23.8461C47.3243 23.967 47.2803 24.1319 47.1594 24.1978Z" fill="#ABABAB"/>
<path d="M44.138 21C44.0721 21.1209 43.9072 21.1649 43.7863 21.0879C43.6655 21.022 43.6215 20.8572 43.6984 20.7363C43.7644 20.6154 43.9182 20.5715 44.0501 20.6484C44.171 20.7143 44.2149 20.8681 44.138 21Z" fill="#ABABAB"/>
<path d="M48.0827 23.2747C48.0168 23.3956 47.852 23.4395 47.7311 23.3626C47.6102 23.2967 47.5663 23.1428 47.6322 23.011C47.7091 22.8901 47.863 22.8461 47.9838 22.923C48.1157 22.989 48.1597 23.1538 48.0827 23.2747Z" fill="#ABABAB"/>
<path d="M43.8739 22.0001C43.8739 22.1429 43.753 22.2638 43.6102 22.2638C43.4673 22.2638 43.3574 22.1429 43.3574 22.0001C43.3574 21.8682 43.4673 21.7473 43.6102 21.7473C43.753 21.7473 43.8739 21.8682 43.8739 22.0001Z" fill="#ABABAB"/>
<path d="M48.4227 22.0001C48.4227 22.1429 48.3019 22.2638 48.17 22.2638C48.0271 22.2638 47.9062 22.1429 47.9062 22.0001C47.9062 21.8682 48.0271 21.7473 48.17 21.7473C48.3019 21.7473 48.4227 21.8682 48.4227 22.0001Z" fill="#ABABAB"/>
<path d="M44.138 23.011C44.2149 23.1428 44.171 23.2967 44.0501 23.3626C43.9182 23.4395 43.7644 23.3956 43.6984 23.2747C43.6215 23.1538 43.6655 22.989 43.7863 22.923C43.9072 22.8461 44.0721 22.8901 44.138 23.011Z" fill="#ABABAB"/>
<path d="M48.0827 20.7363C48.1597 20.8572 48.1157 21.022 47.9838 21.0879C47.863 21.1649 47.7091 21.1209 47.6322 21C47.5663 20.8681 47.6102 20.7143 47.7311 20.6484C47.852 20.5715 48.0168 20.6154 48.0827 20.7363Z" fill="#ABABAB"/>
<path d="M44.8745 23.7582C45.0063 23.8242 45.0393 23.978 44.9734 24.1099C44.9074 24.2308 44.7426 24.2747 44.6217 24.1978C44.5008 24.1319 44.4569 23.967 44.5228 23.8461C44.5997 23.7253 44.7536 23.6813 44.8745 23.7582Z" fill="#ABABAB"/>
<path d="M47.1594 19.8132C47.2803 19.8791 47.3243 20.0439 47.2474 20.1648C47.1814 20.2857 47.0166 20.3297 46.8957 20.2527C46.7748 20.1868 46.7309 20.0329 46.8078 19.9011C46.8737 19.7802 47.0276 19.7363 47.1594 19.8132Z" fill="#ABABAB"/>
<path d="M6.18613 9.90107H2.8125V1.12085H6.18613V9.90107Z" fill="#ABABAB"/>
<path d="M27.4283 9.90107H24.0547V1.12085H27.4283V9.90107Z" fill="#ABABAB"/>
<path d="M28.2874 2.10986V4.43953H2.14453V2.10986H28.2874Z" fill="#ABABAB"/>
<path d="M28.2874 5.97803V8.3077H2.14453V5.97803H28.2874Z" fill="#ABABAB"/>
<path d="M3.17801 2.61555C3.10109 2.61555 3.03516 2.54961 3.03516 2.47269C3.03516 2.38478 3.10109 2.31885 3.17801 2.31885C3.25494 2.31885 3.32087 2.38478 3.32087 2.47269C3.32087 2.54961 3.25494 2.61555 3.17801 2.61555Z" fill="#ABABAB"/>
<path d="M5.81791 2.61555C5.73 2.61555 5.66406 2.54961 5.66406 2.47269C5.66406 2.38478 5.73 2.31885 5.81791 2.31885C5.89483 2.31885 5.96077 2.38478 5.96077 2.47269C5.96077 2.54961 5.89483 2.61555 5.81791 2.61555Z" fill="#ABABAB"/>
<path d="M3.17801 4.17609C3.10109 4.17609 3.03516 4.11016 3.03516 4.02225C3.03516 3.94533 3.10109 3.87939 3.17801 3.87939C3.25494 3.87939 3.32087 3.94533 3.32087 4.02225C3.32087 4.11016 3.25494 4.17609 3.17801 4.17609Z" fill="#ABABAB"/>
<path d="M5.81791 4.17609C5.73 4.17609 5.66406 4.11016 5.66406 4.02225C5.66406 3.94533 5.73 3.87939 5.81791 3.87939C5.89483 3.87939 5.96077 3.94533 5.96077 4.02225C5.96077 4.11016 5.89483 4.17609 5.81791 4.17609Z" fill="#ABABAB"/>
<path d="M3.17801 6.52742C3.10109 6.52742 3.03516 6.46148 3.03516 6.38456C3.03516 6.29665 3.10109 6.23071 3.17801 6.23071C3.25494 6.23071 3.32087 6.29665 3.32087 6.38456C3.32087 6.46148 3.25494 6.52742 3.17801 6.52742Z" fill="#ABABAB"/>
<path d="M5.81791 6.52742C5.73 6.52742 5.66406 6.46148 5.66406 6.38456C5.66406 6.29665 5.73 6.23071 5.81791 6.23071C5.89483 6.23071 5.96077 6.29665 5.96077 6.38456C5.96077 6.46148 5.89483 6.52742 5.81791 6.52742Z" fill="#ABABAB"/>
<path d="M3.17801 8.08796C3.10109 8.08796 3.03516 8.02203 3.03516 7.93412C3.03516 7.85719 3.10109 7.79126 3.17801 7.79126C3.25494 7.79126 3.32087 7.85719 3.32087 7.93412C3.32087 8.02203 3.25494 8.08796 3.17801 8.08796Z" fill="#ABABAB"/>
<path d="M5.81791 8.08796C5.73 8.08796 5.66406 8.02203 5.66406 7.93412C5.66406 7.85719 5.73 7.79126 5.81791 7.79126C5.89483 7.79126 5.96077 7.85719 5.96077 7.93412C5.96077 8.02203 5.89483 8.08796 5.81791 8.08796Z" fill="#ABABAB"/>
<path d="M24.4124 2.61555C24.3355 2.61555 24.2695 2.54961 24.2695 2.47269C24.2695 2.38478 24.3355 2.31885 24.4124 2.31885C24.4893 2.31885 24.5552 2.38478 24.5552 2.47269C24.5552 2.54961 24.4893 2.61555 24.4124 2.61555Z" fill="#ABABAB"/>
<path d="M27.0523 2.61555C26.9644 2.61555 26.8984 2.54961 26.8984 2.47269C26.8984 2.38478 26.9644 2.31885 27.0523 2.31885C27.1292 2.31885 27.1951 2.38478 27.1951 2.47269C27.1951 2.54961 27.1292 2.61555 27.0523 2.61555Z" fill="#ABABAB"/>
<path d="M24.4124 4.17609C24.3355 4.17609 24.2695 4.11016 24.2695 4.02225C24.2695 3.94533 24.3355 3.87939 24.4124 3.87939C24.4893 3.87939 24.5552 3.94533 24.5552 4.02225C24.5552 4.11016 24.4893 4.17609 24.4124 4.17609Z" fill="#ABABAB"/>
<path d="M27.0523 4.17609C26.9644 4.17609 26.8984 4.11016 26.8984 4.02225C26.8984 3.94533 26.9644 3.87939 27.0523 3.87939C27.1292 3.87939 27.1951 3.94533 27.1951 4.02225C27.1951 4.11016 27.1292 4.17609 27.0523 4.17609Z" fill="#ABABAB"/>
<path d="M24.4124 6.52742C24.3355 6.52742 24.2695 6.46148 24.2695 6.38456C24.2695 6.29665 24.3355 6.23071 24.4124 6.23071C24.4893 6.23071 24.5552 6.29665 24.5552 6.38456C24.5552 6.46148 24.4893 6.52742 24.4124 6.52742Z" fill="#ABABAB"/>
<path d="M27.0523 6.52742C26.9644 6.52742 26.8984 6.46148 26.8984 6.38456C26.8984 6.29665 26.9644 6.23071 27.0523 6.23071C27.1292 6.23071 27.1951 6.29665 27.1951 6.38456C27.1951 6.46148 27.1292 6.52742 27.0523 6.52742Z" fill="#ABABAB"/>
<path d="M24.4124 8.08796C24.3355 8.08796 24.2695 8.02203 24.2695 7.93412C24.2695 7.85719 24.3355 7.79126 24.4124 7.79126C24.4893 7.79126 24.5552 7.85719 24.5552 7.93412C24.5552 8.02203 24.4893 8.08796 24.4124 8.08796Z" fill="#ABABAB"/>
<path d="M27.0523 8.08796C26.9644 8.08796 26.8984 8.02203 26.8984 7.93412C26.8984 7.85719 26.9644 7.79126 27.0523 7.79126C27.1292 7.79126 27.1951 7.85719 27.1951 7.93412C27.1951 8.02203 27.1292 8.08796 27.0523 8.08796Z" fill="#ABABAB"/>
<path d="M40.1111 1.58252L33.0781 7.95614V1.6045L40.1111 1.58252Z" fill="#ABABAB"/>
<path d="M54.9882 10.8352C54.9882 10.8352 56.0541 11.4945 56.0871 12.8902C56.131 14.2858 56.0871 20.7033 56.0871 20.7033H54.9882L53.5156 15.055L54.9882 10.8352Z" fill="#ABABAB"/>
<path d="M56.9465 20.3627C56.9465 20.6374 56.7707 20.8572 56.5619 20.8572H52.4081C52.1883 20.8572 52.0234 20.6374 52.0234 20.3627V19.3517C52.0234 19.0879 52.1883 18.8682 52.4081 18.8682H56.5619C56.7707 18.8682 56.9465 19.0879 56.9465 19.3517V20.3627Z" fill="#ABABAB"/>
<path d="M6.62637 20.5934C6.62637 20.8022 6.48351 20.978 6.31868 20.978H0.318681C0.142857 20.978 0 20.8022 0 20.5934V19.4945C0 19.2747 0.142857 19.0989 0.318681 19.0989H6.31868C6.48351 19.0989 6.62637 19.2747 6.62637 19.4945V20.5934Z" fill="#ABABAB"/>
<path d="M40.3642 20.5934C40.3642 20.8022 40.2323 20.978 40.0565 20.978H18.9027C18.7268 20.978 18.584 20.8022 18.584 20.5934V19.4945C18.584 19.2747 18.7268 19.0989 18.9027 19.0989H40.0565C40.2323 19.0989 40.3642 19.2747 40.3642 19.4945V20.5934Z" fill="#ABABAB"/>
<path d="M31.5391 0.0769043V19.8022V0.0769043Z" fill="#ABABAB"/>
<path d="M31.5391 0.0769043V19.8022" stroke="#ABABAB" stroke-width="1.4"/>
<path d="M1.40625 11.8682H31.5931H1.40625Z" fill="#ABABAB"/>
<path d="M1.40625 11.8682H31.5931" stroke="#ABABAB" stroke-width="1.4"/>
</svg>
