<svg width="36" height="36" viewBox="0 0 36 36" fill="none" xmlns="http://www.w3.org/2000/svg">
<path d="M15.0414 23.4781C15.5924 22.8111 15.9238 21.9563 15.9238 21.0256C15.9238 18.8993 14.1939 17.1694 12.0676 17.1694C9.94132 17.1694 8.21143 18.8993 8.21143 21.0256C8.21143 21.9563 8.54288 22.8111 9.0939 23.4781C7.52805 24.1677 6.43164 25.7336 6.43164 27.5515V28.738C6.43164 29.2295 6.83008 29.6279 7.32153 29.6279H16.8137C17.3052 29.6279 17.7036 29.2295 17.7036 28.738V27.5515C17.7036 25.7336 16.6072 24.1677 15.0414 23.4781ZM12.0676 18.9492C13.2126 18.9492 14.144 19.8807 14.144 21.0256C14.144 22.1706 13.2126 23.1021 12.0676 23.1021C10.9227 23.1021 9.99121 22.1706 9.99121 21.0256C9.99121 19.8807 10.9227 18.9492 12.0676 18.9492ZM15.9238 27.8481H8.21143V27.5515C8.21143 26.0795 9.40904 24.8818 10.8811 24.8818H13.2542C14.7262 24.8818 15.9238 26.0795 15.9238 27.5515V27.8481Z" fill="#07425A"/>
<path d="M28.678 18.356H20.3723C19.8809 18.356 19.4824 18.7544 19.4824 19.2458C19.4824 19.7373 19.8809 20.1357 20.3723 20.1357H28.678C29.1694 20.1357 29.5679 19.7373 29.5679 19.2458C29.5679 18.7544 29.1694 18.356 28.678 18.356Z" fill="#07425A"/>
<path d="M28.678 22.5088H20.3723C19.8809 22.5088 19.4824 22.9072 19.4824 23.3987C19.4824 23.8901 19.8809 24.2886 20.3723 24.2886H28.678C29.1694 24.2886 29.5679 23.8901 29.5679 23.3987C29.5679 22.9072 29.1694 22.5088 28.678 22.5088Z" fill="#07425A"/>
<path d="M28.678 26.6616H20.3723C19.8809 26.6616 19.4824 27.0601 19.4824 27.5515C19.4824 28.043 19.8809 28.4414 20.3723 28.4414H28.678C29.1694 28.4414 29.5679 28.043 29.5679 27.5515C29.5679 27.0601 29.1694 26.6616 28.678 26.6616Z" fill="#07425A"/>
<path d="M29.9246 10.6436H21.3166L21.8535 3.77169C21.8728 3.52441 21.788 3.28029 21.6196 3.0981C21.4512 2.91602 21.2144 2.8125 20.9663 2.8125H15.0337C14.7856 2.8125 14.5488 2.91602 14.3804 3.0981C14.212 3.28023 14.1271 3.52441 14.1465 3.77169L14.6834 10.6436H6.07544C4.27625 10.6436 2.8125 12.1073 2.8125 13.9065V29.9246C2.8125 31.7237 4.27625 33.1875 6.07544 33.1875H29.9246C31.7237 33.1875 33.1875 31.7237 33.1875 29.9246V13.9065C33.1875 12.1073 31.7237 10.6436 29.9246 10.6436ZM20.0042 4.59229L19.2533 14.2031H16.7467L15.9958 4.59229H20.0042ZM31.4077 29.9246C31.4077 30.7424 30.7424 31.4077 29.9246 31.4077H6.07544C5.25763 31.4077 4.59229 30.7424 4.59229 29.9246V13.9065C4.59229 13.0887 5.25763 12.4233 6.07544 12.4233H14.8224L14.9615 14.2031H14.4404C13.949 14.2031 13.5505 14.6016 13.5505 15.093C13.5505 15.5845 13.949 15.9829 14.4404 15.9829H21.5596C22.051 15.9829 22.4495 15.5845 22.4495 15.093C22.4495 14.6016 22.051 14.2031 21.5596 14.2031H21.0385L21.1776 12.4233H29.9246C30.7424 12.4233 31.4077 13.0887 31.4077 13.9065V29.9246Z" fill="#07425A"/>
</svg>
