<svg width="32" height="32" viewBox="0 0 32 32" fill="none" xmlns="http://www.w3.org/2000/svg">
<path d="M12.5195 10.9376H3.02727C1.80598 10.9376 0.8125 9.9441 0.8125 8.72258V3.02727C0.8125 1.80598 1.80598 0.8125 3.02727 0.8125H12.5195C13.741 0.8125 14.7345 1.80598 14.7345 3.02727V8.72258C14.7345 9.9441 13.741 10.9376 12.5195 10.9376ZM3.02727 2.71094C2.85276 2.71094 2.71094 2.85276 2.71094 3.02727V8.72258C2.71094 8.89731 2.85276 9.03914 3.02727 9.03914H12.5195C12.6942 9.03914 12.836 8.89731 12.836 8.72258V3.02727C12.836 2.85276 12.6942 2.71094 12.5195 2.71094H3.02727Z" fill="white"/>
<path d="M12.5195 31.1875H3.02727C1.80598 31.1875 0.8125 30.194 0.8125 28.9728V15.6837C0.8125 14.4622 1.80598 13.4687 3.02727 13.4687H12.5195C13.741 13.4687 14.7345 14.4622 14.7345 15.6837V28.9728C14.7345 30.194 13.741 31.1875 12.5195 31.1875ZM3.02727 15.3671C2.85276 15.3671 2.71094 15.509 2.71094 15.6837V28.9728C2.71094 29.1473 2.85276 29.2891 3.02727 29.2891H12.5195C12.6942 29.2891 12.836 29.1473 12.836 28.9728V15.6837C12.836 15.509 12.6942 15.3671 12.5195 15.3671H3.02727Z" fill="white"/>
<path d="M28.9728 31.1875H19.4806C18.2591 31.1875 17.2656 30.194 17.2656 28.9728V23.2774C17.2656 22.0559 18.2591 21.0624 19.4806 21.0624H28.9728C30.1941 21.0624 31.1876 22.0559 31.1876 23.2774V28.9728C31.1876 30.194 30.1941 31.1875 28.9728 31.1875ZM19.4806 22.9609C19.3059 22.9609 19.1641 23.1027 19.1641 23.2774V28.9728C19.1641 29.1473 19.3059 29.2891 19.4806 29.2891H28.9728C29.1473 29.2891 29.2891 29.1473 29.2891 28.9728V23.2774C29.2891 23.1027 29.1473 22.9609 28.9728 22.9609H19.4806Z" fill="white"/>
<path d="M28.9728 18.5313H19.4806C18.2591 18.5313 17.2656 17.5378 17.2656 16.3163V3.02727C17.2656 1.80598 18.2591 0.8125 19.4806 0.8125H28.9728C30.1941 0.8125 31.1876 1.80598 31.1876 3.02727V16.3163C31.1876 17.5378 30.1941 18.5313 28.9728 18.5313ZM19.4806 2.71094C19.3059 2.71094 19.1641 2.85276 19.1641 3.02727V16.3163C19.1641 16.4911 19.3059 16.6329 19.4806 16.6329H28.9728C29.1473 16.6329 29.2891 16.4911 29.2891 16.3163V3.02727C29.2891 2.85276 29.1473 2.71094 28.9728 2.71094H19.4806Z" fill="white"/>
</svg>
