<svg width="36" height="36" viewBox="0 0 36 36" fill="none" xmlns="http://www.w3.org/2000/svg">
<path d="M14.5195 12.9376H5.02727C3.80598 12.9376 2.8125 11.9441 2.8125 10.7226V5.02727C2.8125 3.80598 3.80598 2.8125 5.02727 2.8125H14.5195C15.741 2.8125 16.7345 3.80598 16.7345 5.02727V10.7226C16.7345 11.9441 15.741 12.9376 14.5195 12.9376ZM5.02727 4.71094C4.85276 4.71094 4.71094 4.85276 4.71094 5.02727V10.7226C4.71094 10.8973 4.85276 11.0391 5.02727 11.0391H14.5195C14.6942 11.0391 14.836 10.8973 14.836 10.7226V5.02727C14.836 4.85276 14.6942 4.71094 14.5195 4.71094H5.02727Z" fill="white"/>
<path d="M14.5195 33.1875H5.02727C3.80598 33.1875 2.8125 32.194 2.8125 30.9727V17.6837C2.8125 16.4622 3.80598 15.4687 5.02727 15.4687H14.5195C15.741 15.4687 16.7345 16.4622 16.7345 17.6837V30.9727C16.7345 32.194 15.741 33.1875 14.5195 33.1875ZM5.02727 17.3671C4.85276 17.3671 4.71094 17.509 4.71094 17.6837V30.9727C4.71094 31.1473 4.85276 31.2891 5.02727 31.2891H14.5195C14.6942 31.2891 14.836 31.1473 14.836 30.9727V17.6837C14.836 17.509 14.6942 17.3671 14.5195 17.3671H5.02727Z" fill="white"/>
<path d="M30.9728 33.1875H21.4806C20.2591 33.1875 19.2656 32.194 19.2656 30.9727V25.2774C19.2656 24.0559 20.2591 23.0624 21.4806 23.0624H30.9728C32.1941 23.0624 33.1876 24.0559 33.1876 25.2774V30.9727C33.1876 32.194 32.1941 33.1875 30.9728 33.1875ZM21.4806 24.9609C21.3059 24.9609 21.1641 25.1027 21.1641 25.2774V30.9727C21.1641 31.1473 21.3059 31.2891 21.4806 31.2891H30.9728C31.1473 31.2891 31.2891 31.1473 31.2891 30.9727V25.2774C31.2891 25.1027 31.1473 24.9609 30.9728 24.9609H21.4806Z" fill="white"/>
<path d="M30.9728 20.5313H21.4806C20.2591 20.5313 19.2656 19.5378 19.2656 18.3163V5.02727C19.2656 3.80598 20.2591 2.8125 21.4806 2.8125H30.9728C32.1941 2.8125 33.1876 3.80598 33.1876 5.02727V18.3163C33.1876 19.5378 32.1941 20.5313 30.9728 20.5313ZM21.4806 4.71094C21.3059 4.71094 21.1641 4.85276 21.1641 5.02727V18.3163C21.1641 18.4911 21.3059 18.6329 21.4806 18.6329H30.9728C31.1473 18.6329 31.2891 18.4911 31.2891 18.3163V5.02727C31.2891 4.85276 31.1473 4.71094 30.9728 4.71094H21.4806Z" fill="white"/>
</svg>
