<svg width="60" height="60" viewBox="0 0 60 60" fill="none" xmlns="http://www.w3.org/2000/svg">
<path d="M30 4.6875C43.9794 4.6875 55.3125 16.0206 55.3125 30C55.3125 43.9794 43.9794 55.3125 30 55.3125C16.0206 55.3125 4.6875 43.9794 4.6875 30C4.6875 16.0206 16.0206 4.6875 30 4.6875ZM30 51.0937C41.6495 51.0937 51.0937 41.6495 51.0937 30C51.0937 18.3505 41.6495 8.90628 30 8.90628C18.3505 8.90628 8.90628 18.3505 8.90628 30C8.90628 41.6495 18.3505 51.0937 30 51.0937Z" fill="#07425A"/>
<path d="M32.7272 17.9616C33.5509 17.1378 34.8866 17.1378 35.7103 17.9616C36.5341 18.7853 36.5341 20.1209 35.7103 20.9447L26.655 30L35.7103 39.0554C36.5341 39.8791 36.5341 41.2147 35.7103 42.0385C34.8866 42.8622 33.5509 42.8622 32.7272 42.0385L22.1803 31.4916C21.3566 30.6678 21.3566 29.3322 22.1803 28.5085L32.7272 17.9616Z" fill="#07425A"/>
</svg>
