<svg width="32" height="32" viewBox="0 0 32 32" fill="none" xmlns="http://www.w3.org/2000/svg">
<path d="M13.0414 21.4781C13.5924 20.8111 13.9238 19.9563 13.9238 19.0256C13.9238 16.8993 12.1939 15.1694 10.0676 15.1694C7.94132 15.1694 6.21143 16.8993 6.21143 19.0256C6.21143 19.9563 6.54288 20.8111 7.0939 21.4781C5.52805 22.1677 4.43164 23.7336 4.43164 25.5515V26.738C4.43164 27.2295 4.83008 27.6279 5.32153 27.6279H14.8137C15.3052 27.6279 15.7036 27.2295 15.7036 26.738V25.5515C15.7036 23.7336 14.6072 22.1677 13.0414 21.4781ZM10.0676 16.9492C11.2126 16.9492 12.144 17.8807 12.144 19.0256C12.144 20.1706 11.2126 21.1021 10.0676 21.1021C8.92269 21.1021 7.99121 20.1706 7.99121 19.0256C7.99121 17.8807 8.92269 16.9492 10.0676 16.9492ZM13.9238 25.8481H6.21143V25.5515C6.21143 24.0795 7.40904 22.8818 8.8811 22.8818H11.2542C12.7262 22.8818 13.9238 24.0795 13.9238 25.5515V25.8481Z" fill="white"/>
<path d="M26.678 16.356H18.3723C17.8809 16.356 17.4824 16.7544 17.4824 17.2458C17.4824 17.7373 17.8809 18.1357 18.3723 18.1357H26.678C27.1694 18.1357 27.5679 17.7373 27.5679 17.2458C27.5679 16.7544 27.1694 16.356 26.678 16.356Z" fill="white"/>
<path d="M26.678 20.5088H18.3723C17.8809 20.5088 17.4824 20.9072 17.4824 21.3987C17.4824 21.8901 17.8809 22.2886 18.3723 22.2886H26.678C27.1694 22.2886 27.5679 21.8901 27.5679 21.3987C27.5679 20.9072 27.1694 20.5088 26.678 20.5088Z" fill="white"/>
<path d="M26.678 24.6616H18.3723C17.8809 24.6616 17.4824 25.0601 17.4824 25.5515C17.4824 26.043 17.8809 26.4414 18.3723 26.4414H26.678C27.1694 26.4414 27.5679 26.043 27.5679 25.5515C27.5679 25.0601 27.1694 24.6616 26.678 24.6616Z" fill="white"/>
<path d="M27.9246 8.64355H19.3166L19.8535 1.77169C19.8728 1.52441 19.788 1.28029 19.6196 1.0981C19.4512 0.916024 19.2144 0.8125 18.9663 0.8125H13.0337C12.7856 0.8125 12.5488 0.916024 12.3804 1.0981C12.212 1.28023 12.1271 1.52441 12.1465 1.77169L12.6834 8.64355H4.07544C2.27625 8.64355 0.8125 10.1073 0.8125 11.9065V27.9246C0.8125 29.7237 2.27625 31.1875 4.07544 31.1875H27.9246C29.7237 31.1875 31.1875 29.7237 31.1875 27.9246V11.9065C31.1875 10.1073 29.7237 8.64355 27.9246 8.64355ZM18.0042 2.59229L17.2533 12.2031H14.7467L13.9958 2.59229H18.0042ZM29.4077 27.9246C29.4077 28.7424 28.7424 29.4077 27.9246 29.4077H4.07544C3.25763 29.4077 2.59229 28.7424 2.59229 27.9246V11.9065C2.59229 11.0887 3.25763 10.4233 4.07544 10.4233H12.8224L12.9615 12.2031H12.4404C11.949 12.2031 11.5505 12.6016 11.5505 13.093C11.5505 13.5845 11.949 13.9829 12.4404 13.9829H19.5596C20.051 13.9829 20.4495 13.5845 20.4495 13.093C20.4495 12.6016 20.051 12.2031 19.5596 12.2031H19.0385L19.1776 10.4233H27.9246C28.7424 10.4233 29.4077 11.0887 29.4077 11.9065V27.9246Z" fill="white"/>
</svg>
