<svg width="36" height="36" viewBox="0 0 36 36" fill="none" xmlns="http://www.w3.org/2000/svg">
<path d="M28.699 7.22349C25.8428 4.3807 22.0432 2.81412 17.9993 2.8125C13.9645 2.8125 10.1589 4.37769 7.28387 7.21979C4.40379 10.0667 2.81621 13.8502 2.8125 17.8593V17.864V17.8667C2.81296 20.2933 3.4511 22.7412 4.66243 24.9757L2.85402 33.1875L11.1684 31.2981C13.2742 32.3583 15.6237 32.9173 17.9935 32.9182H17.9995C22.0337 32.9182 25.8393 31.3528 28.7147 28.5105C31.5974 25.6612 33.1856 21.8826 33.1875 17.8709C33.1887 13.8875 31.5948 10.1061 28.699 7.22349ZM17.9993 30.5475H17.994C15.8661 30.5466 13.7578 30.0129 11.8972 29.0036L11.504 28.7904L5.97535 30.0467L7.17624 24.5942L6.94474 24.1954C5.79373 22.2124 5.18551 20.0233 5.18551 17.8642C5.18992 10.8755 10.9376 5.18323 17.9988 5.18323C21.4101 5.18462 24.6154 6.50579 27.0242 8.90293C29.4693 11.3372 30.8154 14.5218 30.8143 17.8702C30.8115 24.8605 25.0627 30.5475 17.9993 30.5475Z" fill="white"/>
<path d="M13.8665 11.2287H13.2008C12.9691 11.2287 12.5928 11.3154 12.2746 11.6614C11.9561 12.0076 11.0586 12.8444 11.0586 14.5463C11.0586 16.2483 12.3036 17.8927 12.4771 18.1238C12.6508 18.3546 14.8802 21.9586 18.4112 23.3451C21.3458 24.4974 21.9431 24.2682 22.5799 24.2105C23.2169 24.153 24.6353 23.3739 24.9248 22.5663C25.2143 21.7586 25.2143 21.0662 25.1276 20.9216C25.0406 20.7774 24.8088 20.691 24.4616 20.5181C24.1141 20.345 22.4115 19.494 22.093 19.3784C21.7745 19.2632 21.543 19.2055 21.3113 19.552C21.0795 19.8977 20.3973 20.6977 20.1946 20.9285C19.9921 21.1596 19.7893 21.1886 19.4418 21.0154C19.0944 20.8419 17.987 20.4701 16.6599 19.292C15.6269 18.375 14.9102 17.2056 14.7074 16.8594C14.5049 16.5134 14.6858 16.3261 14.8601 16.1535C15.0162 15.9987 15.227 15.7869 15.4008 15.585C15.5743 15.3829 15.6237 15.2388 15.7397 15.008C15.8554 14.7772 15.7974 14.5751 15.7107 14.4022C15.6237 14.2291 14.957 12.5186 14.648 11.8345H14.6483C14.388 11.2584 14.114 11.2389 13.8665 11.2287Z" fill="white"/>
</svg>
