<svg width="24" height="32" viewBox="0 0 24 32" fill="none" xmlns="http://www.w3.org/2000/svg">
<path fill-rule="evenodd" clip-rule="evenodd" d="M0.46875 0.8125H16.8021L23.5312 7.56115V31.1875H0.46875V0.8125ZM17.3221 7.04151L20.5022 7.0408C19.7736 6.30975 19.1821 5.71613 18.668 5.20019C18.1636 4.69407 17.7338 4.26271 17.3221 3.8497V7.04151ZM2.24279 2.59229V29.4077H21.7572V8.82035L15.5481 8.82177V2.59229H2.24279Z" fill="white"/>
<path d="M4.9043 7.04175H11.9808V8.82153H4.9043V7.04175Z" fill="white"/>
<path d="M4.9043 11.4758H11.9808V13.2556H4.9043V11.4758Z" fill="white"/>
<path d="M4.40851 22.9358C4.20232 22.9358 4.03516 23.1031 4.03516 23.3096V26.505C4.03516 26.7115 4.20232 26.8787 4.40851 26.8787C4.6147 26.8787 4.78186 26.7115 4.78186 26.505V23.3096C4.78186 23.1031 4.61475 22.9358 4.40851 22.9358Z" fill="white"/>
<path d="M14.262 22.9358C14.0558 22.9358 13.8887 23.1031 13.8887 23.3096V26.505C13.8887 26.7115 14.0558 26.8787 14.262 26.8787C14.4682 26.8787 14.6354 26.7115 14.6354 26.505V23.3096C14.6354 23.1031 14.4682 22.9358 14.262 22.9358Z" fill="white"/>
<path d="M7.35036 22.936C7.14417 22.936 6.97701 23.1032 6.97701 23.3097V24.922L6.08814 23.1425C6.01073 22.9875 5.83695 22.906 5.66844 22.9459C5.49993 22.9858 5.38086 23.1363 5.38086 23.3097V26.5051C5.38086 26.7116 5.54802 26.8789 5.75421 26.8789C5.9604 26.8789 6.12756 26.7116 6.12756 26.5051V24.8928L7.01644 26.6723C7.0807 26.801 7.21138 26.8789 7.35026 26.8789C7.37869 26.8789 7.40751 26.8757 7.43614 26.8689C7.60464 26.829 7.72371 26.6785 7.72371 26.5051V23.3097C7.72371 23.1032 7.5565 22.936 7.35036 22.936Z" fill="white"/>
<path d="M10.3102 22.947C10.1105 22.8973 9.90748 23.0187 9.85745 23.219L9.42152 24.9642L8.98565 23.219C8.93562 23.0187 8.73281 22.8971 8.53289 22.947C8.33283 22.9971 8.21121 23.2 8.26124 23.4003L9.05932 26.5958C9.10084 26.7621 9.25018 26.8788 9.42152 26.8788C9.59287 26.8788 9.74216 26.7621 9.78372 26.5958L10.5818 23.4003C10.6318 23.2001 10.5102 22.9971 10.3102 22.947Z" fill="white"/>
<path d="M12.1402 22.9358C11.4942 22.9358 10.9688 23.4619 10.9688 24.1084V25.7061C10.9688 26.3527 11.4943 26.8787 12.1402 26.8787C12.7862 26.8787 13.3117 26.3526 13.3117 25.7061V24.1084C13.3117 23.4618 12.7861 22.9358 12.1402 22.9358ZM12.565 25.7062C12.565 25.9406 12.3744 26.1313 12.1402 26.1313C11.906 26.1313 11.7155 25.9406 11.7155 25.7062V24.1085C11.7155 23.874 11.9061 23.6833 12.1403 23.6833C12.3745 23.6833 12.565 23.874 12.565 24.1085V25.7062Z" fill="white"/>
<path d="M17.2567 25.7821C17.0783 25.6789 16.8499 25.7398 16.7466 25.9184C16.6707 26.0497 16.5297 26.1313 16.3785 26.1313C16.1442 26.1313 15.9537 25.9406 15.9537 25.7061V24.1084C15.9537 23.874 16.1443 23.6833 16.3785 23.6833C16.5296 23.6833 16.6707 23.7648 16.7465 23.8959C16.8499 24.0746 17.0783 24.1356 17.2567 24.0321C17.4351 23.9287 17.4961 23.7 17.3927 23.5214C17.1838 23.1602 16.7952 22.9358 16.3785 22.9358C15.7325 22.9358 15.207 23.4619 15.207 24.1084V25.7061C15.207 26.3527 15.7326 26.8787 16.3785 26.8787C16.7953 26.8787 17.1841 26.6542 17.3929 26.2927C17.4962 26.1141 17.4352 25.8855 17.2567 25.7821Z" fill="white"/>
<path d="M19.5724 25.281C19.7786 25.281 19.9458 25.1138 19.9458 24.9073C19.9458 24.7009 19.7786 24.5336 19.5724 24.5336H18.7487V23.6833H19.5724V23.6833C19.7786 23.6833 19.9458 23.516 19.9458 23.3096C19.9458 23.1031 19.7786 22.9358 19.5724 22.9358H18.3753C18.1691 22.9358 18.002 23.1031 18.002 23.3096V26.505C18.002 26.7115 18.1691 26.8787 18.3753 26.8787H19.5724C19.7786 26.8787 19.9458 26.7115 19.9458 26.505C19.9458 26.2986 19.7786 26.1313 19.5724 26.1313H18.7487V25.281H19.5724Z" fill="white"/>
</svg>
