<svg width="36" height="36" viewBox="0 0 36 36" fill="none" xmlns="http://www.w3.org/2000/svg">
<path d="M4.21875 4.78125C3.4421 4.78125 2.8125 5.41085 2.8125 6.1875V27.2695C2.8125 28.0461 3.4421 28.6757 4.21875 28.6757H22.0944V31.5L25.5483 30.3724L29.0022 31.5V28.6757H31.7812C32.5579 28.6757 33.1875 28.0461 33.1875 27.2695V6.1875C33.1875 5.41085 32.5579 4.78125 31.7812 4.78125H4.21875ZM27.2224 29.0435L25.5482 28.497L23.8741 29.0435V27.0035C24.3912 27.2149 24.9562 27.3324 25.5482 27.3324C26.1403 27.3324 26.7053 27.2149 27.2224 27.0035V29.0435ZM25.5482 25.5494C24.0781 25.5494 22.8821 24.3511 22.8821 22.8783C22.8821 21.4055 24.0781 20.2072 25.5482 20.2072C27.0184 20.2072 28.2144 21.4055 28.2144 22.8783C28.2144 24.3511 27.0184 25.5494 25.5482 25.5494ZM31.4077 25.4864C31.4077 26.2631 30.7781 26.8927 30.0015 26.8927H29.0022V25.6788C29.6219 24.9131 29.9943 23.9386 29.9943 22.8782C29.9943 20.4222 27.9998 18.4241 25.5483 18.4241C23.0968 18.4241 21.1023 20.4222 21.1023 22.8782C21.1023 23.9386 21.4747 24.9131 22.0945 25.6788V26.8927H5.99853C5.22188 26.8927 4.59229 26.2631 4.59229 25.4864V7.97057C4.59229 7.19392 5.22188 6.56431 5.99854 6.56431H30.0015C30.7781 6.56431 31.4077 7.19391 31.4077 7.97056V25.4864Z" fill="#07425A"/>
<path d="M26.9566 9.66156H9.04339C8.55101 9.66156 8.15186 10.0607 8.15186 10.5531C8.15186 11.0455 8.55101 11.4446 9.04339 11.4446H26.9566C27.449 11.4446 27.8481 11.0455 27.8481 10.5531C27.8481 10.0607 27.449 9.66156 26.9566 9.66156Z" fill="#07425A"/>
<path d="M26.9566 13.8131H9.04339C8.55101 13.8131 8.15186 14.2123 8.15186 14.7046C8.15186 15.197 8.55101 15.5962 9.04339 15.5962H26.9566C27.449 15.5962 27.8481 15.197 27.8481 14.7046C27.8481 14.2123 27.449 13.8131 26.9566 13.8131Z" fill="#07425A"/>
<path d="M17.1085 17.9646H9.04339C8.55101 17.9646 8.15186 18.3638 8.15186 18.8562C8.15186 19.3486 8.55101 19.7477 9.04339 19.7477H17.1085C17.6008 19.7477 18 19.3486 18 18.8562C18 18.3638 17.6009 17.9646 17.1085 17.9646Z" fill="#07425A"/>
</svg>
