<svg width="60" height="60" viewBox="0 0 60 60" fill="none" xmlns="http://www.w3.org/2000/svg">
<path d="M30 4.6875C16.0206 4.6875 4.6875 16.0206 4.6875 30C4.6875 43.9794 16.0206 55.3125 30 55.3125C43.9794 55.3125 55.3125 43.9794 55.3125 30C55.3125 16.0206 43.9794 4.6875 30 4.6875ZM30 51.0937C18.3505 51.0937 8.90628 41.6495 8.90628 30C8.90628 18.3505 18.3505 8.90628 30 8.90628C41.6495 8.90628 51.0937 18.3505 51.0937 30C51.0937 41.6495 41.6495 51.0937 30 51.0937Z" fill="#07425A"/>
<path d="M27.2728 17.9616C26.4491 17.1378 25.1134 17.1378 24.2897 17.9616C23.4659 18.7853 23.4659 20.1209 24.2897 20.9447L33.345 30L24.2897 39.0554C23.4659 39.8791 23.4659 41.2147 24.2897 42.0385C25.1134 42.8622 26.4491 42.8622 27.2728 42.0385L37.8197 31.4916C38.6434 30.6678 38.6434 29.3322 37.8197 28.5085L27.2728 17.9616Z" fill="#07425A"/>
</svg>
