<svg width="36" height="36" viewBox="0 0 36 36" fill="none" xmlns="http://www.w3.org/2000/svg">
<path d="M20.3965 32.214V26.6323C20.3965 26.0946 20.8158 25.6587 21.3519 25.6587H26.8976C27.742 25.6587 28.1831 26.7176 27.5851 27.3195L22.047 32.9012C21.8612 33.0882 20.5906 33.577 20.3965 32.214ZM22.3377 27.6058V29.8579L24.5601 27.6058H22.3377Z" fill="white"/>
<path d="M12.8906 14.69H17.6788V16.6371H12.8906V14.69Z" fill="white"/>
<path d="M9.26758 14.69H11.144V16.6371H9.26758V14.69Z" fill="white"/>
<path d="M12.8906 19.6225H17.6788V21.5697H12.8906V19.6225Z" fill="white"/>
<path d="M9.26758 19.6225H11.144V21.5697H9.26758V19.6225Z" fill="white"/>
<path d="M12.8906 24.5553H17.5494V26.5024H12.8906V24.5553Z" fill="white"/>
<path d="M9.26758 24.5553H11.144V26.5024H9.26758V24.5553Z" fill="white"/>
<path d="M25.0709 23.5168C21.6814 23.5168 18.9238 20.7508 18.9238 17.3509C18.9238 13.9511 21.6814 11.185 25.0709 11.185C28.4604 11.185 31.2179 13.9511 31.2179 17.3509C31.2179 20.7508 28.4604 23.5168 25.0709 23.5168ZM25.0709 13.1322C22.7518 13.1322 20.865 15.0247 20.865 17.3509C20.865 19.6771 22.7518 21.5697 25.0709 21.5697C27.39 21.5697 29.2767 19.6771 29.2767 17.3509C29.2767 15.0247 27.39 13.1322 25.0709 13.1322Z" fill="white"/>
<path d="M18.5213 33.1875H6.01792C5.48184 33.1875 5.0625 32.7516 5.0625 32.2139V3.78606C5.0625 3.24839 5.48184 2.8125 6.01792 2.8125H26.9178C27.4538 2.8125 27.9036 3.24839 27.9036 3.78606V9.82212H25.9624V4.75962H7.0037V31.2404H18.5213V33.1875H18.5213Z" fill="white"/>
<path d="M14.8896 6.96629H13.9139L12.418 11.3798H13.4855L13.889 10.1466H14.8934L15.3084 11.3798H16.392L14.8971 6.98823L14.8896 6.96629ZM14.6135 9.23793H14.1664C14.2214 9.04322 14.3172 8.79081 14.3888 8.57747C14.4611 8.79061 14.5579 9.04322 14.6135 9.23793Z" fill="white"/>
<path d="M19.4929 7.81004H18.5871V9.17302H17.293V10.0168H18.5871V11.3798H19.4929V10.0168H20.7871V9.17302H19.4929V7.81004Z" fill="white"/>
<path d="M27.88 16.4235L25.9504 16.1424L25.0874 14.3896L24.2245 16.1424L22.2949 16.4235L23.6912 17.7879L23.3616 19.7145L25.0874 18.8049L26.8133 19.7145L26.4837 17.7879L27.88 16.4235Z" fill="white"/>
</svg>
