<svg width="36" height="36" viewBox="0 0 36 36" fill="none" xmlns="http://www.w3.org/2000/svg">
<path d="M32.1032 16.9152C31.5036 16.9152 31.0184 17.4009 31.0184 18C31.0184 25.178 25.179 31.0179 18.0006 31.0179C15.4395 31.0179 12.9405 30.2499 10.821 28.8482H11.4916C12.0912 28.8482 12.5765 28.3625 12.5765 27.7634C12.5765 27.1643 12.0912 26.6786 11.4916 26.6786H8.23717C7.63755 26.6786 7.15234 27.1643 7.15234 27.7634V31.0179C7.15234 31.617 7.63755 32.1027 8.23717 32.1027C8.83678 32.1027 9.32199 31.617 9.32199 31.0179V30.4628C11.8567 32.2266 14.8927 33.1875 18.0006 33.1875C26.3751 33.1875 33.1881 26.3745 33.1881 18C33.1881 17.4009 32.7029 16.9152 32.1032 16.9152Z" fill="#07425A"/>
<path d="M18 4.98214C20.5964 4.98214 23.0626 5.73107 25.1942 7.15179H24.5089C23.9093 7.15179 23.4241 7.63752 23.4241 8.23661C23.4241 8.8357 23.9093 9.32143 24.5089 9.32143H27.7634C28.363 9.32143 28.8482 8.8357 28.8482 8.23661V4.98214C28.8482 4.38305 28.363 3.89732 27.7634 3.89732C27.1638 3.89732 26.6786 4.38305 26.6786 4.98214V5.54912C24.1267 3.76318 21.1468 2.8125 18 2.8125C9.62547 2.8125 2.8125 9.62548 2.8125 18C2.8125 18.5991 3.2977 19.0848 3.89732 19.0848C4.49694 19.0848 4.98214 18.5991 4.98214 18C4.98214 10.8221 10.8215 4.98214 18 4.98214Z" fill="#07425A"/>
<path d="M18.3811 8.30545C18.1353 8.21329 17.8641 8.21329 17.6183 8.30545L8.93977 11.5599C8.51707 11.7188 8.23633 12.1235 8.23633 12.5759V23.4241C8.23633 23.8765 8.51707 24.2811 8.93977 24.4401L17.6183 27.6945C17.7412 27.7406 17.8705 27.7634 17.9997 27.7634C18.129 27.7634 18.2582 27.7406 18.3811 27.6945L27.0597 24.4401C27.4824 24.2811 27.7631 23.8765 27.7631 23.4241V12.5759C27.7631 12.1235 27.4824 11.7188 27.0597 11.5599L18.3811 8.30545ZM17.9997 10.4799L23.5891 12.5759L17.9997 14.6719L12.4103 12.5759L17.9997 10.4799ZM10.406 14.1417L16.9149 16.5825V25.1133L10.406 22.6725V14.1417ZM19.0845 25.1133V16.5825L25.5935 14.1417V22.6725L19.0845 25.1133Z" fill="#07425A"/>
</svg>
