<svg width="36" height="36" viewBox="0 0 36 36" fill="none" xmlns="http://www.w3.org/2000/svg">
<path fill-rule="evenodd" clip-rule="evenodd" d="M6.46875 2.8125H22.8021L29.5312 9.56115V33.1875H6.46875V2.8125ZM23.3221 9.04151L26.5022 9.0408C25.7736 8.30975 25.1821 7.71613 24.668 7.20019C24.1636 6.69407 23.7338 6.26271 23.3221 5.8497V9.04151ZM8.24279 4.59229V31.4077H27.7572V10.8203L21.5481 10.8218V4.59229H8.24279Z" fill="#07425A"/>
<path d="M10.9043 9.04175H17.9808V10.8215H10.9043V9.04175Z" fill="#07425A"/>
<path d="M10.9043 13.4758H17.9808V15.2556H10.9043V13.4758Z" fill="#07425A"/>
<path d="M10.4085 24.9359C10.2023 24.9359 10.0352 25.1031 10.0352 25.3096V28.505C10.0352 28.7115 10.2023 28.8788 10.4085 28.8788C10.6147 28.8788 10.7819 28.7115 10.7819 28.505V25.3096C10.7819 25.1031 10.6147 24.9359 10.4085 24.9359Z" fill="#07425A"/>
<path d="M20.262 24.9359C20.0558 24.9359 19.8887 25.1031 19.8887 25.3096V28.505C19.8887 28.7115 20.0558 28.8788 20.262 28.8788C20.4682 28.8788 20.6354 28.7115 20.6354 28.505V25.3096C20.6354 25.1031 20.4682 24.9359 20.262 24.9359Z" fill="#07425A"/>
<path d="M13.3504 24.936C13.1442 24.936 12.977 25.1032 12.977 25.3097V26.922L12.0881 25.1425C12.0107 24.9875 11.8369 24.906 11.6684 24.9459C11.4999 24.9858 11.3809 25.1363 11.3809 25.3097V28.5052C11.3809 28.7116 11.548 28.8789 11.7542 28.8789C11.9604 28.8789 12.1276 28.7116 12.1276 28.5052V26.8928L13.0164 28.6723C13.0807 28.801 13.2114 28.8789 13.3503 28.8789C13.3787 28.8789 13.4075 28.8757 13.4361 28.8689C13.6046 28.829 13.7237 28.6785 13.7237 28.5052V25.3097C13.7237 25.1032 13.5565 24.936 13.3504 24.936Z" fill="#07425A"/>
<path d="M16.3102 24.9471C16.1105 24.8973 15.9075 25.0188 15.8574 25.219L15.4215 26.9642L14.9856 25.219C14.9356 25.0187 14.7328 24.8971 14.5329 24.9471C14.3328 24.9971 14.2112 25.2 14.2612 25.4003L15.0593 28.5958C15.1008 28.7621 15.2502 28.8788 15.4215 28.8788C15.5929 28.8788 15.7422 28.7621 15.7837 28.5958L16.5818 25.4003C16.6318 25.2001 16.5102 24.9971 16.3102 24.9471Z" fill="#07425A"/>
<path d="M18.1402 24.9359C17.4942 24.9359 16.9688 25.4619 16.9688 26.1084V27.7061C16.9688 28.3527 17.4943 28.8787 18.1402 28.8787C18.7862 28.8787 19.3117 28.3527 19.3117 27.7061V26.1084C19.3117 25.4618 18.7861 24.9359 18.1402 24.9359ZM18.565 27.7062C18.565 27.9406 18.3744 28.1313 18.1402 28.1313C17.906 28.1313 17.7155 27.9406 17.7155 27.7062V26.1085C17.7155 25.874 17.9061 25.6833 18.1403 25.6833C18.3745 25.6833 18.565 25.874 18.565 26.1085V27.7062Z" fill="#07425A"/>
<path d="M23.2567 27.7821C23.0783 27.6789 22.8499 27.7398 22.7466 27.9185C22.6707 28.0498 22.5297 28.1313 22.3785 28.1313C22.1442 28.1313 21.9537 27.9406 21.9537 27.7061V26.1084C21.9537 25.874 22.1443 25.6833 22.3785 25.6833C22.5296 25.6833 22.6707 25.7648 22.7465 25.896C22.8499 26.0746 23.0783 26.1356 23.2567 26.0321C23.4351 25.9287 23.4961 25.7 23.3927 25.5214C23.1838 25.1602 22.7952 24.9359 22.3785 24.9359C21.7325 24.9359 21.207 25.4619 21.207 26.1084V27.7061C21.207 28.3527 21.7326 28.8787 22.3785 28.8787C22.7953 28.8787 23.1841 28.6542 23.3929 28.2927C23.4962 28.1141 23.4352 27.8855 23.2567 27.7821Z" fill="#07425A"/>
<path d="M25.5724 27.281C25.7786 27.281 25.9458 27.1138 25.9458 26.9073C25.9458 26.7009 25.7786 26.5336 25.5724 26.5336H24.7487V25.6833H25.5724V25.6833C25.7786 25.6833 25.9458 25.516 25.9458 25.3096C25.9458 25.1031 25.7786 24.9359 25.5724 24.9359H24.3753C24.1691 24.9359 24.002 25.1031 24.002 25.3096V28.505C24.002 28.7115 24.1691 28.8788 24.3753 28.8788H25.5724C25.7786 28.8788 25.9458 28.7115 25.9458 28.505C25.9458 28.2986 25.7786 28.1313 25.5724 28.1313H24.7487V27.281H25.5724Z" fill="#07425A"/>
</svg>
