<svg width="36" height="36" viewBox="0 0 36 36" fill="none" xmlns="http://www.w3.org/2000/svg">
<path fill-rule="evenodd" clip-rule="evenodd" d="M7.59375 7.09615C7.59375 9.05573 8.91562 10.7084 10.7188 11.2178V24.7822C8.91562 25.2916 7.59375 26.9443 7.59375 28.9038C7.59375 31.2684 9.51875 33.1875 11.8906 33.1875C14.2625 33.1875 16.1875 31.2684 16.1875 28.9038C16.1875 26.9443 14.8656 25.2916 13.0625 24.7822V23.8663C13.0625 22.8834 13.7953 22.0547 14.7734 21.9332C15.7983 21.8053 17.0098 21.6544 18.2244 21.5031L18.2821 21.4959L18.2841 21.4957C19.5199 21.3418 20.7557 21.1879 21.7984 21.0578C23.9484 20.7898 25.5625 18.9673 25.5625 16.8068V15.8909C27.3656 15.3815 28.6875 13.7288 28.6875 11.7692C28.6875 9.40465 26.7625 7.48558 24.3906 7.48558C22.0188 7.48558 20.0938 9.40465 20.0938 11.7692C20.0938 13.7288 21.4156 15.3815 23.2188 15.8909V16.8068C23.2188 17.7897 22.4859 18.6184 21.5078 18.7399C20.4687 18.8696 19.2378 19.0229 18.0063 19.1762L17.9952 19.1776L17.9896 19.1783L17.9874 19.1786C16.7549 19.3321 15.5228 19.4855 14.4828 19.6153C13.975 19.6776 13.4969 19.8287 13.0625 20.0499V11.2178C14.8656 10.7084 16.1875 9.05573 16.1875 7.09615C16.1875 4.73158 14.2625 2.8125 11.8906 2.8125C9.51875 2.8125 7.59375 4.73158 7.59375 7.09615ZM26.3438 11.7692C26.3438 10.6944 25.4688 9.82212 24.3906 9.82212C23.3125 9.82212 22.4375 10.6944 22.4375 11.7692C22.4375 12.844 23.3125 13.7163 24.3906 13.7163C25.4688 13.7163 26.3438 12.844 26.3438 11.7692ZM11.8906 5.14904C12.9688 5.14904 13.8438 6.02135 13.8438 7.09615C13.8438 8.17096 12.9688 9.04327 11.8906 9.04327C10.8125 9.04327 9.9375 8.17096 9.9375 7.09615C9.9375 6.02135 10.8125 5.14904 11.8906 5.14904ZM13.8438 28.9038C13.8438 27.829 12.9688 26.9567 11.8906 26.9567C10.8125 26.9567 9.9375 27.829 9.9375 28.9038C9.9375 29.9787 10.8125 30.851 11.8906 30.851C12.9688 30.851 13.8438 29.9787 13.8438 28.9038Z" fill="#07425A"/>
</svg>
