<svg width="22" height="32" viewBox="0 0 22 32" fill="none" xmlns="http://www.w3.org/2000/svg">
<path fill-rule="evenodd" clip-rule="evenodd" d="M0.59375 5.09615C0.59375 7.05573 1.91562 8.70844 3.71875 9.21781V22.7822C1.91562 23.2916 0.59375 24.9443 0.59375 26.9038C0.59375 29.2684 2.51875 31.1875 4.89062 31.1875C7.2625 31.1875 9.1875 29.2684 9.1875 26.9038C9.1875 24.9443 7.86563 23.2916 6.0625 22.7822V21.8663C6.0625 20.8834 6.79531 20.0547 7.77344 19.9332C8.79831 19.8053 10.0098 19.6544 11.2244 19.5031L11.2821 19.4959L11.2841 19.4957C12.5199 19.3418 13.7557 19.1879 14.7984 19.0578C16.9484 18.7898 18.5625 16.9673 18.5625 14.8068V13.8909C20.3656 13.3815 21.6875 11.7288 21.6875 9.76923C21.6875 7.40465 19.7625 5.48558 17.3906 5.48558C15.0188 5.48558 13.0938 7.40465 13.0938 9.76923C13.0938 11.7288 14.4156 13.3815 16.2188 13.8909V14.8068C16.2188 15.7897 15.4859 16.6184 14.5078 16.7399C13.4687 16.8696 12.2378 17.0229 11.0063 17.1762L10.9952 17.1776L10.9896 17.1783L10.9874 17.1786C9.75492 17.3321 8.52279 17.4855 7.48281 17.6153C6.975 17.6776 6.49688 17.8287 6.0625 18.0499V9.21781C7.86563 8.70844 9.1875 7.05573 9.1875 5.09615C9.1875 2.73158 7.2625 0.8125 4.89062 0.8125C2.51875 0.8125 0.59375 2.73158 0.59375 5.09615ZM19.3438 9.76923C19.3438 8.69442 18.4688 7.82212 17.3906 7.82212C16.3125 7.82212 15.4375 8.69442 15.4375 9.76923C15.4375 10.844 16.3125 11.7163 17.3906 11.7163C18.4688 11.7163 19.3438 10.844 19.3438 9.76923ZM4.89062 3.14904C5.96875 3.14904 6.84375 4.02135 6.84375 5.09615C6.84375 6.17096 5.96875 7.04327 4.89062 7.04327C3.8125 7.04327 2.9375 6.17096 2.9375 5.09615C2.9375 4.02135 3.8125 3.14904 4.89062 3.14904ZM6.84375 26.9038C6.84375 25.829 5.96875 24.9567 4.89062 24.9567C3.8125 24.9567 2.9375 25.829 2.9375 26.9038C2.9375 27.9787 3.8125 28.851 4.89062 28.851C5.96875 28.851 6.84375 27.9787 6.84375 26.9038Z" fill="white"/>
</svg>
